<?xml version="1.0" standalone="no"?>
<!DOCTYPE svg PUBLIC "-//W3C//DTD SVG 1.1//EN" "http://www.w3.org/Graphics/SVG/1.1/DTD/svg11.dtd" >
<svg xmlns="http://www.w3.org/2000/svg">
<metadata></metadata>
<defs>
<font id="limerick_serialregular" horiz-adv-x="1222" >
<font-face units-per-em="2048" ascent="1638" descent="-410" />
<missing-glyph horiz-adv-x="593" />
<glyph horiz-adv-x="0" />
<glyph horiz-adv-x="0" />
<glyph horiz-adv-x="682" />
<glyph unicode="&#xd;" horiz-adv-x="593" />
<glyph unicode=" "  horiz-adv-x="593" />
<glyph unicode="&#x09;" horiz-adv-x="593" />
<glyph unicode="&#xa0;" horiz-adv-x="593" />
<glyph unicode="!" horiz-adv-x="409" d="M86 106q0 55 37.5 93.5t91.5 38.5q55 0 93 -38t38 -94q0 -54 -37.5 -91.5t-91.5 -37.5q-55 0 -93 37.5t-38 91.5zM303 381h-174v1094h174v-1094z" />
<glyph unicode="&#x22;" horiz-adv-x="706" d="M102 926h-120l153 551h213zM414 926h-119l151 551h213z" />
<glyph unicode="#" horiz-adv-x="1294" d="M332 459h-236l23 102h235l74 352h-235l20 103h238l90 430h102l-92 -430h215l90 430h100l-90 -430h236l-21 -103h-235l-76 -352h236l-21 -102h-235l-93 -430h-100l90 430h-213l-92 -430h-100zM530 913l-75 -352h215l73 352h-213z" />
<glyph unicode="$" horiz-adv-x="995" d="M18 195l125 135q57 -93 126 -137.5t177 -57.5v549q-121 55 -204 113q-75 54 -116.5 135t-41.5 172q0 158 104 271t258 124v127h78v-125q18 2 47 2q174 0 312 -166l-113 -133q-36 49 -65 74q-41 36 -79 48.5t-96 12.5h-6v-485q109 -38 201 -86q211 -115 211 -354 q0 -184 -112 -304t-300 -139v-139h-78v133q-89 5 -157 25q-104 32 -191 110q-43 41 -80 95zM524 651v-497q92 9 151.5 78t59.5 167q0 83 -57 150.5t-154 101.5zM446 885l3 432q-73 -19 -119.5 -76t-46.5 -129q0 -50 18 -95t49 -71q30 -24 96 -61z" />
<glyph unicode="%" horiz-adv-x="1736" d="M442 -74l-120 74l972 1550l123 -73zM66 1128q0 162 113 276t274 114q158 0 271.5 -114.5t113.5 -275.5q0 -162 -113 -275.5t-272 -113.5q-161 0 -274 113t-113 276zM899 348q0 160 112.5 272.5t272.5 112.5t272.5 -112.5t112.5 -272.5q0 -161 -112.5 -274t-272.5 -113 t-272.5 113t-112.5 274zM453 1370q-98 0 -166 -70.5t-68 -171.5q0 -102 67.5 -170.5t166.5 -68.5q97 0 163 68.5t66 170.5q0 101 -67 171.5t-162 70.5zM1284 586q-99 0 -165 -68t-66 -170q0 -103 66 -172.5t165 -69.5q100 0 167 69.5t67 172.5q0 101 -67 169.5t-167 68.5z " />
<glyph unicode="&#x26;" horiz-adv-x="1335" d="M358 764l7 6l79 53l-14 19q-57 60 -80 96q-69 101 -69 217q0 151 99.5 250.5t250.5 99.5q145 0 243.5 -91t98.5 -224q0 -64 -24.5 -127t-67.5 -109q-63 -72 -195 -159l287 -342l205 194l106 -131l-213 -188l270 -328h-215l-190 233l-137 -114q-176 -148 -340 -148 t-274.5 111t-110.5 274q0 78 28 148q28 66 59 101.5t113 96.5zM709 256l122 98l-288 346l-103 -69q-99 -66 -135 -113q-59 -74 -59 -160q0 -94 59.5 -156.5t149.5 -62.5q60 0 115 25t139 92zM459 1159q0 -57 30.5 -115t100.5 -131q91 66 147 119q66 57 66 144 q0 72 -49.5 121t-122.5 49q-75 0 -123.5 -52.5t-48.5 -134.5z" />
<glyph unicode="'" horiz-adv-x="393" d="M102 926h-120l153 551h213z" />
<glyph unicode="(" horiz-adv-x="550" d="M403 1743l146 -41q-83 -131 -133 -225q-79 -161 -121.5 -353.5t-42.5 -390.5q0 -234 70 -491q35 -125 79 -220t142 -255l-150 -35q-99 163 -137 241q-83 166 -130.5 370t-47.5 386q0 237 80 500q43 138 91 239.5t154 274.5z" />
<glyph unicode=")" horiz-adv-x="542" d="M145 -264l-143 37q84 137 129 225q78 162 121 355.5t43 389.5q0 240 -68 490q-36 127 -79 222t-138 253l144 37q101 -170 137 -246q83 -167 128.5 -372t45.5 -400q0 -246 -68 -485q-38 -133 -88 -233.5t-164 -272.5z" />
<glyph unicode="*" horiz-adv-x="731" d="M297 1165l-250 125l51 86l230 -145l-9 276h95l-11 -280l232 149l51 -84l-246 -127l244 -125l-49 -86l-232 148l11 -275h-88v277l-232 -148l-45 84z" />
<glyph unicode="+" d="M535 668h-390v141h390v393h151v-393h389v-141h-389v-396h-151v396z" />
<glyph unicode="," horiz-adv-x="393" d="M102 -213h-120l153 549h213z" />
<glyph unicode="-" horiz-adv-x="620" d="M573 389h-526v156h526v-156z" />
<glyph unicode="." horiz-adv-x="350" d="M47 106q0 55 37 93.5t90 38.5q55 0 93 -38t38 -94q0 -54 -38 -91.5t-93 -37.5q-53 0 -90 37.5t-37 91.5z" />
<glyph unicode="/" horiz-adv-x="960" d="M203 -18l-156 2l711 1503h155z" />
<glyph unicode="0" d="M59 735q0 343 125 541q66 105 181.5 167t244.5 62q131 0 246.5 -61.5t181.5 -167.5q125 -198 125 -541q0 -340 -125 -538q-66 -106 -182 -169t-246 -63q-128 0 -243 63t-183 169q-125 195 -125 538zM328 1169q-80 -148 -80 -434t80 -434q41 -78 117.5 -124t164.5 -46 t165.5 46.5t117.5 123.5q82 158 82 434q0 282 -82 434q-41 77 -119 123.5t-164 46.5t-163.5 -46.5t-118.5 -123.5z" />
<glyph unicode="1" d="M721 0h-182v1329h-207v148h389v-1477z" />
<glyph unicode="2" d="M281 1032h-191v33q0 200 135.5 327.5t347.5 127.5q218 0 361 -134t143 -337q0 -223 -198 -433l-447 -469h670v-147h-1010l615 688q94 106 135 191.5t41 175.5q0 135 -87.5 224t-222.5 89q-124 0 -209 -86t-85 -211q0 -25 2 -39z" />
<glyph unicode="3" d="M104 381h181q17 -125 99 -195.5t212 -70.5q134 0 221.5 84t87.5 213q0 138 -92.5 214t-259.5 76h-8v148l4 -2h35q133 0 209.5 70t76.5 190q0 113 -77 185.5t-197 72.5t-192 -66t-78 -182h-179q17 188 135.5 289.5t319.5 101.5t328 -109.5t127 -281.5q0 -117 -62 -203.5 t-172 -123.5q125 -34 200 -138t75 -243q0 -199 -137 -322t-359 -123q-218 0 -349.5 109.5t-148.5 306.5z" />
<glyph unicode="4" d="M776 338h-747l925 1198v-1055h209v-143h-209v-338h-178v338zM733 1008l-340 -469q-23 -34 -96 -86q79 28 129 28h354v508q0 60 17 146q-36 -84 -64 -127z" />
<glyph unicode="5" d="M111 176l47 172q80 -107 184.5 -167t212.5 -60q157 0 261 99.5t104 248.5q0 155 -106 250.5t-277 95.5q-74 0 -142.5 -20t-158.5 -68l170 750h626v-156h-493l-107 -399q78 34 174 34q220 0 359 -135.5t139 -349.5q0 -221 -151.5 -365.5t-383.5 -144.5q-267 0 -458 215z " />
<glyph unicode="6" d="M819 1475l-428 -619q130 96 287 96q127 0 233.5 -62t168 -170.5t61.5 -238.5q0 -145 -69.5 -263t-191 -184.5t-270.5 -66.5q-229 0 -378.5 143t-149.5 361q0 166 80 311q21 40 82 136l354 557h221zM621 815q-149 0 -250 -101.5t-101 -250.5q0 -145 98.5 -243.5 t243.5 -98.5q149 0 249 100.5t100 249.5q0 146 -97.5 245t-242.5 99z" />
<glyph unicode="7" d="M311 0h-202l706 1253q26 47 66 84q-33 -12 -53.5 -15t-63.5 -3h-645v158h1024z" />
<glyph unicode="8" d="M408 784q-107 40 -166.5 125.5t-59.5 202.5q0 169 123 283t307 114q179 0 303.5 -114.5t124.5 -280.5q0 -118 -61 -204t-170 -126q130 -41 205.5 -143.5t75.5 -239.5q0 -184 -140.5 -311t-341.5 -127t-338 126.5t-137 311.5q0 135 73 237.5t202 145.5zM326 408v-15 q0 -116 83 -196t199 -80q122 0 203.5 84.5t81.5 210.5q0 121 -83 205.5t-202 84.5q-120 0 -201 -85.5t-81 -208.5zM608 1358q-104 0 -177 -73t-73 -177q0 -107 73 -181.5t177 -74.5t177 74.5t73 181.5q0 104 -73 177t-177 73z" />
<glyph unicode="9" d="M397 0l426 610q-51 -34 -57 -37q-101 -53 -225 -53q-197 0 -328 134.5t-131 338.5q0 218 151 366t375 148q229 0 381 -147t152 -371q0 -100 -38.5 -202t-123.5 -232l-367 -555h-215zM606 1350q-148 0 -246 -102t-98 -255q0 -143 97.5 -239.5t242.5 -96.5q146 0 246 100.5 t100 248.5q0 146 -99.5 245t-242.5 99z" />
<glyph unicode=":" horiz-adv-x="385" d="M82 106q0 55 37.5 93.5t91.5 38.5t91.5 -38.5t37.5 -93.5q0 -54 -37.5 -91.5t-91.5 -37.5t-91.5 37.5t-37.5 91.5zM82 735q0 55 37.5 93t91.5 38q53 0 90 -38t37 -93q0 -54 -37 -91.5t-90 -37.5q-54 0 -91.5 37.5t-37.5 91.5z" />
<glyph unicode=";" horiz-adv-x="430" d="M137 -213h-121l152 549h215zM125 735q0 55 37.5 93t91.5 38t91.5 -38t37.5 -93q0 -54 -37.5 -91.5t-91.5 -37.5t-91.5 37.5t-37.5 91.5z" />
<glyph unicode="&#x3c;" horiz-adv-x="520" d="M356 106l-309 416l324 416l104 -82l-268 -336l264 -327z" />
<glyph unicode="=" d="M1085 526h-948v148h948v-148zM1085 803h-948v145h948v-145z" />
<glyph unicode="&#x3e;" horiz-adv-x="526" d="M154 104l-107 89l275 333l-273 328l111 86l321 -410z" />
<glyph unicode="?" horiz-adv-x="956" d="M336 106q0 55 37.5 93.5t91.5 38.5q55 0 93 -38t38 -94q0 -54 -38 -91.5t-93 -37.5q-54 0 -91.5 37.5t-37.5 91.5zM193 1071l-168 2q2 201 123 325t319 124t328.5 -128.5t130.5 -322.5q0 -175 -100.5 -289t-272.5 -133v-268l-174 2v412q54 -7 74 -7q126 0 210.5 81.5 t84.5 203.5q0 125 -80 207t-203 82t-197.5 -79t-74.5 -212z" />
<glyph unicode="@" horiz-adv-x="1722" d="M930 471q-9 -33 -41 -74q-112 -130 -268 -61q-79 35 -122 128t-36 236q4 48 8 72q29 192 137 318q68 80 149 106.5t148 -0.5t103 -96q2 -3 5 -10.5t5 -10.5l18 117l101 -2l-78 -440l-29 -179q-11 -76 4 -126q11 -37 44.5 -54t70.5 -4q28 9 53 29t64 65q81 98 106 275 q22 152 -15.5 282t-119.5 215t-205 124t-264 18q-119 -17 -221.5 -82t-174 -162.5t-107 -228t-21.5 -271.5q7 -64 20 -114q40 -157 137 -271t222 -165t272 -38.5t283 95.5q45 26 100 74q67 57 111 116l41 -73q-32 -40 -52 -60q-236 -248 -544 -248q-156 -1 -293 61.5 t-234 170t-148 260.5t-40 325q15 234 145 412q94 128 226 206t278 95q168 19 313 -32.5t241 -153.5t139 -253t14 -323q-32 -190 -127.5 -307t-208.5 -133q-93 -13 -155 39.5t-54 132.5zM582 596q3 -75 26 -127q28 -62 94.5 -73t116.5 38q30 28 49.5 63.5t46.5 112.5 q21 64 37 154l4 20l15 86q10 62 2 121q-12 74 -69.5 108t-119.5 7q-54 -23 -91.5 -73t-71.5 -154q-21 -66 -27 -101q-16 -89 -12 -182z" />
<glyph unicode="A" horiz-adv-x="1241" d="M135 0h-201l689 1526l686 -1526h-201l-164 387h-643zM571 1018l-198 -473h499l-200 473q-6 14 -14 33t-9 22q-21 52 -26 156q-4 -87 -29 -156q-2 -6 -9 -21.5t-14 -33.5z" />
<glyph unicode="B" horiz-adv-x="1148" d="M608 0h-477v1477l416 -2q196 -2 306 -99.5t110 -271.5q0 -232 -209 -318q165 -23 254.5 -120.5t89.5 -253.5q0 -88 -36 -170.5t-95 -137.5q-116 -104 -359 -104zM543 684h-228v-532h246q161 0 240 55q46 34 74 92t28 123q0 94 -53.5 162t-142.5 88q-64 12 -164 12z M512 1323h-195v-483h218q108 0 171.5 65.5t63.5 177.5q0 111 -69 175.5t-189 64.5z" />
<glyph unicode="C" horiz-adv-x="1312" d="M1249 1376l25 -14v-232q-204 201 -445 201q-117 0 -223 -47t-182.5 -126.5t-122 -190t-45.5 -232.5q0 -163 77.5 -300.5t212 -216.5t294.5 -79q123 0 227 46.5t207 146.5v-217l-25 -13q-39 -20 -84.5 -46t-56.5 -31q-110 -54 -268 -54q-160 0 -303 59t-245.5 160.5 t-162 242.5t-59.5 300q0 214 102.5 391.5t280.5 280t393 102.5q117 0 190.5 -25t212.5 -106z" />
<glyph unicode="D" horiz-adv-x="1355" d="M555 0h-424v1477h414q348 0 544.5 -194.5t196.5 -537.5q0 -226 -94.5 -402.5t-263.5 -264.5q-78 -41 -165 -59.5t-208 -18.5zM549 1313h-230v-1149h207q181 0 297 65q126 71 197.5 206t71.5 304q0 269 -144 421.5t-399 152.5z" />
<glyph unicode="E" horiz-adv-x="970" d="M881 0h-750v1477h750v-164h-566v-461h557v-162h-557v-526h566v-164z" />
<glyph unicode="F" horiz-adv-x="856" d="M315 0h-184v1477h705v-164h-521v-463h512v-164h-512v-686z" />
<glyph unicode="G" horiz-adv-x="1617" d="M1483 1169l-137 -129q-52 80 -99 127q-171 174 -405 174q-159 0 -292 -81t-209.5 -222t-76.5 -309q0 -169 75 -305t207.5 -212.5t297.5 -76.5q215 0 358 126t158 329h-455v164h660v-27q0 -344 -198 -553t-525 -209q-163 0 -306.5 58t-245.5 159t-161 243t-59 304 q0 217 101.5 396.5t278 282.5t390.5 103q312 0 534 -213q60 -57 109 -129z" />
<glyph unicode="H" horiz-adv-x="1392" d="M315 0h-184v1475h184v-627h760v627h185v-1475h-183v694h-762v-694z" />
<glyph unicode="I" horiz-adv-x="446" d="M315 0h-184v1475h184v-1475z" />
<glyph unicode="J" horiz-adv-x="745" d="M-63 188l151 111q11 -78 58.5 -125t117.5 -47q81 0 125 53q24 28 32.5 72t8.5 139v1084h182v-1127q0 -90 -12 -151q-25 -107 -112.5 -168.5t-213.5 -61.5q-122 0 -208 56.5t-129 164.5z" />
<glyph unicode="K" horiz-adv-x="1171" d="M315 0h-184v1475h184v-592q0 -68 -20 -158q25 48 39 68.5t47 56.5l565 627h228l-650 -717l723 -760h-248l-583 631l-101 -111v-520z" />
<glyph unicode="L" horiz-adv-x="765" d="M756 0h-625v1475h184v-1311h441v-164z" />
<glyph unicode="M" horiz-adv-x="1812" d="M219 0h-190l307 1536l514 -1071l14 -28l8.5 -17t5 -9.5t3.5 -7.5q19 -53 26 -131q4 71 27 134q1 4 29 61l514 1069l307 -1536h-191l-161 907l-13 66q-4 24 -4 39q0 20 8 78q-37 -132 -55 -170l-461 -973l-461 975q-5 10 -20 57q-31 94 -35 111q8 -49 8 -78q0 -24 -6 -39 l-10 -66z" />
<glyph unicode="N" horiz-adv-x="1595" d="M315 0h-184v1530l1055 -1061q35 -35 51 -61q29 -41 61 -111q-16 101 -16 213v965h184v-1530l-1056 1065q-18 18 -50 61q-16 21 -26.5 37t-24.5 40t-26 42q32 -100 32 -146v-71v-973z" />
<glyph unicode="O" horiz-adv-x="1683" d="M70 737q0 214 101.5 391t278.5 279t392 102q214 0 391 -102t279 -279t102 -391t-102 -391t-279 -279t-391 -102t-391 102t-279 279t-102 391zM842 1333q-160 0 -295 -79t-213 -216.5t-78 -300.5t78 -301t213 -217.5t295 -79.5q120 0 228 47t186 127t123.5 191t45.5 233 t-45.5 232.5t-123.5 190t-186 126.5t-228 47z" />
<glyph unicode="P" horiz-adv-x="1007" d="M317 0h-186v1477h420q196 0 313 -113.5t117 -302.5q0 -132 -59 -235t-162 -150q-51 -23 -104 -32t-140 -9h-199v-635zM514 1323h-199v-537h166q150 0 228.5 70t78.5 205q0 123 -73 192.5t-201 69.5z" />
<glyph unicode="Q" horiz-adv-x="1683" d="M1368 164l166 -164l-141 -133l-166 196q-35 -14 -80 -34q-166 -66 -318 -66q-155 0 -295.5 61t-242 165t-161.5 247t-60 301q0 159 60.5 302.5t163 246t246 163t302.5 60.5t302.5 -60.5t246 -163t163 -246t60.5 -302.5q0 -157 -60 -305q-32 -75 -69 -128.5t-117 -139.5z M815 575l150 111l288 -381q91 103 131.5 202.5t40.5 223.5q0 165 -77 304t-211.5 219.5t-294.5 80.5q-159 0 -294 -80t-213.5 -218t-78.5 -300q0 -123 46.5 -234t125.5 -190.5t188 -126.5t230 -47q79 0 137.5 16.5t130.5 59.5z" />
<glyph unicode="R" horiz-adv-x="1056" d="M315 0h-184v1477h389q204 0 328.5 -113t124.5 -299q0 -172 -105 -280.5t-288 -127.5l477 -657h-232l-440 637l-70 2v-639zM508 1317h-193v-537h134q151 0 237 74t86 203q0 115 -73.5 187.5t-190.5 72.5z" />
<glyph unicode="S" horiz-adv-x="995" d="M18 195l125 135q126 -193 318 -193q120 0 198 76.5t78 192.5q0 94 -61 161q-31 34 -82 60q-40 21 -162 71q-123 50 -190 99q-75 54 -116.5 135t-41.5 172q0 173 124 290t308 117q157 0 285 -92q39 -29 82 -82l-113 -133q-102 139 -250 139q-103 0 -170 -65t-67 -166 q0 -75 41 -129q16 -27 61 -57q44 -31 150 -74q139 -55 190 -84q211 -114 211 -354q0 -196 -134 -323.5t-343 -127.5q-212 0 -361 137q-43 41 -80 95z" />
<glyph unicode="T" horiz-adv-x="856" d="M334 1313h-342v164h876v-164h-350v-1313h-184v1313z" />
<glyph unicode="U" horiz-adv-x="1374" d="M1059 1475h186v-891q0 -169 -39 -281q-54 -154 -196.5 -247t-323.5 -93q-234 0 -389 146q-91 85 -128.5 193t-37.5 282v891h184v-928q0 -188 101 -301t268 -113q170 0 272.5 113t102.5 301v928z" />
<glyph unicode="V" horiz-adv-x="1122" d="M561 -55l-637 1530h205l385 -979q8 -21 16 -39.5t9 -20.5q17 -56 22 -162q2 89 23 162q3 4 4.5 10t6 19.5t11.5 30.5l387 979h205z" />
<glyph unicode="W" horiz-adv-x="1855" d="M479 -59l-530 1534h196l320 -947q6 -12 16 -61q13 -69 15 -150q5 92 18 150q10 49 16 61l398 1008l395 -1008q12 -21 18 -61q15 -79 17 -150q5 94 16 150q3 17 8.5 37.5t6.5 23.5l319 947h199l-533 -1534l-403 1020q-11 25 -21 69q-17 62 -22 148q-8 -93 -23 -148 q-11 -49 -22 -69z" />
<glyph unicode="X" horiz-adv-x="1210" d="M213 0h-221l504 772l-453 705h225l275 -455l30 -49q19 -31 31 -82q18 52 31 82l33 49l278 453h221l-452 -703l506 -772h-226l-327 530l-33 52q-22 36 -31 90q-12 -65 -29 -90l-32 -52z" />
<glyph unicode="Y" horiz-adv-x="976" d="M393 705l-475 770h219l291 -482q43 -72 59 -168q10 61 29 103q5 18 33 65l291 482h219l-477 -770v-705h-189v705z" />
<glyph unicode="Z" horiz-adv-x="1134" d="M1094 0h-1090l760 1223q3 4 8 12t12.5 19t12.5 18q22 32 47 63q-61 -16 -131 -16h-643l2 158h1052l-757 -1227q-33 -57 -93 -117q45 14 70 17.5t76 3.5h674v-154z" />
<glyph unicode="[" horiz-adv-x="452" d="M457 -139h-353v1755h353v-115h-183v-1528h183v-112z" />
<glyph unicode="\" horiz-adv-x="657" d="M354 0l-258 1475h156l260 -1475h-158z" />
<glyph unicode="]" horiz-adv-x="452" d="M-4 -139v112h180v1528h-180v115h352v-1755h-352z" />
<glyph unicode="^" horiz-adv-x="579" d="M72 1022l-90 92l270 277h67l279 -273l-88 -90l-219 219z" />
<glyph unicode="_" horiz-adv-x="1005" d="M834 -61h-738v61h738v-61z" />
<glyph unicode="`" horiz-adv-x="434" d="M272 1022l-284 278l137 93l242 -318z" />
<glyph unicode="a" horiz-adv-x="1179" d="M879 735v195h170v-930h-172v209q-43 -112 -136 -172t-221 -60q-193 0 -321.5 139t-128.5 345q0 209 131.5 354.5t320.5 145.5q81 0 156.5 -29.5t122.5 -81.5q40 -43 78 -115zM563 809q-132 0 -224.5 -99.5t-92.5 -240.5q0 -143 92 -241t225 -97q132 0 225 98.5t93 239.5 t-93 240.5t-225 99.5z" />
<glyph unicode="b" horiz-adv-x="1181" d="M301 0h-170v1683h174v-946q41 107 133 167.5t215 60.5q127 0 233 -66t167 -180.5t61 -251.5q0 -207 -131 -348.5t-326 -141.5q-125 0 -220 61.5t-136 170.5v-209zM612 809q-134 0 -224.5 -99t-90.5 -245q0 -142 89.5 -237t223.5 -95q135 0 227.5 97t92.5 239 q0 143 -92.5 241.5t-225.5 98.5z" />
<glyph unicode="c" horiz-adv-x="866" d="M819 881v-201q-83 121 -241 121q-138 0 -231 -96t-93 -240q0 -143 90 -239.5t223 -96.5q140 0 252 115v-191q-135 -82 -268 -82q-205 0 -343 141.5t-138 350.5q0 139 64 254.5t176 181.5t247 66q75 0 134.5 -19t127.5 -65z" />
<glyph unicode="d" horiz-adv-x="1179" d="M874 745v938h175v-1683h-170v213q-17 -41 -29 -57q-51 -85 -136.5 -129.5t-195.5 -44.5q-190 0 -319 139.5t-129 345.5t133.5 351t324.5 145q238 0 346 -218zM567 809q-132 0 -224.5 -99.5t-92.5 -240.5q0 -143 91 -239.5t226 -96.5q132 0 224 98t92 240q0 141 -92 239.5 t-224 98.5z" />
<glyph unicode="e" horiz-adv-x="1058" d="M1006 444v-24h-762q14 -137 96 -219t209 -82q190 0 295 188l131 -80q-69 -121 -180 -186.5t-246 -65.5q-207 0 -343 138.5t-136 349.5q0 214 136.5 358t338.5 144q207 0 334 -142.5t127 -378.5zM541 829q-119 0 -196 -73t-97 -205h575q-15 133 -88.5 205.5t-193.5 72.5z " />
<glyph unicode="f" horiz-adv-x="485" d="M152 784h-117v146h117v434q0 143 45 213q35 54 95 86.5t124 32.5q42 0 104 -21v-166q-33 21 -61 21q-137 0 -137 -201v-399h188v-146h-188v-784h-170v784z" />
<glyph unicode="g" horiz-adv-x="1173" d="M872 735v195h170v-903q0 -146 -28 -252q-41 -143 -159 -224t-284 -81q-215 0 -345.5 110t-141.5 301h199q6 -113 87 -186.5t199 -73.5q138 0 220.5 93.5t82.5 250.5v236q-40 -106 -133 -165t-219 -59q-193 0 -321.5 137t-128.5 341q0 209 131.5 354t320.5 145 q149 0 248 -90q51 -43 102 -129zM565 799q-133 0 -226 -98.5t-93 -239.5q0 -142 92 -239t227 -97q132 0 224 97t92 239t-92 240t-224 98z" />
<glyph unicode="h" horiz-adv-x="1081" d="M303 0h-172v1683h172v-944q43 104 129 160.5t199 56.5q148 0 233.5 -92.5t85.5 -253.5v-610h-176v535q0 87 -14 133q-20 61 -75 98t-124 37q-119 0 -188.5 -85.5t-69.5 -232.5v-485z" />
<glyph unicode="i" horiz-adv-x="448" d="M311 0h-174v930h174v-930zM104 1253q0 49 35.5 84t85.5 35q51 0 86 -34.5t35 -84.5q0 -51 -35 -84.5t-86 -33.5q-50 0 -85.5 34t-35.5 84z" />
<glyph unicode="j" horiz-adv-x="446" d="M309 -516h-176v1446h176v-1446zM102 1253q0 49 35 84t84 35q51 0 87 -35t36 -84q0 -51 -35.5 -84.5t-87.5 -33.5q-50 0 -84.5 33.5t-34.5 84.5z" />
<glyph unicode="k" horiz-adv-x="919" d="M307 0h-176v1683h176v-1034q0 -73 -12 -149q33 64 55 84l33 37l297 309h238l-410 -412l467 -518h-238l-350 401l-80 -79v-322z" />
<glyph unicode="l" horiz-adv-x="436" d="M305 0h-174v1683h174v-1683z" />
<glyph unicode="m" horiz-adv-x="1593" d="M305 0h-174v930h172v-176q43 93 118.5 144.5t170.5 51.5q101 0 173.5 -53.5t100.5 -148.5q46 100 122.5 152t176.5 52q76 0 143 -33.5t105 -91.5q28 -43 39.5 -92.5t11.5 -132.5v-602h-174v524q0 84 -7.5 123t-29.5 72q-25 35 -67.5 56.5t-89.5 21.5q-97 0 -151 -66.5 t-54 -183.5v-547h-174v551q0 118 -50 180t-145 62q-116 0 -174 -103q-43 -70 -43 -227v-463z" />
<glyph unicode="n" horiz-adv-x="1071" d="M305 0h-174v930h174l-2 -189q44 101 125 155t190 54q62 0 121.5 -20.5t102.5 -57.5q54 -47 76 -111t22 -171v-590h-174v539q0 126 -54.5 191t-160.5 65q-113 0 -179.5 -79t-66.5 -212v-504z" />
<glyph unicode="o" horiz-adv-x="1118" d="M70 463q0 140 63.5 255t175.5 181t248 66q209 0 352.5 -144.5t143.5 -355.5q0 -212 -142.5 -357t-349.5 -145q-209 0 -350 144.5t-141 355.5zM561 803q-136 0 -227.5 -97.5t-91.5 -240.5q0 -145 91 -241.5t228 -96.5q135 0 225.5 96.5t90.5 241.5q0 144 -91 241t-225 97z " />
<glyph unicode="p" horiz-adv-x="1181" d="M305 -516h-174v1446h172v-203q54 111 147.5 172.5t211.5 61.5q189 0 320.5 -144.5t131.5 -353.5q0 -208 -128 -349t-318 -141q-122 0 -216 60t-147 168v-717zM616 799q-132 0 -224.5 -97.5t-92.5 -238.5q0 -145 91 -241.5t226 -96.5q134 0 225 97t91 239q0 144 -91 241 t-225 97z" />
<glyph unicode="q" horiz-adv-x="1179" d="M877 731v199h172v-1446h-175v715q-51 -108 -144 -167t-212 -59q-190 0 -319 141.5t-129 348.5t129 349t319 142q119 0 213.5 -58.5t145.5 -164.5zM567 799q-134 0 -226.5 -99t-92.5 -241q0 -139 92.5 -236.5t224.5 -97.5q133 0 225.5 97.5t92.5 238.5q0 144 -91 241 t-225 97z" />
<glyph unicode="r" horiz-adv-x="581" d="M305 0h-174v930h174v-187q35 98 104.5 151.5t163.5 53.5q29 0 70 -8l-8 -174q-45 18 -90 18q-114 0 -177 -78t-63 -219v-487z" />
<glyph unicode="s" horiz-adv-x="753" d="M27 188l153 64q23 -68 71.5 -104.5t115.5 -36.5q69 0 114 40t45 101q0 56 -41 86q-20 17 -42 28t-81 33q-83 32 -120 52t-74 49q-88 73 -88 192q0 117 85.5 196t211.5 79q201 0 282 -172l-147 -56q-17 42 -51.5 66t-77.5 24q-57 0 -94 -34.5t-37 -87.5q0 -48 25.5 -77.5 t87.5 -54.5q19 -7 42.5 -15t47.5 -17q63 -24 83 -33t48 -29q112 -77 112 -213q0 -130 -94 -214.5t-239 -84.5q-123 0 -209 56t-129 163z" />
<glyph unicode="t" horiz-adv-x="466" d="M33 784v146h106v327l172 3v-330h181v-146h-181v-784h-174v784h-104z" />
<glyph unicode="u" horiz-adv-x="1073" d="M768 930h176v-537q0 -127 -26 -198q-38 -98 -142.5 -158t-236.5 -60q-177 0 -293 101q-63 52 -89 123.5t-26 191.5v537h176v-537q0 -126 59.5 -192t172.5 -66q111 0 170 66t59 192v537z" />
<glyph unicode="v" horiz-adv-x="854" d="M428 -53l-483 983h198l240 -520q35 -76 45 -174q10 98 45 174l240 520h196z" />
<glyph unicode="w" horiz-adv-x="1419" d="M406 -53l-449 983h195l208 -516q32 -78 46 -168q3 72 20 116q3 9 20 50l265 571l264 -571q6 -13 18 -50q19 -44 21 -116q9 59 17 89.5t28 78.5l209 516h196l-450 -983l-244 526q-36 76 -59 180q-26 -103 -62 -180z" />
<glyph unicode="x" horiz-adv-x="954" d="M199 0h-217l385 481l-363 449h229l207 -275q20 -26 39 -84q10 50 37 84l205 275h229l-364 -449l387 -481h-217l-240 317q-31 45 -37 89q-15 -60 -39 -91z" />
<glyph unicode="y" horiz-adv-x="870" d="M356 29l-413 901h194l264 -596q21 -45 29 -76t12 -84q5 73 21 111l22 49l254 596h189l-619 -1446h-192z" />
<glyph unicode="z" horiz-adv-x="899" d="M874 0h-862l518 715q17 21 33 35q30 32 74 67q-53 -26 -94 -26h-45h-432l-3 139h826l-522 -715q-28 -38 -47.5 -57.5t-55.5 -44.5q53 28 96 28h43h469z" />
<glyph unicode="{" horiz-adv-x="700" d="M96 737q56 3 92.5 43.5t36.5 104.5v676q0 70 42.5 107.5t123.5 37.5h160v-92h-25q-71 0 -94.5 -24t-23.5 -95v-594q0 -63 -41.5 -110.5t-104.5 -53.5q63 -6 104.5 -53.5t41.5 -110.5v-593q0 -71 23.5 -95t94.5 -24h25v-92h-160q-81 0 -123.5 37.5t-42.5 107.5v676 q0 64 -36.5 104t-92.5 43z" />
<glyph unicode="|" horiz-adv-x="376" d="M252 0h-156v1475h156v-1475z" />
<glyph unicode="}" horiz-adv-x="700" d="M256 -231h-160v92h25q72 0 95.5 24t23.5 95v593q0 64 41.5 111t103.5 53q-62 6 -103.5 53t-41.5 111v594q0 71 -23.5 95t-95.5 24h-25v92h160q81 0 123.5 -37.5t42.5 -107.5v-676q0 -64 36.5 -104.5t92.5 -43.5q-56 -3 -92.5 -43t-36.5 -104v-676q0 -70 -42.5 -107.5 t-123.5 -37.5z" />
<glyph unicode="~" horiz-adv-x="813" d="M94 1579l-112 16q69 203 243 203q32 0 94 -16l37 -10q25 -7 46.5 -13.5t23.5 -7.5l29 -8q106 -27 127 -27q56 0 80 17q11 8 55 59l112 -18q-25 -101 -85.5 -155t-151.5 -54q-47 0 -78 8q-10 3 -55 12q-42 9 -49 14l-45 15l-46 16l-49 15q-28 4 -45 4q-41 0 -76.5 -19 t-54.5 -51z" />
<glyph unicode="&#xa1;" horiz-adv-x="409" d="M86 1346q0 54 37.5 91.5t91.5 37.5q55 0 93 -37.5t38 -91.5t-38 -91.5t-93 -37.5q-54 0 -91.5 37.5t-37.5 91.5zM303 -23h-174v1096l174 -2v-1094z" />
<glyph unicode="&#xa2;" horiz-adv-x="884" d="M522 956v129h78v-127q73 -3 109 -12q53 -17 133 -65v-201q-22 28 -39 45q-80 69 -203 74v-678q81 12 133 37t107 80v-189q-16 -12 -29 -18q-56 -30 -101 -43t-110 -17v-137h-76l-2 137q-205 15 -328.5 149.5t-123.5 340.5q0 207 125 344.5t327 150.5zM522 131v655 q-120 -20 -190 -108.5t-70 -220.5q0 -131 71 -220t189 -106z" />
<glyph unicode="&#xa3;" horiz-adv-x="1116" d="M55 2v164q26 5 74 27q58 28 86.5 50t54.5 60q33 46 51.5 106t18.5 115q0 47 -14 97h-240v141h184q-114 190 -114 328q0 109 60.5 200.5t164.5 144t227 52.5q178 0 305 -98.5t158 -260.5l-170 -81q-7 130 -85.5 209t-197.5 79t-199.5 -77.5t-80.5 -192.5q0 -36 14 -81.5 t35 -78.5l59 -92q5 -5 33 -51h393v-141h-364q6 -56 6 -74q0 -76 -22.5 -137t-75.5 -127q-43 -53 -94 -84q18 2 43 2q106 0 182 -21l80 -22q56 -17 135 -17q142 0 246 107l73 -148q-122 -125 -309 -125q-84 0 -229 33l-105 25q-120 26 -182 26q-114 0 -201 -57z" />
<glyph unicode="&#xa4;" horiz-adv-x="1013" d="M96 436l127 125q-58 79 -58.5 178.5t56.5 178.5l-123 118q23 34 64 72l127 -127q79 60 179 60.5t179 -58.5l125 127q35 -28 55 -53q1 -1 7 -8.5t8 -12.5l-127 -118q58 -80 57.5 -179.5t-59.5 -179.5l127 -127l-15 -16l-16 -15q-21 -21 -39 -34l-123 127 q-79 -60 -178.5 -60t-177.5 60l-129 -125q-37 27 -66 67zM264 737q0 -84 60 -143t145 -59q84 0 143 59q60 60 60 143.5t-60 143.5q-59 59 -143 59q-85 0 -145 -59t-60 -144z" />
<glyph unicode="&#xa5;" horiz-adv-x="1230" d="M418 874l-371 601h217l289 -482q45 -75 63 -168q16 96 60 168l289 484h219l-363 -603h289v-149h-377l-22 -20v-29h399v-150h-399v-526h-191v526h-395v150h395v29l-12 20h-383v149h293z" />
<glyph unicode="&#xa7;" horiz-adv-x="1134" d="M289 1036q-131 105 -131 262t125 263t309 106q186 0 306.5 -110.5t129.5 -290.5l-170 8q-9 117 -83.5 189.5t-188.5 72.5q-97 0 -172.5 -68.5t-75.5 -158.5q0 -83 70 -156q23 -24 42 -35t64 -26l350 -119q104 -35 161.5 -116t57.5 -193q0 -106 -58.5 -185t-168.5 -117 q125 -105 125 -256q0 -162 -121 -267t-307 -105q-191 0 -316.5 107t-125.5 270v30l165 -6v-8q0 -115 79.5 -191.5t197.5 -76.5q105 0 175.5 65.5t70.5 163.5q0 164 -176 223l-353 117q-107 35 -164 109t-57 180q0 113 62.5 196t177.5 123zM756 846l-312 102q-18 2 -47 2 q-70 0 -120 -59.5t-50 -142.5q0 -71 48.5 -128.5t127.5 -80.5l291 -86q14 -4 41 -4q72 0 124 57.5t52 136.5q0 71 -41.5 125.5t-113.5 77.5z" />
<glyph unicode="&#xa8;" horiz-adv-x="448" d="M-76 1167q0 46 33.5 78.5t79.5 32.5t78 -32.5t32 -78.5q0 -47 -32.5 -78.5t-81.5 -31.5q-45 0 -77 31.5t-32 78.5zM303 1167q0 46 32.5 78.5t78.5 32.5q44 0 75 -32.5t31 -78.5q0 -47 -30.5 -78.5t-75.5 -31.5q-46 0 -78.5 31.5t-32.5 78.5z" />
<glyph unicode="&#xa9;" horiz-adv-x="1908" d="M119 739q0 152 58 293t165 248q147 146 343.5 198t393.5 0t344 -198q110 -110 167.5 -253t57.5 -287.5t-57.5 -287.5t-167.5 -253t-253 -167.5t-287.5 -57.5t-287.5 57.5t-253 167.5q-107 107 -165 247.5t-58 292.5zM221 739q0 -133 51.5 -257t145.5 -220 q126 -127 296 -172t340 0t296 172q128 130 173 303t-0.5 346t-172.5 303q-127 128 -297 173.5t-339.5 0t-295.5 -173.5q-94 -96 -145.5 -219t-51.5 -256zM1239 1114l-61 -90q-82 73 -181 90q-121 24 -227.5 -21.5t-169.5 -144.5t-61 -225q0 -39 6 -76q19 -95 80 -167.5 t141.5 -107t177 -29t180.5 57.5q31 21 50 37l63 -88q-132 -111 -317 -117q-105 -3 -198.5 33t-159 100.5t-107 152.5t-42 188.5t35.5 207.5q62 167 215 254.5t337 55.5q130 -21 238 -111z" />
<glyph unicode="&#xaa;" horiz-adv-x="987" d="M117 571v125h700v-125h-700zM674 1350l6 -15v140h135l2 -678h-137v149l-6 -16q-36 -96 -146 -133.5t-229 10.5q-77 31 -128.5 96.5t-68.5 157.5q-18 97 8.5 185.5t82 147.5t133.5 86.5t159 10.5q117 -26 179 -125zM236 1139q0 -26 6 -47q18 -99 94 -152q59 -40 126 -39 t124 41q74 54 92 148q9 49 0 98q-24 122 -127 170q-89 42 -178 2q-52 -23 -86.5 -69.5t-46.5 -108.5q-4 -28 -4 -43z" />
<glyph unicode="&#xab;" horiz-adv-x="849" d="M356 106l-309 416l324 416l104 -82l-268 -336l264 -327zM686 106l-311 416l323 416l105 -82l-266 -336l264 -327z" />
<glyph unicode="&#xac;" horiz-adv-x="1284" d="M963 737h-867v156h996v-451h-129v295z" />
<glyph unicode="&#xad;" horiz-adv-x="620" d="M573 389h-526v156h526v-156z" />
<glyph unicode="&#xae;" horiz-adv-x="1908" d="M119 739q0 152 58 293t165 248q147 146 343.5 198t393.5 0t344 -198q110 -110 167.5 -253t57.5 -287.5t-57.5 -287.5t-167.5 -253t-253 -167.5t-287.5 -57.5t-287.5 57.5t-253 167.5q-107 107 -165 247.5t-58 292.5zM221 739q0 -133 51.5 -257t145.5 -220 q126 -127 296 -172t340 0t296 172q128 130 173 303t-0.5 346t-172.5 303q-127 128 -297 173.5t-339.5 0t-295.5 -173.5q-94 -96 -145.5 -219t-51.5 -256zM766 268h-123v961h225q81 0 128.5 -13t86.5 -45q68 -56 86 -147q23 -126 -36.5 -212t-176.5 -101q-5 0 -16 -1t-16 -1 l301 -441h-146l-313 473v-473zM766 1126v-344h80q99 0 151 44t54 126t-48 128t-145 46h-92z" />
<glyph unicode="&#xaf;" horiz-adv-x="632" d="M631 1049h-631v141h631v-141z" />
<glyph unicode="&#xb1;" horiz-adv-x="1216" d="M90 178h946v-139h-946v139zM494 928h139v-250h403v-139h-403v-250h-139v250h-404v139h404v250z" />
<glyph unicode="&#xb4;" horiz-adv-x="407" d="M164 1022l-94 53l241 316l138 -91z" />
<glyph unicode="&#xb5;" horiz-adv-x="1275" d="M152 920h188v-607q0 -143 29 -194q27 -49 102 -49q117 -3 195 163q77 168 77 420v267h189v-672q0 -92 18 -135q18 -40 60 -43q41 0 65 43q23 44 23 125v28h43q0 -10 2 -18v-27q0 -114 -49 -178q-46 -61 -136 -61q-98 -3 -155 88q-50 81 -53 264q-47 -182 -125 -266 q-77 -83 -199 -86q-91 0 -150 53q-56 51 -81 158q0 -4 -1 -23.5t-1 -34.5q-3 -129 65 -289q66 -160 66 -188q0 -41 -23 -64q-22 -22 -63 -22q-47 -3 -68 35q-17 28 -20 108q0 5 0.5 19.5t1.5 43t2 56.5q4 132 4 182q0 117 -2 207q-4 180 -4 195v502z" />
<glyph unicode="&#xb6;" horiz-adv-x="1318" d="M492 1475h632v-107h-632q-120 0 -205 -87t-82 -210q1 -121 85 -205t202 -84h141v496h112v-1278h-112v676h-141q-163 0 -279.5 117t-116.5 282t116.5 282.5t279.5 117.5zM993 0h-112v1278h112v-1278z" />
<glyph unicode="&#xb7;" horiz-adv-x="350" d="M47 461q0 53 37.5 92t89.5 39q55 0 93 -39t38 -92q0 -54 -38 -92.5t-93 -38.5q-52 0 -89.5 38.5t-37.5 92.5z" />
<glyph unicode="&#xb8;" horiz-adv-x="288" d="M135 -401l-84 51l142 295l118 -62z" />
<glyph unicode="&#xba;" horiz-adv-x="987" d="M807 571h-698v125h698v-125zM96 1141q0 23 8 73q17 84 66.5 150t117 101t149 41.5t163.5 -29.5q118 -48 177.5 -162.5t33.5 -247.5q-22 -109 -98 -186t-183 -99q-74 -15 -145 0q-108 22 -184.5 99t-98.5 186q-6 37 -6 74zM233 1141q0 -22 3 -43q21 -125 129 -174 q101 -47 197.5 5.5t115.5 166.5q12 74 -13 138t-79 103q-50 36 -107.5 42.5t-113.5 -19.5q-107 -49 -129 -174q-3 -21 -3 -45z" />
<glyph unicode="&#xbb;" horiz-adv-x="854" d="M154 104l-107 89l275 333l-273 328l111 86l321 -410zM483 104l-108 89l274 333l-270 328l110 86l322 -410z" />
<glyph unicode="&#xbf;" horiz-adv-x="956" d="M354 1391q0 54 38 91.5t93 37.5q53 0 92 -38t39 -91q0 -55 -39 -93t-92 -38q-55 0 -93 38t-38 93zM397 848v268h174v-414q-54 7 -73 7q-126 0 -211.5 -82.5t-85.5 -204.5q0 -124 80.5 -204.5t203.5 -80.5q125 0 199 78.5t74 210.5h168q-1 -201 -123.5 -325t-319.5 -124 q-198 0 -328 128t-130 323q0 174 100.5 287.5t271.5 132.5z" />
<glyph unicode="&#xc0;" horiz-adv-x="1241" d="M135 0h-201l689 1526l686 -1526h-201l-164 387h-643zM571 1018l-198 -473h499l-200 473q-6 14 -14 33t-9 22q-21 52 -26 156q-4 -87 -29 -156q-2 -6 -9 -21.5t-14 -33.5zM631 1638l-285 279l137 92l242 -317z" />
<glyph unicode="&#xc1;" horiz-adv-x="1241" d="M135 0h-201l689 1526l686 -1526h-201l-164 387h-643zM571 1018l-198 -473h499l-200 473q-6 14 -14 33t-9 22q-21 52 -26 156q-4 -87 -29 -156q-2 -6 -9 -21.5t-14 -33.5zM625 1638l-95 54l242 315l137 -90z" />
<glyph unicode="&#xc2;" horiz-adv-x="1241" d="M135 0h-201l689 1526l686 -1526h-201l-164 387h-643zM571 1018l-198 -473h499l-200 473q-6 14 -14 33t-9 22q-21 52 -26 156q-4 -87 -29 -156q-2 -6 -9 -21.5t-14 -33.5zM420 1638l-90 93l270 276h68l278 -272l-88 -90l-219 219z" />
<glyph unicode="&#xc3;" horiz-adv-x="1241" d="M135 0h-201l689 1526l686 -1526h-201l-164 387h-643zM571 1018l-198 -473h499l-200 473q-6 14 -14 33t-9 22q-21 52 -26 156q-4 -87 -29 -156q-2 -6 -9 -21.5t-14 -33.5zM424 1665l-84 16q54 185 186 185q29 0 66 -13q2 -1 6 -2t12.5 -3.5t16.5 -4.5l39 -16l16 -4l20 -8 q66 -25 97 -25q45 0 63 18q6 3 43 50l84 -15q-41 -188 -184 -188q-29 0 -57 4q-33 11 -43 14l-16.5 5.5t-13 4.5t-7.5 3l-35 14l-35 12q-9 3 -19 7t-14.5 5.5t-5.5 1.5q-13 5 -35 5q-30 0 -58.5 -18.5t-41.5 -47.5z" />
<glyph unicode="&#xc4;" horiz-adv-x="1241" d="M313 1614q0 51 34.5 85t84.5 34t84.5 -34t34.5 -85q0 -50 -34.5 -84.5t-84.5 -34.5t-84.5 34.5t-34.5 84.5zM713 1614q0 51 34 85t84 34q51 0 84 -34t33 -85q0 -49 -34.5 -84t-82.5 -35q-49 0 -83.5 34.5t-34.5 84.5zM135 0h-201l689 1526l686 -1526h-201l-164 387h-643z M571 1018l-198 -473h499l-200 473q-6 14 -14 33t-9 22q-21 52 -26 156q-4 -87 -29 -156q-2 -6 -9 -21.5t-14 -33.5z" />
<glyph unicode="&#xc5;" horiz-adv-x="1241" d="M524 1626q0 41 29.5 69.5t69.5 28.5q41 0 69.5 -28.5t28.5 -69.5q0 -42 -28 -71t-68 -29q-42 0 -71.5 29t-29.5 71zM-66 0h201l166 387h643l164 -387h201l-686 1526zM571 1018q7 18 14 33.5t9 21.5q25 69 29 156q5 -104 26 -156q1 -3 9 -22t14 -33l200 -473h-499z" />
<glyph unicode="&#xc6;" horiz-adv-x="1908" d="M129 0h-195l687 1532l26 -55h703l75 -164h-706l199 -457h710l74 -166h-709l226 -526h708l76 -164h-909l-160 397h-641zM600 1135l-25 -58l-223 -532h525l-213 532l-25 58q-11 27 -21 100q-9 -79 -18 -100z" />
<glyph unicode="&#xc7;" horiz-adv-x="1294" d="M678 -393l-84 49l139 295l117 -62zM1227 1376l24 -14v-232q-105 103 -212 152t-230 49q-118 0 -224 -47t-182.5 -126.5t-121.5 -190t-45 -232.5t45.5 -232.5t122.5 -190t185 -126.5t228 -47q123 0 227 46.5t207 146.5v-217l-24 -13q-39 -20 -85 -46t-57 -31 q-110 -54 -268 -54q-160 0 -303 59t-245.5 160.5t-162 242.5t-59.5 300q0 214 102.5 391.5t280.5 280t393 102.5q116 0 189.5 -25t214.5 -106z" />
<glyph unicode="&#xc8;" horiz-adv-x="970" d="M881 0h-750v1477h750v-164h-566v-461h557v-162h-557v-526h566v-164zM524 1638l-284 279l137 92l241 -317z" />
<glyph unicode="&#xc9;" horiz-adv-x="970" d="M881 0h-750v1477h750v-164h-566v-461h557v-162h-557v-526h566v-164zM512 1638l-94 54l241 315l138 -90z" />
<glyph unicode="&#xca;" horiz-adv-x="970" d="M881 0h-750v1477h750v-164h-566v-461h557v-162h-557v-526h566v-164zM303 1638l-90 93l270 276h68l278 -272l-88 -90l-219 219z" />
<glyph unicode="&#xcb;" horiz-adv-x="970" d="M225 1784q0 45 33.5 77.5t79.5 32.5t78.5 -32t32.5 -78q0 -47 -33 -79t-82 -32q-45 0 -77 32t-32 79zM604 1784q0 46 32.5 78t78.5 32q44 0 75 -32t31 -78q0 -47 -31 -79t-75 -32q-46 0 -78.5 32t-32.5 79zM881 0h-750v1477h750v-164h-566v-461h557v-162h-557v-526h566 v-164z" />
<glyph unicode="&#xcc;" horiz-adv-x="446" d="M315 0h-184v1475h184v-1475zM229 1638l-284 279l137 92l242 -317z" />
<glyph unicode="&#xcd;" horiz-adv-x="446" d="M315 0h-184v1475h184v-1475zM242 1638l-95 54l242 315l137 -90z" />
<glyph unicode="&#xce;" horiz-adv-x="446" d="M315 0h-184v1475h184v-1475zM14 1638l-90 93l271 276h67l279 -272l-88 -90l-220 219z" />
<glyph unicode="&#xcf;" horiz-adv-x="446" d="M315 0h-184v1475h184v-1475zM-70 1784q0 45 33.5 77.5t79.5 32.5t78.5 -32t32.5 -78q0 -47 -33 -79t-82 -32q-45 0 -77 32t-32 79zM309 1784q0 46 32.5 78t78.5 32q44 0 75 -32t31 -78q0 -47 -31 -79t-75 -32q-46 0 -78.5 32t-32.5 79z" />
<glyph unicode="&#xd1;" horiz-adv-x="1595" d="M315 0h-184v1530l1055 -1061q35 -35 51 -61q29 -41 61 -111q-16 101 -16 213v965h184v-1530l-1056 1065q-18 18 -50 61q-16 21 -26.5 37t-24.5 40t-26 42q32 -100 32 -146v-71v-973zM590 1665l-84 16q54 185 186 185q29 0 66 -13q2 -1 6 -2t12.5 -3.5t16.5 -4.5l38 -16 l17 -4l20 -8q66 -25 97 -25q45 0 63 18q6 3 43 50l84 -15q-41 -188 -184 -188q-30 0 -58 4q-33 11 -43 14l-16.5 5.5t-12.5 4.5t-7 3l-35 14l-35 12q-9 3 -19 7t-14.5 5.5t-5.5 1.5q-13 5 -35 5q-30 0 -58.5 -18.5t-41.5 -47.5z" />
<glyph unicode="&#xd2;" horiz-adv-x="1683" d="M70 737q0 214 101.5 391t278.5 279t392 102q214 0 391 -102t279 -279t102 -391t-102 -391t-279 -279t-391 -102t-391 102t-279 279t-102 391zM842 1333q-160 0 -295 -79t-213 -216.5t-78 -300.5t78 -301t213 -217.5t295 -79.5q120 0 228 47t186 127t123.5 191t45.5 233 t-45.5 232.5t-123.5 190t-186 126.5t-228 47zM848 1638l-285 279l137 92l242 -317z" />
<glyph unicode="&#xd3;" horiz-adv-x="1683" d="M70 737q0 214 101.5 391t278.5 279t392 102q214 0 391 -102t279 -279t102 -391t-102 -391t-279 -279t-391 -102t-391 102t-279 279t-102 391zM842 1333q-160 0 -295 -79t-213 -216.5t-78 -300.5t78 -301t213 -217.5t295 -79.5q120 0 228 47t186 127t123.5 191t45.5 233 t-45.5 232.5t-123.5 190t-186 126.5t-228 47zM846 1638l-94 54l241 315l137 -90z" />
<glyph unicode="&#xd4;" horiz-adv-x="1683" d="M70 737q0 214 101.5 391t278.5 279t392 102q214 0 391 -102t279 -279t102 -391t-102 -391t-279 -279t-391 -102t-391 102t-279 279t-102 391zM842 1333q-160 0 -295 -79t-213 -216.5t-78 -300.5t78 -301t213 -217.5t295 -79.5q120 0 228 47t186 127t123.5 191t45.5 233 t-45.5 232.5t-123.5 190t-186 126.5t-228 47zM635 1638l-90 93l270 276h68l278 -272l-88 -90l-219 219z" />
<glyph unicode="&#xd5;" horiz-adv-x="1683" d="M70 737q0 214 101.5 391t278.5 279t392 102q214 0 391 -102t279 -279t102 -391t-102 -391t-279 -279t-391 -102t-391 102t-279 279t-102 391zM842 1333q-160 0 -295 -79t-213 -216.5t-78 -300.5t78 -301t213 -217.5t295 -79.5q120 0 228 47t186 127t123.5 191t45.5 233 t-45.5 232.5t-123.5 190t-186 126.5t-228 47zM633 1665l-84 16q54 185 186 185q29 0 66 -13q2 -1 6 -2t12.5 -3.5t16.5 -4.5l38 -16l17 -4l20 -8q66 -25 97 -25q45 0 63 18q6 3 43 50l84 -15q-41 -188 -184 -188q-30 0 -58 4q-33 11 -43 14l-16.5 5.5t-12.5 4.5t-7 3l-35 14 l-35 12q-9 3 -19 7t-14.5 5.5t-5.5 1.5q-13 5 -35 5q-30 0 -58.5 -18.5t-41.5 -47.5z" />
<glyph unicode="&#xd6;" horiz-adv-x="1683" d="M373 1614q0 51 35 85t86 34q48 0 82 -34.5t34 -84.5q0 -49 -34.5 -84t-81.5 -35q-51 0 -86 34.5t-35 84.5zM1092 1614q0 51 34 85t84 34t84.5 -34t34.5 -85q0 -50 -34.5 -84.5t-84.5 -34.5q-49 0 -83.5 34.5t-34.5 84.5zM70 735q0 214 101.5 391t278.5 279t392 102 q214 0 391 -102t279 -279t102 -391t-102 -391t-279 -279t-391 -102t-391 102t-279 279t-102 391zM842 1331q-160 0 -295 -79t-213 -216.5t-78 -300.5t78 -301t213 -217.5t295 -79.5q120 0 228 47t186 127t123.5 191t45.5 233t-45.5 232.5t-123.5 190t-186 126.5t-228 47z " />
<glyph unicode="&#xd7;" d="M334 352l-107 109l281 278l-275 275l99 100l274 -274l279 278l108 -108l-280 -279l276 -274l-98 -101l-275 275z" />
<glyph unicode="&#xd8;" horiz-adv-x="1689" d="M115 -35l-45 41l204 205q-59 65 -84 104q-120 176 -120 422q0 214 102 391t279 279t391 102q149 0 280 -51q68 -25 120 -58t138 -106l197 193l45 -43l-199 -195q60 -78 74 -100q55 -86 86 -194.5t31 -217.5q1 -214 -100.5 -391t-279 -279t-392.5 -102q-153 0 -281 47 q-64 25 -112 56.5t-125 99.5zM1290 1118l-833 -823q52 -48 87 -70.5t87 -44.5q103 -41 211 -41q120 0 228 47t186 127t123.5 191t45.5 233q0 170 -82 305q-13 23 -53 76zM410 336l837 831q-100 79 -184 113q-110 43 -217 43q-158 0 -292 -78.5t-212 -214t-78 -295.5 q0 -80 23.5 -164t64.5 -153q6 -11 58 -82z" />
<glyph unicode="&#xd9;" horiz-adv-x="1374" d="M1059 1475h186v-891q0 -169 -39 -281q-54 -154 -196.5 -247t-323.5 -93q-234 0 -389 146q-91 85 -128.5 193t-37.5 282v891h184v-928q0 -188 101 -301t268 -113q170 0 272.5 113t102.5 301v928zM727 1638l-285 279l138 92l241 -317z" />
<glyph unicode="&#xda;" horiz-adv-x="1374" d="M1059 1475h186v-891q0 -169 -39 -281q-54 -154 -196.5 -247t-323.5 -93q-234 0 -389 146q-91 85 -128.5 193t-37.5 282v891h184v-928q0 -188 101 -301t268 -113q170 0 272.5 113t102.5 301v928zM723 1638l-94 54l241 315l138 -90z" />
<glyph unicode="&#xdb;" horiz-adv-x="1374" d="M1059 1475h186v-891q0 -169 -39 -281q-54 -154 -196.5 -247t-323.5 -93q-234 0 -389 146q-91 85 -128.5 193t-37.5 282v891h184v-928q0 -188 101 -301t268 -113q170 0 272.5 113t102.5 301v928zM506 1638l-90 93l270 276h68l278 -272l-88 -90l-219 219z" />
<glyph unicode="&#xdc;" horiz-adv-x="1374" d="M1059 1475h186v-891q0 -169 -39 -281q-54 -154 -196.5 -247t-323.5 -93q-234 0 -389 146q-91 85 -128.5 193t-37.5 282v891h184v-928q0 -188 101 -301t268 -113q170 0 272.5 113t102.5 301v928zM416 1677q0 51 34.5 86t84.5 35t84 -35t34 -86q0 -49 -34.5 -83.5 t-83.5 -34.5q-50 0 -84.5 34.5t-34.5 83.5zM768 1677q0 51 35 86t86 35q48 0 82.5 -35t34.5 -86q0 -49 -34.5 -83.5t-82.5 -34.5q-51 0 -86 34t-35 84z" />
<glyph unicode="&#xdf;" horiz-adv-x="1130" d="M305 0h-174v1272q0 185 116.5 299.5t303.5 114.5t311.5 -113t124.5 -283q0 -132 -73 -228t-203 -134q168 -34 265 -153.5t97 -293.5q0 -205 -127 -344q-133 -145 -391 -145q-81 0 -145 12l2 156q56 -19 123 -19q155 0 255.5 99.5t100.5 253.5q0 164 -111.5 258t-306.5 94 q-27 0 -45 -2v139h39q158 0 247 75.5t89 209.5q0 117 -70 191.5t-180 74.5q-54 0 -104 -22.5t-82 -61.5q-62 -74 -62 -238v-1212z" />
<glyph unicode="&#xe0;" horiz-adv-x="1179" d="M879 735v195h170v-930h-172v209q-43 -112 -136 -172t-221 -60q-193 0 -321.5 139t-128.5 345q0 209 131.5 354.5t320.5 145.5q81 0 156.5 -29.5t122.5 -81.5q40 -43 78 -115zM563 809q-132 0 -224.5 -99.5t-92.5 -240.5q0 -143 92 -241t225 -97q132 0 225 98.5t93 239.5 t-93 240.5t-225 99.5zM627 1022l-285 278l137 93l242 -318z" />
<glyph unicode="&#xe1;" horiz-adv-x="1179" d="M879 735v195h170v-930h-172v209q-43 -112 -136 -172t-221 -60q-193 0 -321.5 139t-128.5 345q0 209 131.5 354.5t320.5 145.5q81 0 156.5 -29.5t122.5 -81.5q40 -43 78 -115zM563 809q-132 0 -224.5 -99.5t-92.5 -240.5q0 -143 92 -241t225 -97q132 0 225 98.5t93 239.5 t-93 240.5t-225 99.5zM590 1022l-94 53l241 316l137 -91z" />
<glyph unicode="&#xe2;" horiz-adv-x="1179" d="M879 735v195h170v-930h-172v209q-43 -112 -136 -172t-221 -60q-193 0 -321.5 139t-128.5 345q0 209 131.5 354.5t320.5 145.5q81 0 156.5 -29.5t122.5 -81.5q40 -43 78 -115zM563 809q-132 0 -224.5 -99.5t-92.5 -240.5q0 -143 92 -241t225 -97q132 0 225 98.5t93 239.5 t-93 240.5t-225 99.5zM391 1022l-90 92l270 277h68l279 -273l-89 -90l-219 219z" />
<glyph unicode="&#xe3;" horiz-adv-x="1179" d="M879 735v195h170v-930h-172v209q-43 -112 -136 -172t-221 -60q-193 0 -321.5 139t-128.5 345q0 209 131.5 354.5t320.5 145.5q81 0 156.5 -29.5t122.5 -81.5q40 -43 78 -115zM563 809q-132 0 -224.5 -99.5t-92.5 -240.5q0 -143 92 -241t225 -97q132 0 225 98.5t93 239.5 t-93 240.5t-225 99.5zM387 1049l-84 16q54 184 186 184q31 0 66 -12q2 -1 6 -2t12.5 -3.5t16.5 -4.5l39 -17l16 -4l21 -8q63 -24 96 -24q45 0 63 18q7 4 43 49l84 -14q-41 -189 -184 -189q-29 0 -57 4q-2 1 -9 3.5t-16 5.5l-18 6q-10 3 -37 12l-35 14l-35 13q-9 3 -19 7 t-14.5 5.5t-5.5 1.5q-10 4 -35 4q-30 0 -58.5 -18t-41.5 -47z" />
<glyph unicode="&#xe4;" horiz-adv-x="1179" d="M879 735v195h170v-930h-172v209q-43 -112 -136 -172t-221 -60q-193 0 -321.5 139t-128.5 345q0 209 131.5 354.5t320.5 145.5q81 0 156.5 -29.5t122.5 -81.5q40 -43 78 -115zM563 809q-132 0 -224.5 -99.5t-92.5 -240.5q0 -143 92 -241t225 -97q132 0 225 98.5t93 239.5 t-93 240.5t-225 99.5zM334 1223q0 46 33 78t79 32t78.5 -32t32.5 -78q0 -47 -33 -79t-82 -32q-45 0 -76.5 32t-31.5 79zM713 1223q0 46 32 78t78 32q44 0 75.5 -32t31.5 -78q0 -47 -31 -79t-76 -32q-46 0 -78 32t-32 79z" />
<glyph unicode="&#xe5;" horiz-adv-x="1179" d="M879 735v195h170v-930h-172v209q-43 -112 -136 -172t-221 -60q-193 0 -321.5 139t-128.5 345q0 209 131.5 354.5t320.5 145.5q81 0 156.5 -29.5t122.5 -81.5q40 -43 78 -115zM563 809q-132 0 -224.5 -99.5t-92.5 -240.5q0 -143 92 -241t225 -97q132 0 225 98.5t93 239.5 t-93 240.5t-225 99.5zM403 1219q0 84 58 143t141 59t142 -59.5t59 -142.5t-59 -141t-144 -58q-82 0 -139.5 58t-57.5 141zM600 1319q-40 0 -68 -29.5t-28 -70.5q0 -40 28.5 -68.5t69.5 -28.5t70.5 28.5t29.5 68.5q0 41 -30.5 70.5t-71.5 29.5z" />
<glyph unicode="&#xe6;" horiz-adv-x="1736" d="M758 514q-3 73 -15 133q-19 93 -91.5 142t-192.5 49q-68 0 -148 -25q-82 -28 -145 -84l-10 156q9 6 27.5 17t27.5 16q128 59 274 59q165 0 257.5 -60.5t123.5 -187.5q49 112 148 175t227 63q198 0 320 -136.5t122 -357.5q0 -24 -2 -47h-751q15 -145 98.5 -227t218.5 -82 q187 0 281 192l123 -65q-76 -139 -174 -204t-228 -65q-140 0 -244 62t-153 174q-9 -44 -29 -74q-50 -77 -146.5 -120.5t-217.5 -43.5q-181 0 -285 88.5t-104 239.5q0 155 101.5 245.5t274.5 90.5q226 0 312 -123zM1235 844q-129 0 -206.5 -80.5t-84.5 -224.5h578 q-9 141 -86.5 223t-200.5 82zM479 512q-120 0 -185 -53.5t-65 -151.5q0 -92 67.5 -145t184.5 -53q131 0 204 54t73 152q0 94 -73 145.5t-206 51.5z" />
<glyph unicode="&#xe7;" horiz-adv-x="843" d="M414 -387l-84 51l139 293l117 -61zM797 881v-201q-83 121 -242 121q-137 0 -229.5 -96t-92.5 -240q0 -143 89.5 -239.5t222.5 -96.5q140 0 252 115v-191q-135 -82 -269 -82q-205 0 -343 141.5t-138 350.5q0 139 65 254.5t177.5 181.5t247.5 66q73 0 132.5 -19t127.5 -65z " />
<glyph unicode="&#xe8;" horiz-adv-x="1058" d="M1006 444v-24h-762q14 -137 96 -219t209 -82q190 0 295 188l131 -80q-69 -121 -180 -186.5t-246 -65.5q-207 0 -343 138.5t-136 349.5q0 214 136.5 358t338.5 144q207 0 334 -142.5t127 -378.5zM541 829q-119 0 -196 -73t-97 -205h575q-15 133 -88.5 205.5t-193.5 72.5z M600 1022l-285 278l138 93l241 -318z" />
<glyph unicode="&#xe9;" horiz-adv-x="1058" d="M1006 444v-24h-762q14 -137 96 -219t209 -82q190 0 295 188l131 -80q-69 -121 -180 -186.5t-246 -65.5q-207 0 -343 138.5t-136 349.5q0 214 136.5 358t338.5 144q207 0 334 -142.5t127 -378.5zM541 829q-119 0 -196 -73t-97 -205h575q-15 133 -88.5 205.5t-193.5 72.5z M551 1022l-94 53l241 316l138 -91z" />
<glyph unicode="&#xea;" horiz-adv-x="1058" d="M1006 444v-24h-762q14 -137 96 -219t209 -82q190 0 295 188l131 -80q-69 -121 -180 -186.5t-246 -65.5q-207 0 -343 138.5t-136 349.5q0 214 136.5 358t338.5 144q207 0 334 -142.5t127 -378.5zM541 829q-119 0 -196 -73t-97 -205h575q-15 133 -88.5 205.5t-193.5 72.5z M338 1022l-90 92l270 277h68l278 -273l-88 -90l-219 219z" />
<glyph unicode="&#xeb;" horiz-adv-x="1058" d="M1006 444v-24h-762q14 -137 96 -219t209 -82q190 0 295 188l131 -80q-69 -121 -180 -186.5t-246 -65.5q-207 0 -343 138.5t-136 349.5q0 214 136.5 358t338.5 144q207 0 334 -142.5t127 -378.5zM541 829q-119 0 -196 -73t-97 -205h575q-15 133 -88.5 205.5t-193.5 72.5z M268 1167q0 46 33.5 78.5t79.5 32.5t78.5 -32.5t32.5 -78.5q0 -47 -33 -78.5t-82 -31.5q-45 0 -77 31.5t-32 78.5zM647 1167q0 46 32.5 78.5t78.5 32.5q44 0 75 -32.5t31 -78.5q0 -47 -30.5 -78.5t-75.5 -31.5q-46 0 -78.5 31.5t-32.5 78.5z" />
<glyph unicode="&#xec;" horiz-adv-x="266" d="M219 0h-172v930h172v-930zM135 1022l-285 278l138 93l241 -318z" />
<glyph unicode="&#xed;" horiz-adv-x="266" d="M219 0h-172v930h172v-930zM137 1022l-94 53l242 316l137 -91z" />
<glyph unicode="&#xee;" horiz-adv-x="266" d="M219 0h-172v930h172v-930zM-80 1022l-90 92l270 277h68l278 -273l-88 -90l-219 219z" />
<glyph unicode="&#xef;" horiz-adv-x="266" d="M219 0h-172v930h172v-930zM-156 1167q0 46 33.5 78.5t79.5 32.5t78.5 -32.5t32.5 -78.5q0 -47 -33 -78.5t-82 -31.5q-45 0 -77 31.5t-32 78.5zM223 1167q0 46 32.5 78.5t78.5 32.5q44 0 75 -32.5t31 -78.5q0 -47 -30.5 -78.5t-75.5 -31.5q-46 0 -78.5 31.5t-32.5 78.5z " />
<glyph unicode="&#xf1;" horiz-adv-x="1071" d="M305 0h-174v930h174l-2 -189q44 101 125 155t190 54q62 0 121.5 -20.5t102.5 -57.5q54 -47 76 -111t22 -171v-590h-174v539q0 126 -54.5 191t-160.5 65q-113 0 -179.5 -79t-66.5 -212v-504zM334 1049l-84 16q54 184 186 184q32 0 66 -12q2 -1 6 -2t12.5 -3.5t16.5 -4.5 l38 -17l17 -4l20 -8q63 -24 97 -24q45 0 63 18q7 4 43 49l84 -14q-41 -189 -184 -189q-30 0 -58 4q-2 1 -9 3.5t-16 5.5l-18 6l-16.5 5.5t-13 4.5t-6.5 2l-35 14l-35 13q-9 3 -19 7t-14.5 5.5t-5.5 1.5q-10 4 -35 4q-30 0 -58.5 -18t-41.5 -47z" />
<glyph unicode="&#xf2;" horiz-adv-x="1118" d="M70 463q0 140 63.5 255t175.5 181t248 66q209 0 352.5 -144.5t143.5 -355.5q0 -212 -142.5 -357t-349.5 -145q-209 0 -350 144.5t-141 355.5zM561 803q-136 0 -227.5 -97.5t-91.5 -240.5q0 -145 91 -241.5t228 -96.5q135 0 225.5 96.5t90.5 241.5q0 144 -91 241t-225 97z M594 1022l-285 278l137 93l242 -318z" />
<glyph unicode="&#xf3;" horiz-adv-x="1118" d="M70 463q0 140 63.5 255t175.5 181t248 66q209 0 352.5 -144.5t143.5 -355.5q0 -212 -142.5 -357t-349.5 -145q-209 0 -350 144.5t-141 355.5zM561 803q-136 0 -227.5 -97.5t-91.5 -240.5q0 -145 91 -241.5t228 -96.5q135 0 225.5 96.5t90.5 241.5q0 144 -91 241t-225 97z M561 1022l-94 53l242 316l137 -91z" />
<glyph unicode="&#xf4;" horiz-adv-x="1118" d="M70 463q0 140 63.5 255t175.5 181t248 66q209 0 352.5 -144.5t143.5 -355.5q0 -212 -142.5 -357t-349.5 -145q-209 0 -350 144.5t-141 355.5zM561 803q-136 0 -227.5 -97.5t-91.5 -240.5q0 -145 91 -241.5t228 -96.5q135 0 225.5 96.5t90.5 241.5q0 144 -91 241t-225 97z M358 1022l-90 92l271 277h67l279 -273l-88 -90l-219 219z" />
<glyph unicode="&#xf5;" horiz-adv-x="1118" d="M70 463q0 140 63.5 255t175.5 181t248 66q209 0 352.5 -144.5t143.5 -355.5q0 -212 -142.5 -357t-349.5 -145q-209 0 -350 144.5t-141 355.5zM561 803q-136 0 -227.5 -97.5t-91.5 -240.5q0 -145 91 -241.5t228 -96.5q135 0 225.5 96.5t90.5 241.5q0 144 -91 241t-225 97z M356 1049l-84 16q54 184 187 184q31 0 65 -12q2 -1 6 -2t12.5 -3.5t16.5 -4.5l39 -17l16 -4l21 -8q63 -24 96 -24q46 0 64 18q7 4 43 49l84 -14q-41 -189 -185 -189q-29 0 -57 4q-2 1 -9 3.5t-16 5.5l-18 6q-10 3 -37 12l-35 14l-35 13q-10 3 -19.5 7t-13.5 5.5t-5 1.5 q-10 4 -35 4q-30 0 -59 -18t-42 -47z" />
<glyph unicode="&#xf6;" horiz-adv-x="1118" d="M70 463q0 140 63.5 255t175.5 181t248 66q209 0 352.5 -144.5t143.5 -355.5q0 -212 -142.5 -357t-349.5 -145q-209 0 -350 144.5t-141 355.5zM561 803q-136 0 -227.5 -97.5t-91.5 -240.5q0 -145 91 -241.5t228 -96.5q135 0 225.5 96.5t90.5 241.5q0 144 -91 241t-225 97z M279 1223q0 46 33 78t79 32t78.5 -32t32.5 -78q0 -47 -33 -79t-82 -32q-45 0 -76.5 32t-31.5 79zM657 1223q0 46 32.5 78t78.5 32q44 0 75 -32t31 -78q0 -47 -31 -79t-75 -32q-46 0 -78.5 32t-32.5 79z" />
<glyph unicode="&#xf7;" horiz-adv-x="1216" d="M479 289q38 35 84 35q49 0 82 -33t33 -84q0 -50 -35 -82q-30 -35 -80 -35q-49 0 -84 35q-33 38 -33 82q0 49 33 82zM88 553h948v-139h-948v139zM479 840q34 31 84 34q50 0 80 -34q35 -35 35 -82q0 -50 -35 -82q-30 -35 -80 -35q-49 0 -84 35q-33 33 -33 82t33 82z" />
<glyph unicode="&#xf8;" horiz-adv-x="1120" d="M113 -35l-43 43l116 125q-40 58 -45 64q-71 115 -71 266q0 140 63.5 255t175.5 181t248 66q108 0 199 -39q64 -28 133 -84l117 116l47 -45l-119 -122q37 -49 45 -62q74 -117 74 -264q0 -138 -65 -253.5t-178 -182t-249 -66.5q-105 0 -196 39q-64 28 -129 82zM813 674 l-459 -471q50 -42 98 -59t109 -17q135 0 226.5 97t91.5 241q0 62 -14.5 107.5t-51.5 101.5zM307 254l459 471q-50 44 -96 61t-109 17q-136 0 -228.5 -97.5t-92.5 -240.5q0 -64 14.5 -110t52.5 -101z" />
<glyph unicode="&#xf9;" horiz-adv-x="1073" d="M768 930h176v-537q0 -127 -26 -198q-38 -98 -142.5 -158t-236.5 -60q-177 0 -293 101q-63 52 -89 123.5t-26 191.5v537h176v-537q0 -126 59.5 -192t172.5 -66q111 0 170 66t59 192v537zM571 1022l-284 278l137 93l242 -318z" />
<glyph unicode="&#xfa;" horiz-adv-x="1073" d="M768 930h176v-537q0 -127 -26 -198q-38 -98 -142.5 -158t-236.5 -60q-177 0 -293 101q-63 52 -89 123.5t-26 191.5v537h176v-537q0 -126 59.5 -192t172.5 -66q111 0 170 66t59 192v537zM569 1022l-94 53l242 316l137 -91z" />
<glyph unicode="&#xfb;" horiz-adv-x="1073" d="M768 930h176v-537q0 -127 -26 -198q-38 -98 -142.5 -158t-236.5 -60q-177 0 -293 101q-63 52 -89 123.5t-26 191.5v537h176v-537q0 -126 59.5 -192t172.5 -66q111 0 170 66t59 192v537zM338 1022l-90 92l270 277h68l278 -273l-88 -90l-219 219z" />
<glyph unicode="&#xfc;" horiz-adv-x="1073" d="M768 930h176v-537q0 -127 -26 -198q-38 -98 -142.5 -158t-236.5 -60q-177 0 -293 101q-63 52 -89 123.5t-26 191.5v537h176v-537q0 -126 59.5 -192t172.5 -66q111 0 170 66t59 192v537zM258 1223q0 45 33.5 77.5t79.5 32.5t78 -32t32 -78q0 -47 -32.5 -79t-81.5 -32 q-45 0 -77 32t-32 79zM637 1223q0 46 32.5 78t78.5 32q44 0 75 -32t31 -78q0 -47 -31 -79t-75 -32q-46 0 -78.5 32t-32.5 79z" />
<glyph unicode="&#xff;" horiz-adv-x="870" d="M356 29l-413 901h194l264 -596q21 -45 29 -76t12 -84q5 73 21 111l22 49l254 596h189l-619 -1446h-192zM176 1167q0 46 33.5 78.5t79.5 32.5t78 -32.5t32 -78.5q0 -47 -32.5 -78.5t-81.5 -31.5q-45 0 -77 31.5t-32 78.5zM555 1167q0 46 32.5 78.5t78.5 32.5 q44 0 75 -32.5t31 -78.5q0 -47 -30.5 -78.5t-75.5 -31.5q-46 0 -78.5 31.5t-32.5 78.5z" />
<glyph unicode="&#x152;" horiz-adv-x="2267" d="M1436 1178v299h741l2 -160h-567v-461h565v-164h-567v-528h565v-164h-748v289q-10 -22 -34 -62q-85 -129 -226.5 -197.5t-322.5 -68.5q-159 0 -302.5 60.5t-247 163.5t-164 246t-60.5 302q0 157 61.5 300.5t165 247.5t247.5 166t302 62q126 0 251.5 -44t209.5 -117 q77 -71 129 -170zM844 1319q-158 0 -292 -77.5t-212 -211t-78 -291.5q0 -165 76 -300.5t209 -213.5t295 -78q159 0 294.5 78.5t214.5 212.5t79 291q0 162 -78 298t-212.5 214t-295.5 78z" />
<glyph unicode="&#x153;" horiz-adv-x="1849" d="M950 688q43 133 145.5 204t250.5 71q201 0 325.5 -137t124.5 -359q0 -26 -2 -53h-758q15 -141 100 -222t218 -81q95 0 169 51t115 145l136 -65q-65 -129 -176.5 -201t-247.5 -72q-152 0 -261 73.5t-143 199.5q-51 -128 -155 -197.5t-246 -69.5q-205 0 -340 140.5 t-135 353.5q0 136 62 250t170 180t239 66q144 0 253.5 -74.5t155.5 -202.5zM1346 829q-128 0 -204.5 -76t-88.5 -218h575q-10 139 -84.5 216.5t-197.5 77.5zM553 809q-135 0 -222 -98t-87 -250q0 -145 88 -239.5t223 -94.5q140 0 229.5 96t89.5 246q0 148 -90 244t-231 96z " />
<glyph unicode="&#x178;" horiz-adv-x="976" d="M227 1784q0 45 33.5 77.5t79.5 32.5t78.5 -32t32.5 -78q0 -47 -33 -79t-82 -32q-45 0 -77 32t-32 79zM606 1784q0 46 32.5 78t78.5 32q44 0 75 -32t31 -78q0 -47 -31 -79t-75 -32q-46 0 -78.5 32t-32.5 79zM393 705l-475 770h219l291 -482q43 -72 59 -168q10 61 29 103 q5 18 33 65l291 482h219l-477 -770v-705h-189v705z" />
<glyph unicode="&#x2c6;" horiz-adv-x="579" d="M72 1022l-90 92l270 277h67l279 -273l-88 -90l-219 219z" />
<glyph unicode="&#x2dc;" horiz-adv-x="612" d="M66 1049l-84 16q54 184 186 184q30 0 65 -12q2 -1 6 -2t12.5 -3.5t16.5 -4.5l39 -17l17 -4l20 -8q63 -24 96 -24q46 0 64 18q7 4 43 49l84 -14q-41 -189 -185 -189q-29 0 -57 4q-2 1 -9 3.5t-16 5.5l-18 6q-10 3 -37 12l-35 14l-34 13q-9 3 -19 7t-14.5 5.5t-5.5 1.5 q-10 4 -35 4q-30 0 -58.5 -18t-41.5 -47z" />
<glyph unicode="&#x2000;" horiz-adv-x="1004" />
<glyph unicode="&#x2001;" horiz-adv-x="2009" />
<glyph unicode="&#x2002;" horiz-adv-x="1004" />
<glyph unicode="&#x2003;" horiz-adv-x="2009" />
<glyph unicode="&#x2004;" horiz-adv-x="669" />
<glyph unicode="&#x2005;" horiz-adv-x="502" />
<glyph unicode="&#x2006;" horiz-adv-x="334" />
<glyph unicode="&#x2007;" horiz-adv-x="334" />
<glyph unicode="&#x2008;" horiz-adv-x="251" />
<glyph unicode="&#x2009;" horiz-adv-x="401" />
<glyph unicode="&#x200a;" horiz-adv-x="111" />
<glyph unicode="&#x2010;" horiz-adv-x="620" d="M573 389h-526v156h526v-156z" />
<glyph unicode="&#x2011;" horiz-adv-x="620" d="M573 389h-526v156h526v-156z" />
<glyph unicode="&#x2012;" horiz-adv-x="620" d="M573 389h-526v156h526v-156z" />
<glyph unicode="&#x2013;" d="M1085 664h-948v147h948v-147z" />
<glyph unicode="&#x2014;" horiz-adv-x="2039" d="M1978 678h-1917v151h1917v-151z" />
<glyph unicode="&#x2018;" horiz-adv-x="391" d="M229 926h-219l246 549h119z" />
<glyph unicode="&#x2019;" horiz-adv-x="393" d="M102 926h-120l153 551h213z" />
<glyph unicode="&#x201a;" horiz-adv-x="393" d="M102 -213h-120l153 549h213z" />
<glyph unicode="&#x201c;" horiz-adv-x="702" d="M229 926h-219l246 549h119zM541 926h-219l245 549h119z" />
<glyph unicode="&#x201d;" horiz-adv-x="706" d="M102 926h-120l153 551h213zM414 926h-119l151 551h213z" />
<glyph unicode="&#x201e;" horiz-adv-x="706" d="M102 -213h-120l153 549h213zM414 -213h-119l151 549h213z" />
<glyph unicode="&#x2022;" horiz-adv-x="350" d="M47 461q0 53 37.5 92t89.5 39q55 0 93 -39t38 -92q0 -54 -38 -92.5t-93 -38.5q-52 0 -89.5 38.5t-37.5 92.5z" />
<glyph unicode="&#x2026;" horiz-adv-x="2039" d="M213 109q0 54 37.5 91.5t91.5 37.5t91.5 -37.5t37.5 -91.5t-37.5 -91.5t-91.5 -37.5t-91.5 37.5t-37.5 91.5zM895 109q0 54 37.5 91.5t91.5 37.5t91.5 -37.5t37.5 -91.5t-37.5 -91.5t-91.5 -37.5t-91.5 37.5t-37.5 91.5zM1577 109q0 54 37.5 91.5t91.5 37.5t91.5 -37.5 t37.5 -91.5t-37.5 -91.5t-91.5 -37.5t-91.5 37.5t-37.5 91.5z" />
<glyph unicode="&#x202f;" horiz-adv-x="401" />
<glyph unicode="&#x2039;" horiz-adv-x="520" d="M356 106l-309 416l324 416l104 -82l-268 -336l264 -327z" />
<glyph unicode="&#x203a;" horiz-adv-x="526" d="M154 104l-107 89l275 333l-273 328l111 86l321 -410z" />
<glyph unicode="&#x205f;" horiz-adv-x="502" />
<glyph unicode="&#x20ac;" horiz-adv-x="1587" d="M1257 688l-61 -141h-729q59 -181 211 -294.5t344 -113.5q125 0 237 51t191 140v-240q-189 -125 -428 -125q-274 0 -481 163t-269 419h-213l60 141h133q0 8 -1 24.5t-1 24.5t1 25.5t1 25.5h-193l60 142h155q62 256 268 417.5t480 161.5q292 0 506 -182l-78 -182 q-81 89 -191.5 138.5t-236.5 49.5q-192 0 -344 -112t-211 -291h891l-60 -142h-860q0 -8 -1 -25.5t-1 -25.5t1 -24.5t1 -24.5h819z" />
<glyph unicode="&#x2122;" horiz-adv-x="1613" d="M260 1372h-164v103h445v-103h-166v-635h-115v635zM631 737h-115l141 756h62l205 -467q29 -67 32 -129q3 57 33 129l205 467h61l142 -756h-115l-74 430l-4 23l-2 18q-3 39 2 72q-1 -2 -20 -72l-10 -26l-3 -11l-194 -450h-41l-195 450l-4 15l-8 24q-18 62 -20 70 q5 -33 2 -72l-2 -18l-4 -23z" />
<glyph unicode="&#x25fc;" horiz-adv-x="931" d="M0 932h932v-932h-932v932z" />
</font>
</defs>
</svg>
