<?xml version="1.0" standalone="no"?>
<!DOCTYPE svg PUBLIC "-//W3C//DTD SVG 1.1//EN" "http://www.w3.org/Graphics/SVG/1.1/DTD/svg11.dtd" >
<svg xmlns="http://www.w3.org/2000/svg">
<metadata></metadata>
<defs>
<font id="limerick_serialxbold" horiz-adv-x="1359" >
<font-face units-per-em="2048" ascent="1638" descent="-410" />
<missing-glyph horiz-adv-x="593" />
<glyph horiz-adv-x="0" />
<glyph horiz-adv-x="0" />
<glyph horiz-adv-x="682" />
<glyph unicode="&#xd;" horiz-adv-x="593" />
<glyph unicode=" "  horiz-adv-x="593" />
<glyph unicode="&#x09;" horiz-adv-x="593" />
<glyph unicode="&#xa0;" horiz-adv-x="593" />
<glyph unicode="!" horiz-adv-x="608" d="M72 188q0 88 67.5 150.5t165.5 62.5q100 0 170 -62.5t70 -150.5q0 -92 -69.5 -154.5t-168.5 -62.5t-167 62.5t-68 154.5zM502 500h-387v1026h387v-1026z" />
<glyph unicode="&#x22;" horiz-adv-x="1091" d="M252 797h-264l196 680h400zM731 797h-268l199 680h399z" />
<glyph unicode="#" horiz-adv-x="1298" d="M295 414h-236l31 147h238l73 352h-235l31 148h237l86 414h148l-86 -414h176l88 414h147l-88 -414h236l-31 -148h-236l-75 -352h235l-30 -147h-236l-88 -414h-148l89 414h-179l-88 -414h-147zM549 913l-74 -352h176l76 352h-178z" />
<glyph unicode="$" horiz-adv-x="1099" d="M-2 139l174 307q154 -145 307 -145q71 0 118.5 39.5t47.5 97.5q0 54 -36 86t-126 58q-18 5 -35 10t-31.5 9t-17.5 5q-119 39 -180 82q-80 59 -124 144.5t-44 185.5q0 120 55 219q49 87 123 147q40 33 79 52.5t108 40.5l2 170h264l2 -150q105 -9 182.5 -40t165.5 -101 l-158 -287q-116 113 -249 113q-71 0 -114.5 -35t-43.5 -92q0 -75 82 -111q3 -4 11 -7.5t9 -4.5q6 -2 16 -5t11 -3q33 -11 78 -23q131 -40 198 -78q91 -51 142 -144t51 -212q0 -179 -101 -304.5t-282 -172.5v-170h-266v153q-71 4 -154 25q-72 20 -153 65q-33 20 -111 76z" />
<glyph unicode="%" horiz-adv-x="2027" d="M621 -100l-185 120l973 1547l184 -119zM45 1094q0 172 122 287.5t306 115.5q183 0 305.5 -115.5t122.5 -287.5t-122.5 -288t-305.5 -116q-184 0 -306 116t-122 288zM1130 379q0 174 121 288.5t305 114.5t306.5 -115t122.5 -288q0 -175 -122 -289.5t-307 -114.5 q-184 0 -305 114.5t-121 289.5zM471 1247q-54 0 -90.5 -43.5t-36.5 -109.5t37 -110t92 -44t92 44t37 110q0 68 -36.5 110.5t-94.5 42.5zM1556 530q-57 0 -94 -43t-37 -108q0 -66 37 -110t94 -44t95.5 44t38.5 110t-38.5 108.5t-95.5 42.5z" />
<glyph unicode="&#x26;" horiz-adv-x="1576" d="M1130 0l-120 158l-107 -74q-165 -115 -375 -115q-205 0 -340 123t-135 309q0 75 27.5 143t77.5 113q74 70 202 127l68 31q-143 134 -143 287q0 176 132.5 290.5t332.5 114.5q196 0 328 -109t132 -272q0 -121 -67.5 -212.5t-212.5 -168.5l160 -188l217 184l211 -252 l-220 -161l301 -328h-469zM709 334l84 53l-185 213l-71 -49q-71 -49 -80 -59q-39 -42 -39 -86q0 -52 39.5 -87.5t95.5 -35.5q31 0 77 15t79 36zM651 1114q0 -69 84 -153q81 50 111.5 84.5t30.5 76.5q0 46 -33.5 80.5t-77.5 34.5q-46 0 -80.5 -37t-34.5 -86z" />
<glyph unicode="'" horiz-adv-x="606" d="M250 797h-262l198 680h392z" />
<glyph unicode="(" horiz-adv-x="618" d="M358 1772l265 -130q-68 -118 -115 -223q-137 -313 -137 -690q0 -237 55 -453q32 -124 69.5 -215.5t122.5 -246.5l-278 -119q-64 119 -117 231q-81 180 -127.5 392t-46.5 395q0 261 94 567q39 128 81.5 224.5t133.5 267.5z" />
<glyph unicode=")" horiz-adv-x="612" d="M262 -297l-266 127q73 132 113 221q137 316 137 694q0 228 -53 451q-29 118 -67.5 209.5t-125.5 251.5l274 121q92 -177 115 -230q81 -185 128.5 -403.5t47.5 -405.5q0 -264 -86 -551q-38 -126 -81 -221.5t-136 -263.5z" />
<glyph unicode="*" horiz-adv-x="743" d="M233 1145l-196 100l88 146l172 -107l-6 201h164l-11 -217l185 118l80 -141l-179 -98l179 -92l-84 -148l-181 111l11 -207h-160v201l-174 -111l-84 143z" />
<glyph unicode="+" d="M516 580h-334v317h334v338h328v-338h334v-317h-334v-338h-328v338z" />
<glyph unicode="," horiz-adv-x="606" d="M242 -229h-265l199 673h393z" />
<glyph unicode="-" horiz-adv-x="737" d="M700 326h-663v336h663v-336z" />
<glyph unicode="." horiz-adv-x="548" d="M37 188q0 89 69.5 152t167.5 63q100 0 170 -63t70 -152t-70 -153t-170 -64q-98 0 -167.5 64t-69.5 153z" />
<glyph unicode="/" horiz-adv-x="1083" d="M274 -12h-251l788 1499h250z" />
<glyph unicode="0" d="M39 735q0 344 177 556t464 212q189 0 334 -96t224 -270.5t79 -401.5q0 -346 -175 -557t-462 -211q-190 0 -335.5 95.5t-225.5 270t-80 402.5zM680 1157q-119 0 -181.5 -108.5t-62.5 -313.5q0 -206 63 -316t181 -110t181 110t63 316q0 205 -62.5 313.5t-181.5 108.5z" />
<glyph unicode="1" d="M883 0h-402v1139l-209 -13v351h611v-1477z" />
<glyph unicode="2" d="M1257 0h-1228l602 664q106 117 149 193.5t43 146.5q0 82 -48 132t-126 50q-80 0 -129 -53.5t-49 -143.5q0 -18 8 -51h-401q-2 25 -2 70q0 224 161.5 368t413.5 144q258 0 421 -139t163 -359q0 -106 -35 -180t-139 -191q-52 -60 -113 -121l-237 -215l546 17v-332z" />
<glyph unicode="3" d="M78 467h397q11 -93 63 -145t136 -52q83 0 135.5 52.5t52.5 134.5q0 84 -59.5 133t-159.5 49q-23 0 -39 -2v264q20 -4 45 -4q79 0 128.5 45t49.5 117q0 66 -44.5 109.5t-110.5 43.5q-69 0 -111 -43.5t-45 -115.5h-389q19 225 158.5 339.5t394.5 114.5q243 0 395 -115.5 t152 -299.5q0 -101 -53.5 -181t-147.5 -120q112 -35 180 -131.5t68 -221.5q0 -214 -160 -342.5t-426 -128.5q-284 -1 -439.5 127t-170.5 373z" />
<glyph unicode="4" d="M743 326l-712 -4v243l653 912h436v-852l191 6v-309l-197 6v-328h-377zM455 653q-36 -36 -88 -71q50 27 78 34t85 7h224v364q0 59 28 162q-48 -111 -75 -148l-218 -307q-14 -21 -34 -41z" />
<glyph unicode="5" d="M113 84l53 348q200 -141 401 -141q123 0 198 56t75 147q0 92 -85 149t-220 57q-147 0 -345 -65l134 842h831v-328l-555 4l-33 -217l13 4q55 18 147 18q234 0 377 -128t143 -338q0 -232 -184 -379.5t-477 -147.5q-247 0 -473 119z" />
<glyph unicode="6" d="M1110 1477l-467 -527q123 56 221 56q187 0 315 -140t128 -344q0 -244 -174.5 -399.5t-446.5 -155.5q-279 0 -456 156t-177 403q0 180 99 363q36 64 112 166l330 422h516zM684 754q-98 0 -164.5 -69t-66.5 -169q0 -95 65 -160t162 -65q101 0 167 66t66 167q0 98 -65.5 164 t-163.5 66z" />
<glyph unicode="7" d="M516 0h-444l592 1057l24 45q9 17 24 31t48 36q-110 -45 -162 -45l-512 -4v357h1245z" />
<glyph unicode="8" d="M358 766q-105 37 -163 119.5t-58 195.5q0 184 156.5 306t388.5 122q229 0 385 -123.5t156 -304.5q0 -114 -60.5 -197t-167.5 -118q126 -38 196.5 -131t70.5 -219q0 -127 -75.5 -230.5t-209 -162t-299.5 -58.5q-165 0 -297.5 58t-207.5 161.5t-75 231.5q0 125 68 218 t192 132zM680 633q-78 0 -128 -55t-50 -140q0 -76 50 -128t124 -52q78 0 127 51t49 131q0 85 -48.5 139t-123.5 54zM678 1217q-63 0 -110.5 -45.5t-47.5 -108.5v-10q0 -72 44.5 -118t113.5 -46q68 0 114 46.5t46 113.5q0 72 -46 120t-114 48z" />
<glyph unicode="9" d="M246 0l469 518q-115 -53 -217 -53q-192 0 -318.5 138t-126.5 347q0 244 172.5 399.5t442.5 155.5q285 0 462 -160t177 -419q0 -245 -211 -508l-340 -418h-510zM678 1182q-98 0 -166 -69t-68 -167q0 -97 66 -162t164 -65q100 0 165.5 66.5t65.5 166.5q0 98 -65 164 t-162 66z" />
<glyph unicode=":" horiz-adv-x="593" d="M66 188q0 89 69.5 152t169.5 63q98 0 168 -63t70 -152q0 -92 -69.5 -154.5t-168.5 -62.5q-100 0 -169.5 62.5t-69.5 154.5zM66 813q0 90 70 153.5t169 63.5q97 0 166.5 -64t69.5 -153q0 -90 -69.5 -153.5t-166.5 -63.5q-100 0 -169.5 63t-69.5 154z" />
<glyph unicode=";" horiz-adv-x="655" d="M256 -229h-262l199 673h391zM129 813q0 89 70 153t168 64t167.5 -64t69.5 -153q0 -91 -69.5 -154t-167.5 -63q-99 0 -168.5 63.5t-69.5 153.5z" />
<glyph unicode="&#x3c;" horiz-adv-x="612" d="M373 27l-330 503l346 490l184 -137l-251 -355l249 -366z" />
<glyph unicode="=" d="M1212 414h-1067v266h1067v-266zM1212 795h-1067v266h1067v-266z" />
<glyph unicode="&#x3e;" horiz-adv-x="620" d="M236 27l-193 139l254 371l-252 346l191 139l344 -481z" />
<glyph unicode="?" horiz-adv-x="1112" d="M305 188q0 89 70 152t170 63q98 0 168.5 -63t70.5 -152t-70.5 -153t-170.5 -64q-98 0 -168 64t-70 153zM393 1073h-375q10 224 154.5 357t376.5 133q242 0 393.5 -141t151.5 -367q0 -173 -95 -294t-258 -155v-108h-389v415q74 -20 131 -20q107 0 169.5 48t62.5 132 q0 76 -44 122t-116 46q-71 0 -114.5 -44.5t-47.5 -123.5z" />
<glyph unicode="@" horiz-adv-x="1771" d="M950 463q-2 -4 -6 -12.5t-6 -12.5q-20 -34 -43 -59q-44 -50 -108.5 -65t-131.5 9.5t-114 86.5q-81 109 -72 286q3 69 23 148q27 97 78.5 174.5t115.5 120.5q53 37 111 49.5t106 2t85 -39.5t52 -72l15 92h110l-73 -417l-25 -162q-6 -47 -6 -88q0 -49 31.5 -73.5 t74.5 -10.5q41 13 101 78q35 35 61 86q45 78 64 172q4 26 8 82q5 127 -39 234t-123.5 177.5t-194.5 102t-245 12.5q-161 -23 -285 -121t-187 -253.5t-46 -338.5q9 -108 57 -211q63 -132 165.5 -218t223 -116t257 -3t263.5 114q122 81 201 203l22 -137q-2 -2 -20 -26.5 t-29 -35.5q-230 -254 -567 -254q-192 -1 -353 83.5t-261.5 236t-118.5 342.5q-25 263 71.5 458.5t303.5 315.5q199 112 436 100q107 -6 202.5 -42t169.5 -95t128 -140t80.5 -172.5t23 -196t-40.5 -208.5q-43 -121 -114 -203.5t-154 -117.5q-74 -28 -133 -20.5t-97.5 43.5 t-44.5 87q-2 8 -2 25zM608 600q6 -77 27 -121q29 -58 97 -68.5t112 35.5q37 40 86 170q25 69 37 142l6 35l12 67q11 66 8 115q-3 70 -58.5 104t-123.5 6q-53 -21 -90.5 -70t-71.5 -147q-20 -61 -26 -98q-18 -95 -15 -170z" />
<glyph unicode="A" horiz-adv-x="1386" d="M350 0h-424l543 1477h449l544 -1477h-426l-84 246h-516zM659 946l-22 -74l-109 -342h328l-108 342l-21 74q-22 59 -35 203q-9 -122 -33 -203z" />
<glyph unicode="B" horiz-adv-x="1273" d="M760 0h-672v1477h604q210 0 334.5 -106t124.5 -281q0 -109 -49.5 -188t-145.5 -120q141 -35 218 -129t77 -231q0 -192 -134 -307t-357 -115zM635 623h-156v-332h168q94 0 149.5 46t55.5 124q0 60 -33.5 102t-89.5 53q-44 7 -94 7zM612 1184h-131v-289h135q69 0 108.5 39 t39.5 108q0 65 -41 103.5t-111 38.5z" />
<glyph unicode="C" horiz-adv-x="1200" d="M1149 1438l10 -2v-435q-44 42 -67 56q-115 71 -246 71q-163 0 -274 -113t-111 -280t112.5 -281t278.5 -114q165 0 307 119v-422l-61 -14q-29 -7 -61.5 -16.5t-35.5 -10.5q-103 -27 -192 -27q-157 0 -298 59.5t-242 160.5t-160.5 242t-59.5 298q0 127 38 245t109 213 t165.5 166t213 109.5t246.5 38.5q73 0 137.5 -12.5t190.5 -50.5z" />
<glyph unicode="D" horiz-adv-x="1447" d="M676 0h-588v1477h496q260 0 436 -76q178 -76 278.5 -253.5t100.5 -410.5q0 -347 -191.5 -542t-531.5 -195zM612 1122h-120v-778h108q187 0 287 102.5t100 294.5q0 381 -375 381z" />
<glyph unicode="E" horiz-adv-x="1040" d="M977 0h-889v1477h885v-324h-484v-248h457v-315h-457v-260h488v-330z" />
<glyph unicode="F" horiz-adv-x="974" d="M492 0h-404v1477h877v-334h-473v-260h440v-316h-440v-567z" />
<glyph unicode="G" horiz-adv-x="1632" d="M1511 1157l-344 -192q-128 198 -319 198q-165 0 -275 -127t-110 -319q0 -179 107.5 -297.5t271.5 -118.5q121 0 202 62.5t103 171.5h-322v301h764q2 -35 2 -70q0 -369 -203 -585t-550 -216q-228 0 -408 97.5t-280.5 272t-100.5 394.5q0 167 59.5 312.5t163.5 249t251 163 t315 59.5q334 0 553 -204q62 -59 120 -152z" />
<glyph unicode="H" horiz-adv-x="1449" d="M492 0h-404v1477h404v-557h466v557h404v-1477h-401v575h-469v-575z" />
<glyph unicode="I" horiz-adv-x="577" d="M489 0h-401v1477h401v-1477z" />
<glyph unicode="J" horiz-adv-x="935" d="M-76 209l264 270q7 -76 45 -120t97 -44q66 0 90 43q15 22 20.5 53t5.5 97v969h402v-1039q0 -127 -26.5 -202.5t-92.5 -141.5q-125 -125 -362 -125q-151 0 -251 54t-192 186z" />
<glyph unicode="K" horiz-adv-x="1331" d="M489 0h-401v1477h404v-490q0 -33 -3 -63q-3 -69 -14 -138q25 61 42 93t52 84l353 514h464l-534 -711l571 -766h-485l-375 547l-41 53q-17 22 -39 84q6 -102 6 -164v-520z" />
<glyph unicode="L" horiz-adv-x="958" d="M946 0h-858v1477h404v-1115h454v-362z" />
<glyph unicode="M" horiz-adv-x="1851" d="M377 0h-379l242 1477h395l219 -639q41 -118 53.5 -178t18.5 -168q6 109 18 170t51 176l222 639h395l241 -1477h-378l-101 702q-6 54 -8 91q-6 99 -6 184v16q-20 -119 -43 -200q-8 -28 -29 -88l-241 -705h-244l-240 705q-26 80 -28 88q-23 81 -43 200v-28q0 -57 -7 -172 q-4 -72 -10 -91z" />
<glyph unicode="N" horiz-adv-x="1579" d="M487 0h-399v1477h406l510 -764q26 -40 43 -70q19 -33 88 -172q-29 135 -35 188q-6 41 -6 84v734h393v-1477h-397l-519 770q-15 22 -43 72q-32 53 -84 166q26 -111 37 -187q6 -55 6 -84v-737z" />
<glyph unicode="O" horiz-adv-x="1673" d="M49 735q0 220 101 396t281.5 275t406.5 99q225 0 405 -99t281.5 -274.5t101.5 -394.5q0 -220 -101.5 -396t-281.5 -275t-405 -99q-169 0 -315.5 58t-250.5 159.5t-163.5 244.5t-59.5 306zM838 1137q-161 0 -270 -116t-109 -286q0 -169 109 -284t270 -115q158 0 266 115.5 t108 285.5q0 169 -108 284.5t-266 115.5z" />
<glyph unicode="P" horiz-adv-x="1210" d="M489 0h-401v1477h604q227 0 367.5 -134t140.5 -352q0 -229 -129.5 -356t-361.5 -127h-220v-508zM631 1163h-142v-356h103q103 0 157 47.5t54 138.5q0 78 -46.5 124t-125.5 46z" />
<glyph unicode="Q" horiz-adv-x="1662" d="M1432 213l188 -193l-266 -231l-205 231q-107 -32 -168 -42.5t-139 -10.5q-226 0 -407.5 99t-283.5 274.5t-102 394.5t101.5 395t282 275.5t405.5 99.5q167 0 313.5 -58.5t250.5 -159.5t164 -244t60 -306q0 -158 -61 -305q-26 -62 -52 -105.5t-81 -113.5zM838 1139 q-159 0 -269 -117.5t-110 -286.5q0 -168 110 -284.5t269 -116.5q158 0 266 117t108 286q0 168 -108 285t-266 117z" />
<glyph unicode="R" horiz-adv-x="1257" d="M489 0h-401v1477h557q250 0 398.5 -126t148.5 -337q0 -160 -80 -266.5t-233 -149.5l426 -598h-482l-270 446q-1 2 -29 52q-24 39 -53 104q18 -111 18 -176v-426zM612 1153h-125v-350h91q95 0 150.5 50.5t55.5 135.5q0 78 -45 121t-127 43z" />
<glyph unicode="S" horiz-adv-x="1099" d="M-2 139l174 307q154 -145 307 -145q71 0 118.5 39.5t47.5 97.5q0 54 -36 86t-126 58q-18 5 -35 10t-31.5 9t-17.5 5q-119 39 -180 82q-80 59 -124 144.5t-44 185.5q0 212 156.5 349.5t394.5 137.5q196 0 346 -90q32 -18 84 -59l-158 -287q-116 113 -249 113 q-71 0 -114.5 -35t-43.5 -92q0 -75 82 -111q3 -4 11 -7.5t9 -4.5q6 -2 16 -5t11 -3q33 -11 78 -23q131 -40 198 -78q91 -51 142 -144t51 -212q0 -224 -157.5 -362t-413.5 -138q-218 0 -385 96q-40 21 -111 76z" />
<glyph unicode="T" horiz-adv-x="970" d="M281 1120l-297 -4v361h999v-363l-301 6v-1120h-401v1120z" />
<glyph unicode="U" horiz-adv-x="1425" d="M936 1477h399v-881q0 -169 -32 -266q-56 -172 -211.5 -268.5t-378.5 -96.5q-131 0 -248 38t-197 106q-94 82 -137 197.5t-43 289.5v881h399v-871q0 -84 21 -149q22 -59 78.5 -96t126.5 -37q88 0 151 53q40 34 56 86t16 143v871z" />
<glyph unicode="V" horiz-adv-x="1318" d="M475 0l-563 1477h422l282 -818q6 -16 19 -79q17 -80 24 -177q5 74 25 177q7 41 21 79l278 818h426l-567 -1477h-367z" />
<glyph unicode="W" horiz-adv-x="2002" d="M403 0l-462 1477h411l185 -721l20 -84q22 -98 29 -223q15 134 32 219q3 13 7.5 34t7 34t4.5 20l205 721h321l203 -721q3 -12 20 -88q12 -57 31 -219q6 122 29 223l20 86l185 719h413l-462 -1477h-342l-211 719q-19 78 -21 92q-17 90 -27 217q-10 -134 -24 -217 q-6 -21 -13.5 -53t-9.5 -39l-211 -719h-340z" />
<glyph unicode="X" horiz-adv-x="1464" d="M434 0h-467l531 784l-475 693h466l179 -291l26 -43l4 -2q20 -39 35 -123q9 80 33 123l2 2l27 43l180 291h469l-479 -693l532 -784h-467l-237 379q-29 46 -33 57q-22 40 -27 117q-8 -78 -28 -117q-2 -4 -5.5 -10.5t-11.5 -19.5t-16 -27z" />
<glyph unicode="Y" horiz-adv-x="1204" d="M399 676l-487 801h461l168 -312q23 -47 30 -69q24 -68 31 -160q6 81 31 160q10 27 31 69l167 312h461l-485 -801v-676h-408v676z" />
<glyph unicode="Z" horiz-adv-x="1284" d="M1247 0h-1286l633 1030l31 51q18 29 61 78q-130 -29 -158 -29h-462v347h1241l-629 -1031q-27 -44 -47 -68t-60 -63q50 17 78.5 21t93.5 4h504v-340z" />
<glyph unicode="[" horiz-adv-x="569" d="M569 -182h-493v1839h493v-232h-141v-1374h141v-233z" />
<glyph unicode="\" horiz-adv-x="727" d="M317 0l-258 1475h295l258 -1475h-295z" />
<glyph unicode="]" horiz-adv-x="569" d="M0 -182v233h141v1374h-141v232h494v-1839h-494z" />
<glyph unicode="^" horiz-adv-x="792" d="M100 1087l-112 148l346 270h131l342 -264l-117 -149l-289 161z" />
<glyph unicode="_" horiz-adv-x="925" d="M797 -137h-738v137h738v-137z" />
<glyph unicode="`" horiz-adv-x="604" d="M387 1085l-393 246l192 191l338 -289z" />
<glyph unicode="a" horiz-adv-x="1284" d="M817 852v141h373l4 -993h-377v147q-44 -82 -128.5 -127t-192.5 -45q-195 0 -321 146t-126 371q0 227 129.5 380.5t321.5 153.5q102 0 186.5 -46.5t130.5 -127.5zM627 717q-88 0 -144.5 -62t-56.5 -157q0 -92 56 -150.5t145 -58.5q87 0 143.5 60t56.5 153q0 94 -57 154.5 t-143 60.5z" />
<glyph unicode="b" horiz-adv-x="1277" d="M453 0h-365v1632h383l-8 -778q54 82 137 127t182 45q191 0 320 -151.5t129 -376.5q0 -227 -128 -376t-323 -149q-106 0 -196 52t-131 137v-162zM649 717q-85 0 -144 -62.5t-59 -154.5q0 -94 57 -154.5t146 -60.5q88 0 145.5 61.5t57.5 155.5t-57.5 154.5t-145.5 60.5z " />
<glyph unicode="c" horiz-adv-x="888" d="M844 973v-352q-92 86 -193 86q-94 0 -152.5 -59t-58.5 -154q0 -92 58 -151.5t149 -59.5q98 0 197 77v-337q-143 -52 -264 -52q-236 0 -383.5 143.5t-147.5 372.5q0 230 151 382.5t380 152.5q133 0 264 -49z" />
<glyph unicode="d" horiz-adv-x="1282" d="M813 866v766h379v-1632h-365v156q-51 -85 -139 -133t-196 -48q-189 0 -316 149t-127 372q0 224 129.5 375t321.5 151q98 0 180 -41t133 -115zM629 717q-85 0 -143 -62.5t-58 -154.5q0 -93 57 -154t144 -61t143.5 61.5t56.5 155.5t-56 154.5t-144 60.5z" />
<glyph unicode="e" horiz-adv-x="1183" d="M1145 455v-33h-723q3 -99 50.5 -153t133.5 -54q120 0 178 119l336 -62q-60 -146 -195 -227.5t-315 -81.5q-254 0 -407.5 144t-153.5 382q0 239 155 393t396 154q249 0 397 -158t148 -423zM604 793q-76 0 -124.5 -52.5t-53.5 -140.5h346q-2 89 -47 141t-121 52z" />
<glyph unicode="f" horiz-adv-x="671" d="M137 694l-131 -6v305h131v258q0 199 96.5 302.5t282.5 103.5q74 0 182 -27v-319q-37 22 -73 22q-111 0 -111 -153v-187h180v-307l-180 8v-694h-377v694z" />
<glyph unicode="g" horiz-adv-x="1271" d="M815 850v143h367v-903q0 -140 -19 -221q-40 -173 -192 -268t-389 -95q-199 0 -319.5 57.5t-174.5 178.5l209 160q51 -66 115.5 -95.5t156.5 -29.5q114 0 181 63t67 172v154q-84 -172 -315 -172q-197 0 -325 141.5t-128 360.5q0 145 60 265t164 188.5t229 68.5 q208 0 313 -168zM629 709q-86 0 -144.5 -61.5t-58.5 -153.5t56.5 -152.5t144.5 -60.5t145 60.5t57 152.5q0 95 -56 155t-144 60z" />
<glyph unicode="h" horiz-adv-x="1228" d="M473 0h-385v1632h383v-796q52 89 136.5 136.5t187.5 47.5q157 0 251.5 -97.5t94.5 -260.5v-662h-379v516q0 70 -12 107q-10 39 -44 63.5t-77 24.5q-73 0 -114.5 -51t-41.5 -140v-520z" />
<glyph unicode="i" horiz-adv-x="563" d="M469 0h-379v993h379v-993zM59 1319q0 85 65.5 146t156.5 61q92 0 156.5 -61t64.5 -146t-64.5 -145t-156.5 -60q-91 0 -156.5 60t-65.5 145z" />
<glyph unicode="j" horiz-adv-x="563" d="M471 -459h-381v1452h381v-1452zM59 1319q0 85 65.5 146t156.5 61q92 0 156.5 -61t64.5 -146t-64.5 -145t-156.5 -60q-91 0 -156.5 60t-65.5 145z" />
<glyph unicode="k" horiz-adv-x="1142" d="M469 0h-381v1632h379v-895v-8l-2 -47q-1 -17 -1 -52t-1 -63q30 68 49 99q18 32 29 47l202 280h465l-407 -471l428 -522h-459l-244 330q-21 29 -65 108l4 -37v-41l4 -43v-6v-311z" />
<glyph unicode="l" horiz-adv-x="557" d="M469 0h-381v1632h381v-1632z" />
<glyph unicode="m" horiz-adv-x="1792" d="M467 0h-379v993h373l-8 -164q100 189 303 189q104 0 178.5 -53t114.5 -154q99 209 313 209q164 0 252 -103t88 -294v-623h-375v508q0 64 -5 93.5t-19 53.5q-29 47 -95 47q-127 0 -127 -167v-535h-368v535q0 77 -28.5 120t-82.5 43q-35 0 -65 -15t-45 -40 q-25 -43 -25 -141v-502z" />
<glyph unicode="n" horiz-adv-x="1216" d="M469 0h-381v993h375l-8 -157q120 182 321 182q140 0 234 -78q61 -51 87.5 -122.5t26.5 -184.5v-633h-379v524q0 91 -31.5 134.5t-97.5 43.5q-70 0 -108.5 -47t-38.5 -133v-522z" />
<glyph unicode="o" horiz-adv-x="1245" d="M49 496q0 233 161.5 384.5t407.5 151.5q165 0 297 -68t206.5 -190.5t74.5 -275.5q0 -230 -162.5 -381.5t-410.5 -151.5q-249 0 -411.5 151t-162.5 380zM623 711q-87 0 -146 -61.5t-59 -151.5t59 -151.5t146 -61.5q86 0 143 61t57 152q0 92 -57 152.5t-143 60.5z" />
<glyph unicode="p" horiz-adv-x="1282" d="M469 -467h-381v1460h371v-155q116 188 325 188q193 0 321 -149t128 -373q0 -150 -57 -271.5t-158.5 -189.5t-226.5 -68q-106 0 -189.5 44.5t-132.5 127.5v-614zM657 709q-87 0 -144.5 -60.5t-57.5 -152.5q0 -94 56.5 -154.5t145.5 -60.5q88 0 143.5 60.5t55.5 154.5 q0 93 -56 153t-143 60z" />
<glyph unicode="q" horiz-adv-x="1271" d="M821 844v149h359v-1460h-377l10 608q-51 -82 -132.5 -125t-184.5 -43q-193 0 -320 150t-127 377q0 225 126.5 371.5t320.5 146.5q211 0 325 -174zM627 709q-87 0 -146 -61.5t-59 -153.5t57.5 -152.5t145.5 -60.5t145 60.5t57 152.5q0 95 -56 155t-144 60z" />
<glyph unicode="r" horiz-adv-x="753" d="M469 0h-381v993h377v-147q40 85 118 129.5t185 44.5q15 0 29 -2v-379q-69 35 -125 35q-85 0 -142 -45q-33 -26 -47 -70.5t-14 -122.5v-436z" />
<glyph unicode="s" horiz-adv-x="872" d="M-2 139l184 199q35 -51 89.5 -81t111.5 -30q40 0 66 21t26 55q0 29 -22.5 44.5t-96.5 41.5l-59 21q-126 44 -186 113t-60 179q0 148 113 241t293 93q117 0 217 -41q82 -32 153 -112l-176 -181q-81 84 -162 84q-34 0 -56.5 -20t-22.5 -51t22 -47q24 -18 131 -50 q75 -23 99 -32.5t57 -30.5q127 -82 127 -240t-118 -254t-314 -96q-141 0 -248 44.5t-168 129.5z" />
<glyph unicode="t" horiz-adv-x="643" d="M117 692l-117 -6v307h117v334h379v-340l176 8v-309l-176 6v-692h-379v692z" />
<glyph unicode="u" horiz-adv-x="1212" d="M743 993h381v-553q0 -152 -43 -237q-54 -105 -183 -167.5t-292 -62.5q-199 0 -350 99q-88 59 -128 145t-40 223v553h381v-538q0 -166 137 -166t137 166v538z" />
<glyph unicode="v" horiz-adv-x="1069" d="M365 0l-443 993h410l157 -409q23 -59 31.5 -97t16.5 -108q4 68 12.5 106t32.5 99l157 409h408l-440 -993h-342z" />
<glyph unicode="w" horiz-adv-x="1740" d="M373 0l-424 993h399l148 -418q31 -84 47 -213q18 108 47 213l121 418h297l127 -418q30 -99 45 -213v56q0 83 30 157l164 418h418l-426 -993h-330l-127 385q-7 23 -11 37.5t-6 22.5l-3 12q-18 58 -27 141q-17 -113 -26 -141l-25 -72l-127 -385h-311z" />
<glyph unicode="x" horiz-adv-x="1167" d="M399 0h-456l415 514l-391 479h459l121 -180q24 -38 37 -123q9 83 37 123l120 180h457l-389 -479l416 -514h-459l-141 207q-32 49 -43 127q-9 -83 -39 -127z" />
<glyph unicode="y" horiz-adv-x="1054" d="M354 80l-432 913h416l158 -424q20 -54 28 -96t15 -117q4 71 12.5 110.5t30.5 102.5l151 424h402l-625 -1460h-408z" />
<glyph unicode="z" horiz-adv-x="1026" d="M983 0h-1012l406 612q30 45 55 69t76 56q-57 -25 -86 -32t-86 -7h-281v295h987l-405 -606q-32 -47 -53.5 -69t-67.5 -50q64 30 117 33q12 2 47 2h303v-303z" />
<glyph unicode="{" horiz-adv-x="813" d="M59 737q59 2 98.5 43.5t39.5 104.5v635q0 97 53.5 150.5t148.5 53.5h293v-176h-26q-62 0 -88.5 -23t-26.5 -75v-520q0 -59 -34.5 -108t-92.5 -72q-31 -10 -55 -13q29 -3 55 -12q58 -23 92.5 -72t34.5 -108v-520q0 -53 27 -76t88 -23h26v-176h-293q-95 0 -148.5 54.5 t-53.5 150.5v635q0 62 -39.5 103.5t-98.5 43.5z" />
<glyph unicode="|" horiz-adv-x="446" d="M354 0h-295v1475h295v-1475z" />
<glyph unicode="}" horiz-adv-x="813" d="M352 -250h-293v176h27q62 0 88.5 23t26.5 76v520q0 58 35 107.5t94 72.5q23 9 53 12q-26 3 -53 13q-59 23 -94 72.5t-35 107.5v520q0 53 -26 75.5t-89 22.5h-27v176h293q95 0 149 -54.5t54 -149.5v-635q0 -62 39.5 -104t97.5 -44q-58 -2 -97.5 -43.5t-39.5 -103.5v-635 q0 -97 -54 -151t-149 -54z" />
<glyph unicode="~" horiz-adv-x="948" d="M219 1581l-231 53q35 138 107 209.5t175 71.5q72 0 176 -41q128 -53 177 -53q81 0 104 86l236 -58q-22 -123 -105.5 -199.5t-198.5 -76.5q-89 0 -161 35l-43 20q-4 1 -20 7t-29 10q-60 22 -91 22q-83 0 -96 -86z" />
<glyph unicode="&#xa1;" horiz-adv-x="608" d="M72 1323q0 91 68.5 154t166.5 63q99 0 168.5 -63.5t69.5 -153.5q0 -89 -69 -151t-167 -62q-100 0 -168.5 62t-68.5 151zM500 -16h-387v1028h387v-1028z" />
<glyph unicode="&#xa2;" horiz-adv-x="888" d="M438 995v162h236v-147q10 -1 26 -2t27 -2q50 -6 117 -33v-352q-92 86 -193 86q-94 0 -152.5 -59t-58.5 -154q0 -92 58 -151.5t149 -59.5q98 0 197 77v-337q-90 -33 -170 -43v-152h-236v162q-185 43 -287 172.5t-102 324.5q0 197 104 334t285 174z" />
<glyph unicode="&#xa3;" horiz-adv-x="1226" d="M86 -20l-55 274q45 20 51 22l98 33q52 17 76 30.5t41 35.5q47 56 53 198h-225v248h182q-63 147 -63 275q0 186 135 301.5t352 115.5q192 0 314 -95.5t153 -270.5l-297 -103q-3 89 -42.5 138t-108.5 49q-66 0 -109 -43.5t-43 -110.5q0 -66 25 -131l32 -80q7 -14 17 -45 h311v-250h-295q-6 -88 -31 -131q-7 -17 -32 -55q-18 -27 -27 -39q-3 -4 -31 -24q69 -15 101 -25q10 -3 19.5 -6t14 -4.5t5.5 -1.5q31 -9 51 -11q39 -8 67 -8q129 0 219 90l127 -254q-171 -137 -376 -137q-85 0 -226 35l-86 20q-106 27 -159 27q-107 0 -238 -67z" />
<glyph unicode="&#xa4;" horiz-adv-x="1017" d="M59 426l109 106q-93 148 -45 318q15 52 45 102l-105 105q41 56 89 96l112 -115q94 67 208 67.5t208 -65.5l111 115q35 -32 49 -47q35 -39 43 -53l-107 -101q71 -95 68 -217q0 -114 -70 -209l109 -106q-25 -29 -41 -45q-26 -28 -51 -51l-111 110q-92 -68 -207 -68t-207 68 l-116 -108q-28 29 -44 45zM236 737q0 -99 70 -169t169 -70q101 0 170 69q71 71 71 170t-71 170q-70 70 -170 70q-99 0 -169 -70.5t-70 -169.5z" />
<glyph unicode="&#xa5;" horiz-adv-x="1464" d="M375 932l-332 545h459l170 -312q9 -19 28 -69q26 -75 33 -160q7 92 31 160q10 27 31 69l166 312h462l-321 -539h239v-227h-376l-31 -35v-33h407v-231h-407v-412h-406v416h-403v229h403v31l-16 29h-385v227h248z" />
<glyph unicode="&#xa7;" horiz-adv-x="1314" d="M246 1075q-107 104 -107 238q0 120 74 219q135 182 463 182q244 0 395 -133q83 -74 127 -180q24 -63 29 -144l-318 9q-14 94 -65 145q-31 28 -79.5 47t-92.5 19q-73 0 -129 -41t-56 -95q0 -53 50 -100q15 -14 27 -20.5t44 -18.5l436 -168q109 -41 171.5 -128.5 t62.5 -196.5q0 -198 -193 -320q50 -62 71.5 -116t21.5 -115q0 -178 -147 -292t-376 -114q-253 0 -412 119t-159 309q0 7 1 22.5t1 22.5l315 -10v-29q0 -83 73.5 -140.5t180.5 -57.5q75 0 122.5 38t47.5 101q0 99 -120 141l-453 162q-106 38 -162.5 115.5t-56.5 187.5 q0 208 213 342zM823 799l-354 135q-42 0 -67 -33.5t-25 -89.5q0 -60 42 -106t120 -72l313 -107q92 24 92 121q0 107 -121 152z" />
<glyph unicode="&#xa8;" horiz-adv-x="681" d="M-74 1266q0 78 54 132t131 54q78 0 132 -53.5t54 -130.5t-55 -131t-133 -54q-76 0 -129.5 54t-53.5 129zM389 1268q0 77 54 130.5t132 53.5q75 0 129 -54t54 -130t-54 -130.5t-129 -54.5q-78 0 -132 54t-54 131z" />
<glyph unicode="&#xa9;" horiz-adv-x="1908" d="M119 737q0 155 60.5 297t163 244.5t244 163.5t296.5 61q155 -1 296.5 -62t244 -163t163 -244t60.5 -297t-60.5 -296.5t-163 -244t-244 -163t-296.5 -60.5t-296.5 60.5t-244 163t-163 244t-60.5 296.5zM260 737q0 -125 48 -241t136 -207q119 -121 279 -164t320 0t278 164 q121 123 164 286t0 326.5t-164 286.5q-118 120 -278.5 162.5t-320.5 0t-278 -162.5q-89 -89 -136.5 -206.5t-47.5 -244.5zM1208 1087l-90 -133q-57 48 -127 60q-121 25 -219 -43.5t-117 -188.5q-20 -127 46.5 -221.5t187.5 -114.5q89 -13 158 19q31 13 71 47l88 -135 q-88 -69 -182 -88q-199 -44 -352 53t-193 287q-19 95 -4 188q34 188 181.5 292.5t340.5 72.5q115 -18 211 -95z" />
<glyph unicode="&#xaa;" horiz-adv-x="999" d="M78 457v196h786v-196h-786zM647 1368v107h215l2 -725h-219v112q-7 -14 -16 -26q-39 -58 -120.5 -87t-174.5 -10q-145 28 -222.5 156t-43.5 301q19 92 72.5 163t122.5 105t148.5 33t147.5 -43q60 -38 88 -86zM283 1114q0 -76 40 -127t109 -63q79 -14 139.5 29t75.5 124 q6 37 0 74q-10 61 -47.5 101.5t-93.5 52.5q-90 20 -156 -36t-67 -155z" />
<glyph unicode="&#xab;" horiz-adv-x="1060" d="M373 27l-330 503l346 490l186 -139l-251 -353l247 -364zM817 27l-330 503l349 490l184 -139l-250 -353l248 -364z" />
<glyph unicode="&#xac;" horiz-adv-x="1402" d="M1018 737h-959v295h1180v-590h-221v295z" />
<glyph unicode="&#xad;" horiz-adv-x="737" d="M700 326h-663v336h663v-336z" />
<glyph unicode="&#xae;" horiz-adv-x="1908" d="M119 737q0 155 60.5 297t163 244.5t244 163.5t296.5 61q155 -1 296.5 -62t244 -163t163 -244t60.5 -297t-60.5 -296.5t-163 -244t-244 -163t-296.5 -60.5t-296.5 60.5t-244 163t-163 244t-60.5 296.5zM260 737q0 -125 48 -241t136 -207q119 -121 279 -164t320 0t278 164 q121 123 164 286t0 326.5t-164 286.5q-118 120 -278.5 162.5t-320.5 0t-278 -162.5q-89 -89 -136.5 -206.5t-47.5 -244.5zM784 309h-178v875h275q81 0 125.5 -12t83.5 -42q70 -51 88 -141q24 -114 -21.5 -192.5t-146.5 -108.5q-9 0 -17 -4l246 -375h-209l-246 396v-396z M784 1038v-262h68q62 0 99 27t48 76q15 72 -23.5 115.5t-117.5 43.5h-74z" />
<glyph unicode="&#xaf;" horiz-adv-x="745" d="M743 1116h-747v240h747v-240z" />
<glyph unicode="&#xb1;" horiz-adv-x="1216" d="M90 178h946v-139h-946v139zM494 928h139v-250h403v-139h-403v-250h-139v250h-404v139h404v250z" />
<glyph unicode="&#xb4;" horiz-adv-x="573" d="M221 1090l-139 145l338 287l192 -189z" />
<glyph unicode="&#xb5;" horiz-adv-x="1275" d="M152 920h188v-607q0 -143 29 -194q27 -49 102 -49q117 -3 195 163q77 168 77 420v267h189v-672q0 -92 18 -135q18 -40 60 -43q41 0 65 43q23 44 23 125v28h43q0 -10 2 -18v-27q0 -114 -49 -178q-46 -61 -136 -61q-98 -3 -155 88q-50 81 -53 264q-47 -182 -125 -266 q-77 -83 -199 -86q-91 0 -150 53q-56 51 -81 158q0 -4 -1 -23.5t-1 -34.5q-3 -129 65 -289q66 -160 66 -188q0 -41 -23 -64q-22 -22 -63 -22q-47 -3 -68 35q-17 28 -20 108q0 5 0.5 19.5t1.5 43t2 56.5q4 132 4 182q0 117 -2 207q-4 180 -4 195v502z" />
<glyph unicode="&#xb6;" horiz-adv-x="1372" d="M506 1475h704v-162h-706q-119 0 -202.5 -85.5t-82.5 -205.5t84.5 -202.5t200.5 -82.5h123v457h176v-1194h-176v575h-123q-120 0 -222.5 59.5t-162.5 163t-60 226.5q0 187 131 319t316 132zM1098 0h-176v1194h176v-1194z" />
<glyph unicode="&#xb7;" horiz-adv-x="548" d="M37 508q0 91 69.5 154t167.5 63q100 0 170 -63t70 -154q0 -90 -70 -152.5t-170 -62.5q-99 0 -168 62.5t-69 152.5z" />
<glyph unicode="&#xb8;" horiz-adv-x="458" d="M217 -512l-172 139l240 303l180 -137z" />
<glyph unicode="&#xba;" horiz-adv-x="999" d="M854 457h-782v196h782v-196zM59 1114q0 92 39.5 171.5t104.5 131.5t154 74.5t184 5.5q144 -28 233.5 -134.5t89.5 -248.5q2 -164 -114.5 -277.5t-288.5 -113.5q-171 0 -286.5 113t-115.5 278zM274 1114q0 -7 5 -37q14 -69 63.5 -111t118.5 -42q77 -2 131.5 53t54.5 137 q0 13 -4 37q-11 59 -49 98t-96 51q-37 6 -74 0q-57 -12 -95 -51.5t-50 -99.5q-5 -25 -5 -35z" />
<glyph unicode="&#xbb;" horiz-adv-x="1067" d="M238 27l-195 141l252 369l-250 344l193 141l342 -481zM682 27l-195 141l254 369l-252 344l193 141l346 -481z" />
<glyph unicode="&#xbf;" horiz-adv-x="1112" d="M328 1346q0 90 70 153.5t169 63.5q100 0 170 -63t70 -154q0 -90 -70.5 -154t-169.5 -64q-98 0 -168.5 64.5t-70.5 153.5zM371 928v108h389v-418q-82 25 -131 25q-106 0 -169 -49.5t-63 -132.5q0 -76 43.5 -123t114.5 -47q72 0 115.5 45t46.5 123h377 q-12 -224 -155.5 -356t-375.5 -132q-241 0 -393 142t-152 366q0 173 95 293.5t258 155.5z" />
<glyph unicode="&#xc0;" horiz-adv-x="1386" d="M350 0h-424l543 1477h449l544 -1477h-426l-84 246h-516zM659 946l-22 -74l-109 -342h328l-108 342l-21 74q-22 59 -35 203q-9 -122 -33 -203zM717 1640l-393 246l192 191l338 -289z" />
<glyph unicode="&#xc1;" horiz-adv-x="1386" d="M350 0h-424l543 1477h449l544 -1477h-426l-84 246h-516zM659 946l-22 -74l-109 -342h328l-108 342l-21 74q-22 59 -35 203q-9 -122 -33 -203zM707 1645l-140 145l338 287l193 -189z" />
<glyph unicode="&#xc2;" horiz-adv-x="1386" d="M350 0h-424l543 1477h449l544 -1477h-426l-84 246h-516zM659 946l-22 -74l-109 -342h328l-108 342l-21 74q-22 59 -35 203q-9 -122 -33 -203zM408 1642l-113 148l346 270h131l342 -264l-117 -149l-288 161z" />
<glyph unicode="&#xc3;" horiz-adv-x="1386" d="M350 0h-424l543 1477h449l544 -1477h-426l-84 246h-516zM659 946l-22 -74l-109 -342h328l-108 342l-21 74q-22 59 -35 203q-9 -122 -33 -203zM510 1649l-195 49q62 254 230 254q61 0 147 -37q111 -49 144 -49q69 0 86 80l198 -54q-17 -109 -87.5 -179.5t-162.5 -70.5 q-78 0 -133 31l-35 19q-83 34 -112 34q-34 0 -54.5 -20t-25.5 -57z" />
<glyph unicode="&#xc4;" horiz-adv-x="1386" d="M350 0h-424l502 1362q-97 22 -141.5 69.5t-44.5 129.5q0 83 56.5 139.5t139.5 56.5t141 -57t58 -139q0 -37 -16 -84h145q-18 39 -18 77q0 91 54.5 148t143.5 57q84 0 141.5 -56.5t57.5 -139.5q0 -82 -51.5 -136t-137.5 -61l506 -1366h-426l-84 246h-516zM637 872 l-109 -342h328l-108 342l-21 74q-22 59 -35 203q-9 -122 -33 -203z" />
<glyph unicode="&#xc5;" horiz-adv-x="1386" d="M350 0h-424l547 1477h66q-58 51 -79.5 87.5t-21.5 86.5q0 98 73.5 167.5t176.5 69.5q104 0 178 -72.5t74 -173.5q0 -43 -18.5 -78t-69.5 -87h70l540 -1477h-426l-84 246h-516zM637 872l-109 -342h328l-108 342l-21 74q-22 59 -35 203q-9 -122 -33 -203zM606 1651 q0 -35 24 -61.5t58 -26.5q35 0 60.5 26.5t25.5 61.5t-25.5 60.5t-60.5 25.5q-34 0 -58 -25.5t-24 -60.5z" />
<glyph unicode="&#xc6;" horiz-adv-x="1929" d="M350 0h-424l602 1477h910l121 -324h-584l108 -248h584l125 -319h-582l109 -256h586l127 -330h-1012l-86 246h-496zM643 848l-108 -318h309l-111 318q-9 26 -18 74q-19 114 -25 172q-2 -101 -24 -174q-1 -4 -3 -10.5t-7.5 -23.5t-12.5 -38z" />
<glyph unicode="&#xc7;" horiz-adv-x="1193" d="M1130 1442l23 -6v-435q-143 129 -311 129q-164 0 -275.5 -114t-111.5 -281q0 -168 113 -282.5t280 -114.5q82 0 153 28.5t150 92.5v-422l-59 -14q-21 -5 -55 -13.5t-46.5 -11.5t-35.5 -8t-38.5 -7t-38 -4.5t-49.5 -3.5l121 -100l-250 -307l-174 141l215 268 q-91 11 -137.5 21t-101.5 33q-212 86 -335.5 274.5t-123.5 423.5q0 158 60 301t162.5 246t245 164t300.5 61q67 0 132.5 -13t186.5 -46z" />
<glyph unicode="&#xc8;" horiz-adv-x="1040" d="M977 0h-889v1477h885v-324h-484v-248h457v-315h-457v-260h488v-330zM567 1640l-393 246l193 191l338 -289z" />
<glyph unicode="&#xc9;" horiz-adv-x="1040" d="M977 0h-889v1477h885v-324h-484v-248h457v-315h-457v-260h488v-330zM504 1645l-139 145l337 287l193 -189z" />
<glyph unicode="&#xca;" horiz-adv-x="1040" d="M977 0h-889v1477h885v-324h-484v-248h457v-315h-457v-260h488v-330zM250 1642l-113 148l346 270h131l342 -264l-116 -149l-289 161z" />
<glyph unicode="&#xcb;" horiz-adv-x="1040" d="M977 0h-889v1477h885v-324h-484v-248h457v-315h-457v-260h488v-330zM137 1821q0 78 54 132t131 54q78 0 132 -53.5t54 -130.5q0 -76 -55.5 -130.5t-133.5 -54.5q-76 0 -129 54t-53 129zM600 1823q0 77 54 130.5t132 53.5q75 0 129 -54t54 -130t-54 -130.5t-129 -54.5 q-78 0 -132 54t-54 131z" />
<glyph unicode="&#xcc;" horiz-adv-x="577" d="M489 0h-401v1477h401v-1477zM313 1640l-393 246l193 191l338 -289z" />
<glyph unicode="&#xcd;" horiz-adv-x="577" d="M489 0h-401v1477h401v-1477zM287 1645l-140 145l338 287l193 -189z" />
<glyph unicode="&#xce;" horiz-adv-x="577" d="M489 0h-401v1477h401v-1477zM4 1642l-113 148l347 270h131l342 -264l-117 -149l-289 161z" />
<glyph unicode="&#xcf;" horiz-adv-x="577" d="M489 0h-401v1477h401v-1477zM-109 1821q0 78 54 132t131 54q78 0 132 -53.5t54 -130.5t-55 -131t-133 -54q-76 0 -129.5 54t-53.5 129zM354 1823q0 77 54.5 130.5t132.5 53.5q75 0 128.5 -54t53.5 -130t-53.5 -130.5t-128.5 -54.5q-78 0 -132.5 54t-54.5 131z" />
<glyph unicode="&#xd1;" horiz-adv-x="1579" d="M487 0h-399v1477h406l510 -764q26 -40 43 -70q19 -33 88 -172q-29 135 -35 188q-6 41 -6 84v734h393v-1477h-397l-519 770q-15 22 -43 72q-32 53 -84 166q26 -111 37 -187q6 -55 6 -84v-737zM623 1649l-195 49q62 254 229 254q62 0 148 -37q111 -49 143 -49q69 0 86 80 l199 -54q-17 -109 -87.5 -179.5t-162.5 -70.5q-78 0 -133 31l-35 19q-83 34 -113 34q-34 0 -54 -20t-25 -57z" />
<glyph unicode="&#xd2;" horiz-adv-x="1673" d="M49 735q0 220 101 396t281.5 275t406.5 99q225 0 405 -99t281.5 -274.5t101.5 -394.5q0 -220 -101.5 -396t-281.5 -275t-405 -99q-169 0 -315.5 58t-250.5 159.5t-163.5 244.5t-59.5 306zM838 1137q-161 0 -270 -116t-109 -286q0 -169 109 -284t270 -115q158 0 266 115.5 t108 285.5q0 169 -108 284.5t-266 115.5zM901 1640l-393 246l192 191l338 -289z" />
<glyph unicode="&#xd3;" horiz-adv-x="1673" d="M49 735q0 220 101 396t281.5 275t406.5 99q225 0 405 -99t281.5 -274.5t101.5 -394.5q0 -220 -101.5 -396t-281.5 -275t-405 -99q-169 0 -315.5 58t-250.5 159.5t-163.5 244.5t-59.5 306zM838 1137q-161 0 -270 -116t-109 -286q0 -169 109 -284t270 -115q158 0 266 115.5 t108 285.5q0 169 -108 284.5t-266 115.5zM831 1645l-139 145l338 287l193 -189z" />
<glyph unicode="&#xd4;" horiz-adv-x="1673" d="M49 735q0 220 101 396t281.5 275t406.5 99q225 0 405 -99t281.5 -274.5t101.5 -394.5q0 -220 -101.5 -396t-281.5 -275t-405 -99q-169 0 -315.5 58t-250.5 159.5t-163.5 244.5t-59.5 306zM838 1137q-161 0 -270 -116t-109 -286q0 -169 109 -284t270 -115q158 0 266 115.5 t108 285.5q0 169 -108 284.5t-266 115.5zM553 1642l-113 148l346 270h132l342 -264l-117 -149l-289 161z" />
<glyph unicode="&#xd5;" horiz-adv-x="1673" d="M49 735q0 220 101 396t281.5 275t406.5 99q225 0 405 -99t281.5 -274.5t101.5 -394.5q0 -220 -101.5 -396t-281.5 -275t-405 -99q-169 0 -315.5 58t-250.5 159.5t-163.5 244.5t-59.5 306zM838 1137q-161 0 -270 -116t-109 -286q0 -169 109 -284t270 -115q158 0 266 115.5 t108 285.5q0 169 -108 284.5t-266 115.5zM668 1649l-195 49q62 254 229 254q62 0 148 -37q111 -49 143 -49q69 0 86 80l199 -54q-17 -109 -87.5 -179.5t-162.5 -70.5q-78 0 -133 31l-35 19q-83 34 -112 34q-34 0 -54.5 -20t-25.5 -57z" />
<glyph unicode="&#xd6;" horiz-adv-x="1673" d="M358 1350q-159 56 -159 198q0 82 59.5 139.5t142.5 57.5t141 -58t58 -141q0 -42 -18 -88q92 29 144.5 38t121.5 9q64 0 112 -7.5t130 -31.5q-21 41 -21 78q0 85 57 143t142 58q86 0 143 -56.5t57 -142.5q0 -141 -149 -190q71 -55 121 -111q186 -217 186 -508 q0 -164 -60 -307t-164 -244.5t-250.5 -160t-313.5 -58.5q-225 0 -405.5 99.5t-282 276t-101.5 396.5q0 294 193 508q49 52 116 103zM459 735q0 -168 110 -284.5t269 -116.5q158 0 266 117t108 286q0 168 -108 285t-266 117q-159 0 -269 -117.5t-110 -286.5z" />
<glyph unicode="&#xd7;" d="M444 270l-231 232l240 241l-236 236l221 221l238 -235l237 241l234 -231l-240 -242l236 -237l-221 -222l-238 238z" />
<glyph unicode="&#xd8;" horiz-adv-x="1681" d="M121 -35l-72 66l193 186q-61 78 -78 105q-115 176 -115 413q0 219 101.5 395t282 275.5t405.5 99.5q146 0 282 -47q68 -25 120 -54t132 -91l184 180l76 -74l-184 -174q50 -70 65 -98q54 -87 83.5 -195.5t29.5 -216.5q0 -219 -101.5 -394.5t-282 -274.5t-406.5 -99 q-152 0 -283 45q-60 20 -109.5 50t-126.5 92zM1153 963l-551 -535q58 -52 109.5 -72t124.5 -20q160 0 270.5 116t110.5 283q0 67 -14 116.5t-50 111.5zM535 498l552 540q-66 49 -124 70.5t-127 21.5q-155 0 -263 -113.5t-108 -277.5q0 -107 70 -241z" />
<glyph unicode="&#xd9;" horiz-adv-x="1425" d="M936 1477h399v-881q0 -169 -32 -266q-56 -172 -211.5 -268.5t-378.5 -96.5q-131 0 -248 38t-197 106q-94 82 -137 197.5t-43 289.5v881h399v-871q0 -84 21 -149q22 -59 78.5 -96t126.5 -37q88 0 151 53q40 34 56 86t16 143v871zM768 1640l-393 246l192 191l338 -289z" />
<glyph unicode="&#xda;" horiz-adv-x="1425" d="M936 1477h399v-881q0 -169 -32 -266q-56 -172 -211.5 -268.5t-378.5 -96.5q-131 0 -248 38t-197 106q-94 82 -137 197.5t-43 289.5v881h399v-871q0 -84 21 -149q22 -59 78.5 -96t126.5 -37q88 0 151 53q40 34 56 86t16 143v871zM729 1645l-139 145l338 287l192 -189z" />
<glyph unicode="&#xdb;" horiz-adv-x="1425" d="M936 1477h399v-881q0 -169 -32 -266q-56 -172 -211.5 -268.5t-378.5 -96.5q-131 0 -248 38t-197 106q-94 82 -137 197.5t-43 289.5v881h399v-871q0 -84 21 -149q22 -59 78.5 -96t126.5 -37q88 0 151 53q40 34 56 86t16 143v871zM455 1642l-113 148l346 270h131l342 -264 l-117 -149l-288 161z" />
<glyph unicode="&#xdc;" horiz-adv-x="1425" d="M88 596v881h195q-19 47 -19 77q0 86 56 141.5t141 55.5q87 0 141.5 -54.5t54.5 -140.5q0 -113 -90 -165q-32 -20 -80 -29v-756q0 -84 21 -149q22 -59 78.5 -96t126.5 -37q85 0 151 53q39 32 55.5 84.5t16.5 144.5v756q-78 14 -124 66t-46 128q0 83 56 139t141 56 q86 0 143 -56t57 -141q0 -32 -18 -77h190v-881q0 -169 -32 -266q-56 -172 -211.5 -268.5t-378.5 -96.5q-131 0 -248 38t-197 106q-94 82 -137 197.5t-43 289.5z" />
<glyph unicode="&#xdf;" horiz-adv-x="1277" d="M473 0h-385v1253q0 195 147 316t383 121q232 0 377.5 -116.5t145.5 -305.5q0 -110 -52 -194.5t-149 -137.5q147 -49 223 -161t76 -277q0 -209 -117 -344q-71 -82 -177 -120t-265 -38q-56 0 -129 6v260q20 -6 49 -6q118 0 179 69.5t61 202.5q0 121 -63 183.5t-185 62.5 h-37v256q18 -4 53 -4q88 0 135.5 45t47.5 127q0 75 -41.5 119.5t-110.5 44.5q-166 0 -166 -219v-1143z" />
<glyph unicode="&#xe0;" horiz-adv-x="1284" d="M817 852v141h373l4 -993h-377v147q-44 -82 -128.5 -127t-192.5 -45q-195 0 -321 146t-126 371q0 227 129.5 380.5t321.5 153.5q102 0 186.5 -46.5t130.5 -127.5zM627 717q-88 0 -144.5 -62t-56.5 -157q0 -92 56 -150.5t145 -58.5q87 0 143.5 60t56.5 153q0 94 -57 154.5 t-143 60.5zM709 1085l-394 246l193 191l338 -289z" />
<glyph unicode="&#xe1;" horiz-adv-x="1284" d="M817 852v141h373l4 -993h-377v147q-44 -82 -128.5 -127t-192.5 -45q-195 0 -321 146t-126 371q0 227 129.5 380.5t321.5 153.5q102 0 186.5 -46.5t130.5 -127.5zM627 717q-88 0 -144.5 -62t-56.5 -157q0 -92 56 -150.5t145 -58.5q87 0 143.5 60t56.5 153q0 94 -57 154.5 t-143 60.5zM637 1090l-139 145l338 287l192 -189z" />
<glyph unicode="&#xe2;" horiz-adv-x="1284" d="M817 852v141h373l4 -993h-377v147q-44 -82 -128.5 -127t-192.5 -45q-195 0 -321 146t-126 371q0 227 129.5 380.5t321.5 153.5q102 0 186.5 -46.5t130.5 -127.5zM627 717q-88 0 -144.5 -62t-56.5 -157q0 -92 56 -150.5t145 -58.5q87 0 143.5 60t56.5 153q0 94 -57 154.5 t-143 60.5zM385 1087l-113 148l346 270h132l342 -264l-117 -149l-289 161z" />
<glyph unicode="&#xe3;" horiz-adv-x="1284" d="M817 852v141h373l4 -993h-377v147q-44 -82 -128.5 -127t-192.5 -45q-195 0 -321 146t-126 371q0 227 129.5 380.5t321.5 153.5q102 0 186.5 -46.5t130.5 -127.5zM627 717q-88 0 -144.5 -62t-56.5 -157q0 -92 56 -150.5t145 -58.5q87 0 143.5 60t56.5 153q0 94 -57 154.5 t-143 60.5zM475 1094l-194 49q62 254 229 254q61 0 147 -37q111 -49 144 -49q69 0 86 80l198 -54q-17 -109 -87 -179.5t-162 -70.5q-79 0 -134 31l-34 19q-83 34 -113 34q-34 0 -54.5 -20t-25.5 -57z" />
<glyph unicode="&#xe4;" horiz-adv-x="1284" d="M289 1323q0 78 54.5 132t131.5 54q78 0 133.5 -54t55.5 -132q0 -77 -55.5 -131.5t-133.5 -54.5q-77 0 -131.5 54.5t-54.5 131.5zM752 1323q0 78 55 132t133 54q77 0 131.5 -54t54.5 -132q0 -77 -55 -131.5t-131 -54.5q-78 0 -133 54.5t-55 131.5zM817 852v141h373l4 -993 h-377v147q-44 -82 -128.5 -127t-192.5 -45q-195 0 -321 146t-126 371q0 227 129.5 380.5t321.5 153.5q102 0 186.5 -46.5t130.5 -127.5zM627 717q-88 0 -144.5 -62t-56.5 -157q0 -92 56 -150.5t145 -58.5q87 0 143.5 60t56.5 153q0 94 -57 154.5t-143 60.5z" />
<glyph unicode="&#xe5;" horiz-adv-x="1284" d="M817 852v141h373l4 -993h-377v147q-44 -82 -128.5 -127t-192.5 -45q-195 0 -321 146t-126 371q0 227 129.5 380.5t321.5 153.5q102 0 186.5 -46.5t130.5 -127.5zM627 717q-88 0 -144.5 -62t-56.5 -157q0 -92 56 -150.5t145 -58.5q87 0 143.5 60t56.5 153q0 94 -57 154.5 t-143 60.5zM416 1296q0 98 73 168t177 70q103 0 176 -70t73 -168t-73.5 -167.5t-177.5 -69.5q-103 0 -175.5 69.5t-72.5 167.5zM664 1380q-34 0 -58 -24.5t-24 -59.5q0 -37 24.5 -62.5t59.5 -25.5q34 0 60 26t26 62q0 35 -26 59.5t-62 24.5z" />
<glyph unicode="&#xe6;" horiz-adv-x="1921" d="M748 594q2 6 2 14q0 193 -248 193q-173 0 -357 -88l-18 260q239 67 399 67q158 0 254 -42.5t166 -145.5q155 186 400 186q256 0 396 -155.5t140 -438.5v-18h-727q12 -100 63.5 -153.5t137.5 -53.5q120 0 174 119l330 -53q-58 -151 -190.5 -234.5t-311.5 -83.5 q-268 0 -424 172q-78 -85 -199.5 -133.5t-253.5 -48.5q-193 0 -312.5 97t-119.5 251q0 157 114 251.5t304 94.5q71 0 132.5 -13t148.5 -44zM1348 809q-80 0 -129 -55.5t-52 -149.5h361q0 92 -50 148.5t-130 56.5zM377 317v-10q5 -50 52.5 -78t131.5 -28q86 0 139.5 33.5 t53.5 87.5q0 51 -53.5 80.5t-147.5 29.5q-81 0 -128.5 -31t-47.5 -84z" />
<glyph unicode="&#xe7;" horiz-adv-x="876" d="M838 973v-352q-96 86 -193 86q-94 0 -152.5 -59t-58.5 -154q0 -92 58 -151.5t147 -59.5q101 0 197 77v-337q-38 -17 -62 -21q-50 -17 -84.5 -22t-91.5 -5l113 -88l-250 -305l-170 139l201 259q-205 20 -327 158t-122 349q0 230 150.5 382.5t379.5 152.5q131 0 265 -49z " />
<glyph unicode="&#xe8;" horiz-adv-x="1183" d="M1145 455v-33h-723q3 -99 50.5 -153t133.5 -54q120 0 178 119l336 -62q-60 -146 -195 -227.5t-315 -81.5q-254 0 -407.5 144t-153.5 382q0 239 155 393t396 154q249 0 397 -158t148 -423zM604 793q-76 0 -124.5 -52.5t-53.5 -140.5h346q-2 89 -47 141t-121 52zM635 1085 l-393 246l192 191l338 -289z" />
<glyph unicode="&#xe9;" horiz-adv-x="1183" d="M1145 455v-33h-723q3 -99 50.5 -153t133.5 -54q120 0 178 119l336 -62q-60 -146 -195 -227.5t-315 -81.5q-254 0 -407.5 144t-153.5 382q0 239 155 393t396 154q249 0 397 -158t148 -423zM604 793q-76 0 -124.5 -52.5t-53.5 -140.5h346q-2 89 -47 141t-121 52zM596 1090 l-139 145l338 287l192 -189z" />
<glyph unicode="&#xea;" horiz-adv-x="1183" d="M1145 455v-33h-723q3 -99 50.5 -153t133.5 -54q120 0 178 119l336 -62q-60 -146 -195 -227.5t-315 -81.5q-254 0 -407.5 144t-153.5 382q0 239 155 393t396 154q249 0 397 -158t148 -423zM604 793q-76 0 -124.5 -52.5t-53.5 -140.5h346q-2 89 -47 141t-121 52zM315 1087 l-112 148l346 270h131l342 -264l-117 -149l-289 161z" />
<glyph unicode="&#xeb;" horiz-adv-x="1183" d="M1145 455v-33h-723q3 -99 50.5 -153t133.5 -54q120 0 178 119l336 -62q-60 -146 -195 -227.5t-315 -81.5q-254 0 -407.5 144t-153.5 382q0 239 155 393t396 154q249 0 397 -158t148 -423zM604 793q-76 0 -124.5 -52.5t-53.5 -140.5h346q-2 89 -47 141t-121 52zM197 1266 q0 78 53.5 132t130.5 54q78 0 132 -53.5t54 -130.5t-55 -131t-133 -54q-76 0 -129 54t-53 129zM659 1268q0 77 54.5 130.5t132.5 53.5q75 0 128.5 -54t53.5 -130t-53.5 -130.5t-128.5 -54.5q-78 0 -132.5 54t-54.5 131z" />
<glyph unicode="&#xec;" horiz-adv-x="460" d="M420 0h-377v993h377v-993zM254 1085l-393 246l192 191l338 -289z" />
<glyph unicode="&#xed;" horiz-adv-x="460" d="M420 0h-377v993h377v-993zM240 1090l-140 145l338 287l193 -189z" />
<glyph unicode="&#xee;" horiz-adv-x="460" d="M420 0h-377v993h377v-993zM-51 1087l-113 148l346 270h131l342 -264l-116 -149l-289 161z" />
<glyph unicode="&#xef;" horiz-adv-x="460" d="M420 0h-377v993h377v-993zM-174 1266q0 78 53.5 132t130.5 54q78 0 132.5 -53.5t54.5 -130.5q0 -76 -55.5 -130.5t-133.5 -54.5q-76 0 -129 54t-53 129zM289 1268q0 77 54 130.5t132 53.5q75 0 128.5 -54t53.5 -130t-53.5 -130.5t-128.5 -54.5q-78 0 -132 54t-54 131z " />
<glyph unicode="&#xf1;" horiz-adv-x="1216" d="M469 0h-381v993h375l-8 -157q120 182 321 182q140 0 234 -78q61 -51 87.5 -122.5t26.5 -184.5v-633h-379v524q0 91 -31.5 134.5t-97.5 43.5q-70 0 -108.5 -47t-38.5 -133v-522zM438 1094l-194 49q62 254 229 254q62 0 148 -37q111 -49 143 -49q69 0 86 80l199 -54 q-17 -109 -87.5 -179.5t-162.5 -70.5q-78 0 -133 31l-35 19q-83 34 -113 34q-34 0 -54.5 -20t-25.5 -57z" />
<glyph unicode="&#xf2;" horiz-adv-x="1245" d="M49 496q0 233 161.5 384.5t407.5 151.5q165 0 297 -68t206.5 -190.5t74.5 -275.5q0 -230 -162.5 -381.5t-410.5 -151.5q-249 0 -411.5 151t-162.5 380zM623 711q-87 0 -146 -61.5t-59 -151.5t59 -151.5t146 -61.5q86 0 143 61t57 152q0 92 -57 152.5t-143 60.5zM666 1085 l-394 246l193 191l338 -289z" />
<glyph unicode="&#xf3;" horiz-adv-x="1245" d="M49 496q0 233 161.5 384.5t407.5 151.5q165 0 297 -68t206.5 -190.5t74.5 -275.5q0 -230 -162.5 -381.5t-410.5 -151.5q-249 0 -411.5 151t-162.5 380zM623 711q-87 0 -146 -61.5t-59 -151.5t59 -151.5t146 -61.5q86 0 143 61t57 152q0 92 -57 152.5t-143 60.5zM616 1090 l-139 145l338 287l193 -189z" />
<glyph unicode="&#xf4;" horiz-adv-x="1245" d="M49 496q0 233 161.5 384.5t407.5 151.5q165 0 297 -68t206.5 -190.5t74.5 -275.5q0 -230 -162.5 -381.5t-410.5 -151.5q-249 0 -411.5 151t-162.5 380zM623 711q-87 0 -146 -61.5t-59 -151.5t59 -151.5t146 -61.5q86 0 143 61t57 152q0 92 -57 152.5t-143 60.5zM350 1087 l-112 148l346 270h131l342 -264l-117 -149l-289 161z" />
<glyph unicode="&#xf5;" horiz-adv-x="1245" d="M49 496q0 233 161.5 384.5t407.5 151.5q165 0 297 -68t206.5 -190.5t74.5 -275.5q0 -230 -162.5 -381.5t-410.5 -151.5q-249 0 -411.5 151t-162.5 380zM623 711q-87 0 -146 -61.5t-59 -151.5t59 -151.5t146 -61.5q86 0 143 61t57 152q0 92 -57 152.5t-143 60.5zM455 1094 l-195 49q62 254 229 254q62 0 148 -37q111 -49 143 -49q69 0 86 80l199 -54q-17 -109 -87.5 -179.5t-162.5 -70.5q-78 0 -133 31l-35 19q-83 34 -112 34q-34 0 -54.5 -20t-25.5 -57z" />
<glyph unicode="&#xf6;" horiz-adv-x="1245" d="M49 496q0 233 161.5 384.5t407.5 151.5q165 0 297 -68t206.5 -190.5t74.5 -275.5q0 -230 -162.5 -381.5t-410.5 -151.5q-249 0 -411.5 151t-162.5 380zM623 711q-87 0 -146 -61.5t-59 -151.5t59 -151.5t146 -61.5q86 0 143 61t57 152q0 92 -57 152.5t-143 60.5zM236 1309 q0 78 53.5 132t130.5 54q78 0 132 -53.5t54 -130.5t-55 -131t-133 -54q-76 0 -129 54t-53 129zM698 1311q0 77 54.5 130.5t132.5 53.5q75 0 128.5 -54t53.5 -130t-53.5 -130.5t-128.5 -54.5q-78 0 -132.5 54t-54.5 131z" />
<glyph unicode="&#xf7;" horiz-adv-x="1216" d="M479 289q38 35 84 35q49 0 82 -33t33 -84q0 -50 -35 -82q-30 -35 -80 -35q-49 0 -84 35q-33 38 -33 82q0 49 33 82zM88 553h948v-139h-948v139zM479 840q34 31 84 34q50 0 80 -34q35 -35 35 -82q0 -50 -35 -82q-30 -35 -80 -35q-49 0 -84 35q-33 33 -33 82t33 82z" />
<glyph unicode="&#xf8;" horiz-adv-x="1249" d="M111 -37l-62 62l133 129q-36 36 -47 55q-86 116 -86 287q0 233 162.5 384.5t411.5 151.5q103 0 219 -37q64 -22 162 -92l137 123l59 -68l-129 -116q11 -13 24.5 -31.5t18.5 -24.5q82 -125 82 -288q0 -152 -73.5 -273.5t-204.5 -190.5t-295 -69q-111 0 -217 37 q-74 27 -158 84zM801 596l-293 -274q53 -37 117 -37q84 0 142 61.5t58 149.5q0 53 -24 100zM449 393l294 275q-27 25 -51.5 34t-64.5 9q-87 0 -146 -60.5t-59 -150.5q0 -34 27 -107z" />
<glyph unicode="&#xf9;" horiz-adv-x="1212" d="M743 993h381v-553q0 -152 -43 -237q-54 -105 -183 -167.5t-292 -62.5q-199 0 -350 99q-88 59 -128 145t-40 223v553h381v-538q0 -166 137 -166t137 166v538zM639 1085l-393 246l192 191l338 -289z" />
<glyph unicode="&#xfa;" horiz-adv-x="1212" d="M743 993h381v-553q0 -152 -43 -237q-54 -105 -183 -167.5t-292 -62.5q-199 0 -350 99q-88 59 -128 145t-40 223v553h381v-538q0 -166 137 -166t137 166v538zM621 1090l-140 145l338 287l193 -189z" />
<glyph unicode="&#xfb;" horiz-adv-x="1212" d="M743 993h381v-553q0 -152 -43 -237q-54 -105 -183 -167.5t-292 -62.5q-199 0 -350 99q-88 59 -128 145t-40 223v553h381v-538q0 -166 137 -166t137 166v538zM324 1087l-113 148l346 270h131l342 -264l-117 -149l-288 161z" />
<glyph unicode="&#xfc;" horiz-adv-x="1212" d="M199 1323q0 78 54.5 132t131.5 54q78 0 133 -54t55 -132q0 -77 -55 -131.5t-133 -54.5q-77 0 -131.5 54.5t-54.5 131.5zM662 1323q0 78 55 132t133 54q76 0 131 -54.5t55 -131.5q0 -76 -55.5 -131t-130.5 -55q-78 0 -133 54.5t-55 131.5zM743 993h381v-553 q0 -152 -43 -237q-54 -105 -183 -167.5t-292 -62.5q-199 0 -350 99q-88 59 -128 145t-40 223v553h381v-538q0 -166 137 -166t137 166v538z" />
<glyph unicode="&#xff;" horiz-adv-x="1054" d="M354 80l-432 913h416l158 -424q20 -54 28 -96t15 -117q4 71 12.5 110.5t30.5 102.5l151 424h402l-625 -1460h-408zM152 1266q0 78 53.5 132t130.5 54q78 0 132 -53.5t54 -130.5t-55 -131t-133 -54q-76 0 -129 54t-53 129zM614 1268q0 77 54.5 130.5t132.5 53.5 q75 0 128.5 -54t53.5 -130t-53.5 -130.5t-128.5 -54.5q-78 0 -132.5 54t-54.5 131z" />
<glyph unicode="&#x152;" horiz-adv-x="2199" d="M1249 1305v172h879v-324h-483v-246h464v-315h-467v-262h492v-330h-889v170q-6 -6 -14 -15t-14 -15t-13 -11q-72 -67 -194 -109.5t-242 -42.5q-145 0 -278.5 60.5t-230 162t-153.5 242t-57 293.5q0 208 98 386.5t265.5 283t363.5 104.5q89 0 191 -28.5t170 -71.5 q56 -37 112 -104zM852 1124q-163 0 -274 -111t-111 -274q0 -166 108 -276.5t271 -110.5t272 110t109 275q0 166 -107.5 276.5t-267.5 110.5z" />
<glyph unicode="&#x153;" horiz-adv-x="1914" d="M979 889q139 145 362 145q235 0 384 -156.5t149 -402.5q0 -30 -2 -59h-727q31 -203 198 -203q117 0 175 123l340 -51q-64 -152 -199.5 -238t-310.5 -86q-143 0 -234 43q-72 35 -139 102q-32 -29 -41 -34q-62 -47 -148 -74t-178 -27q-156 0 -284.5 69t-201.5 190t-73 268 q0 231 157.5 383.5t395.5 152.5q232 0 377 -145zM1337 799q-76 0 -125.5 -52.5t-58.5 -144.5h360q-3 92 -50.5 144.5t-125.5 52.5zM623 719q-86 0 -144.5 -64t-58.5 -159q0 -89 57.5 -151t140.5 -62q88 0 146.5 62.5t58.5 156.5q0 95 -56.5 156t-143.5 61z" />
<glyph unicode="&#x178;" horiz-adv-x="1204" d="M399 676l-487 801h461l168 -312q23 -47 30 -69q24 -68 31 -160q6 81 31 160q10 27 31 69l167 312h461l-485 -801v-676h-408v676zM209 1821q0 78 53.5 132t130.5 54q78 0 132.5 -53.5t54.5 -130.5q0 -76 -55.5 -130.5t-133.5 -54.5q-76 0 -129 54t-53 129zM672 1823 q0 77 54 130.5t132 53.5q75 0 128.5 -54t53.5 -130t-53.5 -130.5t-128.5 -54.5q-78 0 -132 54t-54 131z" />
<glyph unicode="&#x2c6;" horiz-adv-x="792" d="M100 1087l-112 148l346 270h131l342 -264l-117 -149l-289 161z" />
<glyph unicode="&#x2dc;" horiz-adv-x="780" d="M182 1094l-194 49q62 254 229 254q62 0 148 -37q111 -49 143 -49q69 0 86 80l199 -54q-17 -109 -87.5 -179.5t-162.5 -70.5q-78 0 -133 31l-35 19q-83 34 -113 34q-34 0 -54.5 -20t-25.5 -57z" />
<glyph unicode="&#x2000;" horiz-adv-x="1038" />
<glyph unicode="&#x2001;" horiz-adv-x="2077" />
<glyph unicode="&#x2002;" horiz-adv-x="1038" />
<glyph unicode="&#x2003;" horiz-adv-x="2077" />
<glyph unicode="&#x2004;" horiz-adv-x="692" />
<glyph unicode="&#x2005;" horiz-adv-x="519" />
<glyph unicode="&#x2006;" horiz-adv-x="346" />
<glyph unicode="&#x2007;" horiz-adv-x="346" />
<glyph unicode="&#x2008;" horiz-adv-x="259" />
<glyph unicode="&#x2009;" horiz-adv-x="415" />
<glyph unicode="&#x200a;" horiz-adv-x="115" />
<glyph unicode="&#x2010;" horiz-adv-x="737" d="M700 326h-663v336h663v-336z" />
<glyph unicode="&#x2011;" horiz-adv-x="737" d="M700 326h-663v336h663v-336z" />
<glyph unicode="&#x2012;" horiz-adv-x="737" d="M700 326h-663v336h663v-336z" />
<glyph unicode="&#x2013;" d="M1212 606h-1067v264h1067v-264z" />
<glyph unicode="&#x2014;" horiz-adv-x="2039" d="M1978 561h-1917v352h1917v-352z" />
<glyph unicode="&#x2018;" horiz-adv-x="604" d="M383 797h-395l327 680h260z" />
<glyph unicode="&#x2019;" horiz-adv-x="606" d="M250 797h-262l198 680h392z" />
<glyph unicode="&#x201a;" horiz-adv-x="606" d="M242 -229h-265l199 673h393z" />
<glyph unicode="&#x201c;" horiz-adv-x="1089" d="M391 797h-403l329 680h265zM868 797h-405l332 680h264z" />
<glyph unicode="&#x201d;" horiz-adv-x="1091" d="M252 797h-264l196 680h400zM731 797h-268l199 680h399z" />
<glyph unicode="&#x201e;" horiz-adv-x="1089" d="M246 -229h-269l197 673h401zM721 -229h-264l196 673h402z" />
<glyph unicode="&#x2022;" horiz-adv-x="548" d="M37 508q0 91 69.5 154t167.5 63q100 0 170 -63t70 -154q0 -90 -70 -152.5t-170 -62.5q-99 0 -168 62.5t-69 152.5z" />
<glyph unicode="&#x2026;" horiz-adv-x="2039" d="M121 193q0 91 64.5 156t156.5 65t156.5 -65t64.5 -156q0 -92 -64.5 -157t-156.5 -65t-156.5 65t-64.5 157zM803 193q0 91 64.5 156t156.5 65t156.5 -65t64.5 -156q0 -92 -64.5 -157t-156.5 -65t-156.5 65t-64.5 157zM1485 193q0 91 64.5 156t156.5 65t156.5 -65 t64.5 -156q0 -92 -64.5 -157t-156.5 -65t-156.5 65t-64.5 157z" />
<glyph unicode="&#x202f;" horiz-adv-x="415" />
<glyph unicode="&#x2039;" horiz-adv-x="612" d="M373 27l-330 503l346 490l184 -137l-251 -355l249 -366z" />
<glyph unicode="&#x203a;" horiz-adv-x="620" d="M236 27l-193 139l254 371l-252 346l191 139l344 -481z" />
<glyph unicode="&#x205f;" horiz-adv-x="519" />
<glyph unicode="&#x20ac;" horiz-adv-x="1484" d="M1108 688l-61 -141h-385q46 -97 135 -154t200 -57q85 0 158 35t125 98v-457q-133 -45 -283 -45q-289 0 -497 160t-269 420h-192l59 141h113q-2 16 -2 47q0 9 1 26.5t1 26.5h-172l59 142h133q62 259 269.5 417t496.5 158q251 0 445 -123l-160 -381q-113 136 -285 136 q-109 0 -197 -56t-136 -151h544l-59 -142h-526q-5 -40 -5 -53q0 -8 1.5 -23.5t1.5 -23.5h487z" />
<glyph unicode="&#x2122;" horiz-adv-x="1554" d="M209 1337l-150 -2v140h455v-140l-152 2v-600h-153v600zM637 737h-148l121 738h152l131 -357q24 -64 31.5 -99.5t9.5 -84.5q2 48 10 85.5t31 98.5l131 357h154l118 -738h-147l-62 391q-4 22 -6 54t2 98q-4 -19 -13 -51t-13 -47l-11 -39l-6 -15l-141 -391h-94l-142 391 l-4 15l-12 39q-19 62 -27 98q6 -49 3 -98q-1 -20 -7 -54z" />
<glyph unicode="&#x25fc;" horiz-adv-x="993" d="M0 993h993v-993h-993v993z" />
</font>
</defs>
</svg>
