<?xml version="1.0" standalone="no"?>
<!DOCTYPE svg PUBLIC "-//W3C//DTD SVG 1.1//EN" "http://www.w3.org/Graphics/SVG/1.1/DTD/svg11.dtd" >
<svg xmlns="http://www.w3.org/2000/svg">
<metadata></metadata>
<defs>
<font id="limerick_serialmedium" horiz-adv-x="608" >
<font-face units-per-em="1000" ascent="800" descent="-200" />
<missing-glyph horiz-adv-x="290" />
<glyph horiz-adv-x="0" />
<glyph horiz-adv-x="0" />
<glyph horiz-adv-x="333" />
<glyph unicode="&#xd;" horiz-adv-x="290" />
<glyph unicode=" "  horiz-adv-x="290" />
<glyph unicode="&#x09;" horiz-adv-x="290" />
<glyph unicode="&#xa0;" horiz-adv-x="290" />
<glyph unicode="!" horiz-adv-x="228" d="M38 67q0 32 23.5 56t56.5 24t56.5 -24t23.5 -56q0 -33 -23.5 -56.5t-56.5 -23.5t-56.5 23.5t-23.5 56.5zM174 202h-112v519h112v-519z" />
<glyph unicode="&#x22;" horiz-adv-x="397" d="M68 428h-78l77 293h132zM246 428h-77l76 293h132z" />
<glyph unicode="#" horiz-adv-x="581" d="M178 220h-115l11 54h116l36 172h-115l11 54h116l44 209h54l-44 -209h100l45 209h54l-45 -209h116l-12 -54h-115l-37 -172h116l-12 -54h-115l-44 -209h-54l44 209h-101l-44 -209h-54zM280 446l-36 -172h100l37 172h-101z" />
<glyph unicode="$" horiz-adv-x="484" d="M3 84l79 89q29 -38 58.5 -56t75.5 -24v222q-62 26 -102 54q-38 28 -60 69.5t-22 87.5q0 82 53 141t131 65v67h46v-66q5 0 14.5 0.5t12.5 0.5q83 0 152 -78l-70 -85q-26 32 -49.5 45t-54.5 13h-5v-204q56 -20 98 -42q98 -54 98 -173q0 -91 -52.5 -151t-143.5 -72v-73h-46 v70q-43 0 -80 10q-44 13 -73.5 33t-59.5 57zM262 294v-189q28 8 47.5 34t19.5 59t-18 59t-49 37zM212 446l4 -2v171q-25 -11 -40.5 -34t-15.5 -48q0 -45 24 -67q13 -10 28 -20z" />
<glyph unicode="%" horiz-adv-x="890" d="M251 -46l-78 46l466 766l77 -46zM28 548q0 80 56 137t135 57t135 -56.5t56 -136.5t-56 -136.5t-135 -56.5t-135 56.5t-56 135.5zM478 171q0 80 56 136t135 56q80 0 136.5 -56t56.5 -136t-56.5 -136.5t-136.5 -56.5q-79 0 -135 56.5t-56 136.5zM219 648q-40 0 -67 -29 t-27 -71t27 -70t67 -28t66.5 28t26.5 71q0 42 -26.5 70.5t-66.5 28.5zM669 269q-41 0 -68 -28t-27 -70t27.5 -70.5t67.5 -28.5q41 0 68.5 28.5t27.5 70.5t-27.5 70t-68.5 28z" />
<glyph unicode="&#x26;" horiz-adv-x="667" d="M536 0l-82 103l-69 -53q-83 -64 -160 -64q-82 0 -136.5 54.5t-54.5 135.5t51 129q2 1 5.5 4t15.5 12t32 23l43 30l35 24l-5 6q-6 7 -17.5 21t-15.5 19q-34 49 -34 110q0 79 52.5 131t132.5 52q75 0 126.5 -47t51.5 -117q0 -69 -42 -116q-30 -34 -94 -78l109 -137l98 86 l68 -86l-102 -79l131 -163h-139zM326 138l62 44l-109 136l-53 -36q-34 -23 -35 -24q-12 -9 -20 -18q-27 -27 -27 -64q0 -36 22 -59t57 -23q41 0 103 44zM257 556q0 -44 51 -100l29 23l34 27q29 24 29 56q0 30 -21 51.5t-50 21.5q-31 0 -51.5 -22.5t-20.5 -56.5z" />
<glyph unicode="'" horiz-adv-x="218" d="M68 428h-78l77 293h132z" />
<glyph unicode="(" horiz-adv-x="296" d="M208 859l93 -25q-47 -66 -71 -111q-88 -163 -88 -365q0 -120 36 -242q19 -61 42.5 -107t76.5 -125l-94 -25q-53 82 -73 120q-44 85 -71 187.5t-27 188.5q0 111 44 245q24 72 50 123t82 136z" />
<glyph unicode=")" horiz-adv-x="291" d="M89 -137l-93 23q51 77 68 109q90 167 90 369q0 120 -37 240q-20 63 -43 109t-74 122l92 26q53 -84 72 -122q44 -86 69 -189.5t25 -197.5q0 -117 -36 -236q-21 -69 -47.5 -120t-85.5 -133z" />
<glyph unicode="*" horiz-adv-x="348" d="M132 570l-113 55l32 51l100 -65l-6 122h58l-6 -127l101 70l30 -50l-106 -56l106 -52l-29 -52l-102 66l6 -121h-54v121l-99 -66l-29 50z" />
<glyph unicode="+" d="M255 316h-183v89h183v186h97v-186h183v-89h-183v-187h-97v187z" />
<glyph unicode="," horiz-adv-x="218" d="M68 -91h-78l77 291h132z" />
<glyph unicode="-" horiz-adv-x="334" d="M315 179h-296v101h296v-101z" />
<glyph unicode="." horiz-adv-x="199" d="M19 67q0 32 23.5 56t56.5 24t56.5 -23.5t23.5 -56.5t-23 -56.5t-57 -23.5q-33 0 -56.5 23.5t-23.5 56.5z" />
<glyph unicode="/" horiz-adv-x="461" d="M120 -3h-101l322 726h100z" />
<glyph unicode="0" d="M25 359q0 169 61 262q35 53 93.5 83.5t124.5 30.5t124.5 -30.5t92.5 -83.5q62 -97 62 -261q0 -165 -62 -262q-34 -52 -92.5 -83t-124.5 -31t-125 30.5t-93 83.5q-61 93 -61 261zM181 555q-35 -64 -35 -196q0 -129 35 -195q17 -34 51 -54t72 -20t72 20.5t51 53.5 q35 66 35 195q0 133 -35 196q-18 33 -51.5 53.5t-71.5 20.5t-72 -20.5t-51 -53.5z" />
<glyph unicode="1" d="M374 0h-119v626h-99v95h218v-721z" />
<glyph unicode="2" d="M548 0h-507l283 338q86 103 86 180q0 56 -36 92t-91 36q-53 0 -87 -35.5t-34 -92.5q0 -3 0.5 -6.5t1 -9t0.5 -10.5h-121q-2 26 -2 34q0 94 68.5 155.5t171.5 61.5q112 0 183 -64t71 -164q0 -116 -99 -224l-179 -196h291v-95z" />
<glyph unicode="3" d="M50 195h115q7 -55 41.5 -85t87.5 -30q56 0 92.5 35t36.5 89q0 58 -40.5 91t-111.5 33h-9v95q7 -1 22 -1q58 0 92 30t34 82q0 48 -33 79.5t-83 31.5t-80 -30t-31 -79h-114q5 95 66 147.5t164 52.5t167.5 -54.5t64.5 -140.5q0 -55 -28.5 -95.5t-78.5 -60.5q57 -17 90.5 -66 t33.5 -115q0 -100 -68.5 -160.5t-180.5 -60.5q-110 0 -176 56t-73 156z" />
<glyph unicode="4" d="M364 171h-347l462 580v-489h97l1 -91h-98v-171h-115v171zM342 421l-96 -129q-13 -18 -57 -49q44 19 75 19h104v148q0 41 11 84q-22 -52 -37 -73z" />
<glyph unicode="5" d="M63 59l21 114q83 -88 182 -88q69 0 114 42.5t45 107.5t-47.5 105.5t-126.5 40.5q-62 0 -141 -34l73 374h321v-99h-238l-36 -159q28 8 65 8q110 0 179.5 -65t69.5 -170q0 -112 -76.5 -183.5t-195.5 -71.5q-115 0 -209 78z" />
<glyph unicode="6" d="M429 721l-214 -296q64 43 133 43q95 0 159 -65.5t64 -162.5q0 -111 -76 -184t-191 -73q-116 0 -190.5 70t-75.5 177q0 88 42 169q21 39 45 75l159 247h145zM309 379q-64 0 -106.5 -43t-42.5 -108q0 -61 42.5 -103t103.5 -42q64 0 106.5 43.5t42.5 108.5q0 62 -42 103 t-104 41z" />
<glyph unicode="7" d="M181 0h-132l319 584q15 28 36 48q-30 -11 -67 -11h-279v100h516z" />
<glyph unicode="8" d="M186 378q-50 19 -77.5 60.5t-27.5 97.5q0 86 64 143t161 57q92 0 156 -57.5t64 -142.5q0 -56 -28 -97.5t-79 -60.5q58 -19 92.5 -68t34.5 -113q0 -91 -70 -153t-173 -62t-172 62t-69 154q0 63 33 110.5t91 69.5zM186 200v-8q0 -46 34.5 -78t82.5 -32q50 0 82.5 34 t32.5 87q0 52 -33 87t-82 35q-50 0 -83.5 -36t-33.5 -89zM303 640q-44 0 -75.5 -29.5t-31.5 -73.5v-5q0 -47 30.5 -78.5t76.5 -31.5q45 0 76 31.5t31 77.5q0 45 -31.5 77t-75.5 32z" />
<glyph unicode="9" d="M174 0l215 292q-10 -8 -27 -17q-46 -24 -106 -24q-95 0 -157 64.5t-62 163.5q0 111 75.5 183.5t190.5 72.5q117 0 192.5 -72t75.5 -185q0 -104 -89 -235l-167 -243h-141zM301 636q-63 0 -106 -42.5t-43 -105.5v-7q0 -61 42 -102t104 -41q64 0 105.5 42.5t41.5 107.5 q0 63 -41 105.5t-103 42.5z" />
<glyph unicode=":" horiz-adv-x="214" d="M36 67q0 33 23 56.5t56 23.5t56.5 -24t23.5 -56q0 -33 -23.5 -56.5t-56.5 -23.5t-56 23.5t-23 56.5zM36 382q0 33 23 56.5t56 23.5q32 0 55.5 -23.5t23.5 -56.5t-23.5 -56t-55.5 -23q-33 0 -56 23t-23 56z" />
<glyph unicode=";" horiz-adv-x="236" d="M83 -91h-78l77 291h132zM56 382q0 33 23.5 56.5t56.5 23.5q34 0 57 -23.5t23 -56.5t-23 -56t-57 -23q-33 0 -56.5 23t-23.5 56z" />
<glyph unicode="&#x3c;" horiz-adv-x="263" d="M168 37l-149 216l156 216l68 -52l-123 -165l121 -163z" />
<glyph unicode="=" d="M542 237h-476v94h476v-94zM542 390h-476v94h476v-94z" />
<glyph unicode="&#x3e;" horiz-adv-x="266" d="M89 37l-70 54l128 166l-125 160l71 53l153 -211z" />
<glyph unicode="?" horiz-adv-x="490" d="M157 67q0 33 23.5 56.5t56.5 23.5t56.5 -24t23.5 -56q0 -33 -23.5 -56.5t-56.5 -23.5q-34 0 -57 23.5t-23 56.5zM123 523h-110q2 101 63.5 161.5t162.5 60.5q103 0 169.5 -64.5t66.5 -163.5q0 -88 -49 -145t-132 -66v-102h-113v195q24 -4 41 -4q61 0 99 34.5t38 89.5 t-33.5 89t-88.5 34q-52 0 -83 -32t-31 -87z" />
<glyph unicode="@" horiz-adv-x="782" d="M456 229q-6 -18 -20 -34q-54 -65 -131 -32q-85 38 -78 178q2 24 4 35q13 93 66 155q52 58 111 57.5t86 -51.5q3 -5 5 -10l9 54h49l-37 -213l-13 -85q-6 -39 1 -63q5 -17 21.5 -24.5t33.5 -1.5q21 8 55 45q41 48 54 131q23 149 -65 239.5t-229 70.5q-119 -18 -193.5 -120 t-61.5 -240q8 -81 46.5 -145.5t95 -98t126 -42t138.5 22.5q73 30 130 92q12 12 25 30l18 -43q-16 -20 -25 -29q-115 -121 -268 -121q-157 0 -259 114t-92 284q9 157 121 257q88 79 197 91q111 13 198.5 -33t128.5 -137t21 -202q-23 -126 -101 -185q-54 -37 -102.5 -27.5 t-61.5 52.5q-3 10 -3 29zM286 291q3 -39 13 -61q14 -29 47 -34.5t57 17.5q23 23 45 86q9 25 19 73l1 10l7 42q5 33 2 58q-5 36 -33 52.5t-59 3.5q-26 -11 -44 -35.5t-36 -75.5q-7 -21 -12 -48q-9 -49 -7 -88z" />
<glyph unicode="A" horiz-adv-x="624" d="M94 0h-131l349 747l349 -747h-130l-70 160h-298zM283 428l-73 -166h204l-73 166q-17 38 -22 60t-7 69q-3 -60 -16 -96q-6 -18 -13 -33z" />
<glyph unicode="B" horiz-adv-x="575" d="M317 0h-259v721h224q99 0 154.5 -48.5t55.5 -134.5q0 -106 -95 -151q76 -13 117 -59.5t41 -119.5q0 -93 -61 -152q-59 -56 -177 -56zM279 322h-103v-226h106q147 0 147 117q0 41 -23 69.5t-62 35.5q-21 4 -65 4zM263 623h-87v-201h96q43 0 69.5 27.5t26.5 73.5t-29 73 t-76 27z" />
<glyph unicode="C" horiz-adv-x="610" d="M592 683v-146q-85 84 -190 84t-177.5 -76t-72.5 -186q0 -111 73.5 -186.5t180.5 -75.5q101 0 186 79v-138l-13 -6q-35 -16 -54 -24q-51 -21 -116 -21q-161 0 -270 106.5t-109 264.5q0 159 110 268t270 109q52 0 89.5 -10.5t92.5 -41.5z" />
<glyph unicode="D" horiz-adv-x="669" d="M286 0h-228v721h210q119 0 190 -32q86 -38 133 -122.5t47 -200.5q0 -118 -48 -207t-133 -129q-66 -30 -171 -30zM274 614h-96v-508h88q119 0 182.5 66.5t63.5 191.5q0 159 -102 221q-50 29 -136 29z" />
<glyph unicode="E" horiz-adv-x="477" d="M436 0h-378v721h378v-107h-260v-191h254v-106h-254v-211h260v-106z" />
<glyph unicode="F" horiz-adv-x="429" d="M176 0h-118v721h366v-107h-248v-195h242v-105h-242v-314z" />
<glyph unicode="G" horiz-adv-x="782" d="M718 574l-89 -83q-87 137 -221 137q-106 0 -178.5 -79.5t-72.5 -194.5q0 -113 71 -186.5t180 -73.5q90 0 150 50.5t66 130.5h-206v106h340q1 -10 1 -19q0 -174 -95 -276.5t-256 -102.5q-163 0 -270.5 105.5t-107.5 265.5q0 163 108.5 273.5t267.5 110.5q152 0 259 -101 q27 -27 53 -63z" />
<glyph unicode="H" horiz-adv-x="681" d="M175 0h-117v720l118 1v-303h329v303l118 -1v-720h-118v320h-330v-320z" />
<glyph unicode="I" horiz-adv-x="235" d="M176 0h-118v721l118 -1v-720z" />
<glyph unicode="J" horiz-adv-x="388" d="M-41 107l97 71q4 -43 26 -68.5t57 -25.5q36 0 56 25q10 13 13 30t3 61v521h119v-549q0 -93 -46.5 -141t-136.5 -48q-144 0 -188 124z" />
<glyph unicode="K" horiz-adv-x="594" d="M176 0h-118v721h118v-263q0 -22 -1 -33q-3 -28 -11 -64q17 36 31 54q5 8 21 26l239 280h146l-306 -352l344 -369h-159l-255 286l-49 -56v-230z" />
<glyph unicode="L" horiz-adv-x="402" d="M398 0h-340v721h118v-615h222v-106z" />
<glyph unicode="M" horiz-adv-x="886" d="M128 0h-123l171 749l236 -461q13 -26 16 -34q11 -29 15 -76q2 38 7.5 57.5t23.5 54.5l235 459l172 -749h-122l-78 363q-9 42 -9 61q0 6 4 42q-9 -30 -21 -66q-9 -25 -12 -31l-200 -398l-201 400q-5 10 -12 31q-13 39 -19 64q3 -27 3 -42q0 -20 -9 -61z" />
<glyph unicode="N" horiz-adv-x="765" d="M176 0h-118v748l480 -456q21 -21 27 -31q20 -29 33 -64q-8 72 -8 77q-1 15 -1 42v405h118v-752l-478 457q-12 12 -26 31q-22 29 -47 71q20 -56 20 -86v-40v-402z" />
<glyph unicode="O" horiz-adv-x="817" d="M30 360q0 159 109.5 267.5t269.5 108.5t269 -108.5t109 -267.5t-109 -267.5t-269 -108.5q-159 0 -269 108.5t-110 267.5zM409 622q-107 0 -182 -76.5t-75 -185.5t75 -185.5t182 -76.5t181.5 76.5t74.5 185.5t-74.5 185.5t-181.5 76.5z" />
<glyph unicode="P" horiz-adv-x="512" d="M177 0h-119v721h228q100 0 158.5 -57.5t58.5 -154.5q0 -71 -32.5 -125.5t-88.5 -76.5q-41 -17 -118 -17h-87v-290zM262 622h-86v-236h63q140 0 140 123q0 54 -30.5 83.5t-86.5 29.5z" />
<glyph unicode="Q" horiz-adv-x="817" d="M668 83l82 -80l-92 -86l-81 104q-6 -3 -14 -6t-13 -5t-8 -4q-69 -23 -139 -23q-154 0 -263.5 110.5t-109.5 266.5q0 158 110.5 267.5t268.5 109.5t268 -109.5t110 -267.5q0 -73 -29 -146q-15 -37 -33 -63.5t-57 -67.5zM381 281l96 71l117 -177q71 75 71 183 q0 110 -74.5 187.5t-181.5 77.5q-106 0 -181.5 -77t-75.5 -186q0 -112 76 -187.5t187 -75.5q47 0 90 21z" />
<glyph unicode="R" horiz-adv-x="542" d="M176 0h-118v721h214q106 0 168.5 -56.5t62.5 -152.5q0 -82 -47 -135t-134 -69l228 -308h-147l-203 294h-24v-294zM265 618h-90v-234h57q67 0 104.5 32.5t37.5 90.5q0 50 -30 80.5t-79 30.5z" />
<glyph unicode="S" horiz-adv-x="484" d="M3 84l79 89q57 -78 136 -78q49 0 80.5 30.5t31.5 77.5q0 56 -56 89q-3 1 -8 3.5l-7 3.5q-4 3 -17 8q-14 5 -40 16q-57 24 -88 46q-82 60 -82 157q0 90 65 151t160 61q83 0 146 -46q19 -14 38 -36l-70 -85q-48 59 -109 59q-45 0 -73 -27t-28 -70q0 -52 45 -81 q12 -7 62 -28q7 -3 15.5 -6.5t13.5 -5.5t9 -3q43 -20 54 -26q98 -54 98 -173q0 -101 -67.5 -164.5t-174.5 -63.5q-101 0 -173 60q-13 10 -40 42z" />
<glyph unicode="T" horiz-adv-x="422" d="M150 614h-154v107h430v-107h-157v-614h-119v614z" />
<glyph unicode="U" horiz-adv-x="669" d="M493 721h119v-429q0 -89 -20 -144q-27 -76 -97 -121.5t-160 -45.5q-115 0 -193 70q-46 42 -65 97t-19 144v429h118v-446q0 -85 42.5 -134t115.5 -49q74 0 116.5 49t42.5 134v446z" />
<glyph unicode="V" horiz-adv-x="570" d="M284 -30l-327 751h131l170 -410q16 -39 20.5 -61t5.5 -68q2 45 6.5 68t20.5 61l171 410h131z" />
<glyph unicode="W" horiz-adv-x="895" d="M235 -29l-264 749h127l132 -383q4 -10 8 -33q7 -38 8 -92q5 63 11 91q4 22 10 34l181 413l181 -413q5 -12 9 -34q10 -49 11 -91q1 52 8 92q2 8 4.5 19t3.5 14l132 383h127l-265 -749l-188 431q-5 12 -12 37q-9 35 -11 82q-4 -54 -12 -82q-6 -21 -12 -37z" />
<glyph unicode="X" horiz-adv-x="629" d="M128 0h-143l259 378l-233 343h145l122 -190l19 -29q11 -17 18 -49q8 35 17 49l19 29l124 190h143l-233 -343l259 -378h-142l-151 230l-20 31q-11 18 -16 50q-9 -40 -17 -50l-19 -31z" />
<glyph unicode="Y" horiz-adv-x="497" d="M188 347l-232 374h141l117 -195q10 -16 21 -41q7 -19 14 -60q5 37 14 60q6 16 20 41l117 195h142l-232 -374v-347h-122v347z" />
<glyph unicode="Z" horiz-adv-x="563" d="M546 0h-554l349 565q10 21 44 64q-36 -10 -74 -10h-280v102h535l-348 -571q-11 -18 -50 -62q39 11 81 11h297v-99z" />
<glyph unicode="[" horiz-adv-x="235" d="M238 -75h-194v871h194v-74h-83v-723h83v-74z" />
<glyph unicode="\" horiz-adv-x="302" d="M169 0l-126 720h90l126 -720h-90z" />
<glyph unicode="]" horiz-adv-x="235" d="M-3 -75v74h83v723h-83v74h193v-871h-193z" />
<glyph unicode="^" horiz-adv-x="307" d="M44 509l-54 62l145 131h31l151 -128l-53 -63l-109 98z" />
<glyph unicode="_" horiz-adv-x="446" d="M403 -32h-360v32h360v-32z" />
<glyph unicode="`" horiz-adv-x="236" d="M144 507l-150 138l85 57l121 -157z" />
<glyph unicode="a" horiz-adv-x="588" d="M419 383v80h111v-463h-112v85q-43 -96 -164 -96q-97 0 -160.5 67.5t-63.5 171.5q0 105 65 177.5t160 72.5q113 0 164 -95zM282 379q-59 0 -98 -42t-39 -105q0 -62 39 -103t98 -41t99.5 42t40.5 104q0 61 -40.5 103t-99.5 42z" />
<glyph unicode="b" horiz-adv-x="589" d="M169 0h-111v822h113v-436q19 43 61.5 68.5t97.5 25.5q97 0 163 -71.5t66 -176.5q0 -104 -64.5 -174t-161.5 -70q-56 0 -100.5 26.5t-63.5 70.5v-85zM302 379q-59 0 -98.5 -42t-39.5 -106q0 -62 39 -102.5t98 -40.5t99 42t40 105q0 62 -39.5 103t-98.5 41z" />
<glyph unicode="c" horiz-adv-x="414" d="M395 450v-125q-34 49 -104 49q-61 0 -100.5 -40.5t-39.5 -104.5q0 -62 38 -103t96 -41q61 0 110 46v-119q-65 -27 -120 -27q-106 0 -175.5 69t-69.5 174q0 108 71 180.5t177 72.5q56 0 117 -31z" />
<glyph unicode="d" horiz-adv-x="588" d="M418 394v428h113v-822h-112v84q-8 -15 -16 -26q-51 -68 -152 -68q-94 0 -157.5 69t-63.5 172q0 104 66.5 175.5t161.5 71.5q108 0 160 -84zM285 379q-57 0 -97 -42t-40 -103q0 -64 39 -105t98 -41t99 42t40 105q0 61 -40 102.5t-99 41.5z" />
<glyph unicode="e" horiz-adv-x="523" d="M499 216v-15h-355q6 -58 40.5 -91t90.5 -33q81 0 128 79l82 -50q-32 -58 -87.5 -89.5t-123.5 -31.5q-107 0 -175.5 68.5t-68.5 175.5q0 108 68.5 180t171.5 72q106 0 167.5 -71.5t61.5 -193.5zM267 396q-48 0 -80 -30t-41 -83h238q-8 54 -38 83.5t-79 29.5z" />
<glyph unicode="f" horiz-adv-x="265" d="M72 369h-58v94h60v193q0 76 27 116q41 57 114 57q31 0 64 -12v-107q-16 12 -34 12q-61 0 -61 -83v-176h93v-94h-93v-369h-112v369z" />
<glyph unicode="g" horiz-adv-x="585" d="M416 384v79h110v-438q0 -80 -11 -124q-19 -76 -78 -117t-149 -41q-110 0 -174.5 49.5t-71.5 138.5h128q4 -40 37 -65t81 -25q59 0 93.5 38.5t34.5 103.5v97q-45 -91 -161 -91q-97 0 -161 67t-64 168q0 104 66 176t160 72q100 0 160 -88zM284 374q-58 0 -98 -42.5 t-40 -104.5t39.5 -103.5t98.5 -41.5t98.5 42t39.5 103q0 62 -40 104.5t-98 42.5z" />
<glyph unicode="h" horiz-adv-x="546" d="M170 0h-112v822h111v-439q24 44 66 69t94 25q74 0 117 -46.5t43 -126.5v-304h-113v252q0 46 -7 67q-9 27 -33.5 43.5t-55.5 16.5q-51 0 -80.5 -35.5t-29.5 -97.5v-246z" />
<glyph unicode="i" horiz-adv-x="236" d="M174 0h-112v463h112v-463zM44 619q0 30 21.5 52t52.5 22q30 0 51.5 -22t21.5 -52q0 -31 -21.5 -52t-51.5 -21q-31 0 -52.5 21t-21.5 52z" />
<glyph unicode="j" horiz-adv-x="235" d="M174 -252h-115v715h115v-715zM43 619q0 30 22 52t52 22t51.5 -22t21.5 -52q0 -31 -21 -52t-52 -21q-30 0 -52 21.5t-22 51.5z" />
<glyph unicode="k" horiz-adv-x="479" d="M172 0h-114v822h114v-479q0 -42 -10 -88q20 39 33 52l19 19l129 137h154l-208 -207l225 -256h-154l-148 181l-40 -39v-142z" />
<glyph unicode="l" horiz-adv-x="228" d="M171 0h-113v822h113v-822z" />
<glyph unicode="m" horiz-adv-x="805" d="M171 0h-113v463h111v-75q48 84 141 84q50 0 85.5 -24.5t50.5 -69.5q54 97 150 97q85 0 127 -66q24 -38 24 -113v-296h-111v245q0 68 -18 94q-23 35 -68 35q-43 0 -66 -28.5t-23 -79.5v-266h-113v269q0 50 -22 76.5t-62 26.5q-52 0 -77 -41q-16 -26 -16 -99v-232z" />
<glyph unicode="n" horiz-adv-x="541" d="M171 0h-113v463h112v-80q48 91 150 91q64 0 111 -38q29 -23 40.5 -55t11.5 -88v-293h-112v258q0 116 -94 116q-50 0 -78 -32t-28 -90v-252z" />
<glyph unicode="o" horiz-adv-x="561" d="M30 230q0 106 72 178t177 72q107 0 179 -71.5t72 -177.5q0 -105 -72 -177t-178 -72q-104 0 -177 72t-73 176zM280 375q-58 0 -98 -42t-40 -102q0 -61 40 -103t99 -42q58 0 97.5 41.5t39.5 103.5q0 61 -39.5 102.5t-98.5 41.5z" />
<glyph unicode="p" horiz-adv-x="589" d="M171 -252h-113v715h111v-87q26 49 69.5 75t96.5 26q94 0 158.5 -71.5t64.5 -175.5q0 -105 -62.5 -174.5t-157.5 -69.5q-116 0 -167 93v-331zM304 374q-58 0 -98 -42t-40 -103q0 -63 39.5 -105t98.5 -42t98.5 42t39.5 104t-39.5 104t-98.5 42z" />
<glyph unicode="q" horiz-adv-x="587" d="M418 384v79h111v-715h-113v330q-50 -93 -164 -93q-95 0 -158.5 70t-63.5 174q0 105 63.5 175t158.5 70q107 0 166 -90zM285 374q-58 0 -98 -42.5t-40 -104.5t39.5 -103.5t97.5 -41.5q59 0 99.5 42t40.5 103q0 63 -40 105t-99 42z" />
<glyph unicode="r" horiz-adv-x="301" d="M171 0h-113v463h112v-80q41 89 138 89q11 0 20 -1l-3 -111q-27 8 -43 8q-111 0 -111 -132v-236z" />
<glyph unicode="s" horiz-adv-x="377" d="M10 94l97 39q8 -28 28.5 -44.5t46.5 -16.5t44 15.5t18 38.5q0 17 -11.5 29t-40.5 23l-27 11q-47 19 -69 33q-64 41 -64 115q0 63 45.5 104.5t112.5 41.5q112 0 153 -96l-97 -31q-11 41 -51 41q-22 0 -36.5 -15t-14.5 -36q0 -19 10 -29q6 -8 11 -10.5t33 -14.5l7 -3 q4 -2 14 -5.5t15 -5.5q44 -16 67 -33q54 -39 54 -108q0 -66 -49.5 -110t-123.5 -44q-131 0 -172 111z" />
<glyph unicode="t" horiz-adv-x="248" d="M11 369v94h52v159h112v-159h89v-94h-90v-369h-111v369h-52z" />
<glyph unicode="u" horiz-adv-x="545" d="M374 463h112v-261q0 -72 -15 -107q-21 -49 -75.5 -78.5t-123.5 -29.5q-90 0 -150 48q-35 27 -49.5 64.5t-14.5 102.5v261h113v-264q0 -53 26.5 -81.5t74.5 -28.5q49 0 75.5 28.5t26.5 81.5v264z" />
<glyph unicode="v" horiz-adv-x="441" d="M221 -28l-251 491h128l97 -204q21 -44 26 -103q4 50 15 76q4 14 10 27l98 204h127z" />
<glyph unicode="w" horiz-adv-x="699" d="M211 -28l-235 491h126l85 -202q8 -17 10 -29q10 -28 15 -71q0 47 11 71q3 9 12 27l115 231l115 -231q9 -18 12 -27q11 -28 11 -71q5 42 15 71q8 27 9 29l86 202h125l-234 -491l-104 204q-1 2 -13 29q-12 30 -23 74q-7 -37 -21 -74q-4 -8 -13 -29z" />
<glyph unicode="x" horiz-adv-x="493" d="M123 0h-139l192 238l-187 225h148l91 -120q12 -15 18 -48q7 32 20 48l90 120h147l-186 -225l192 -238h-139l-103 137q-14 18 -21 51q-6 -32 -20 -51z" />
<glyph unicode="y" horiz-adv-x="444" d="M170 27l-200 436h125l108 -247q20 -45 22 -97q3 48 12 70l12 26l103 248h123l-303 -715h-123z" />
<glyph unicode="z" horiz-adv-x="446" d="M430 0h-427l220 332q8 12 16 20q15 18 45 39q-36 -18 -57 -18h-24h-173l-1 90h414l-220 -332q-11 -15 -15 -20q-16 -18 -46 -39q37 21 57 20l23 -1h188v-91z" />
<glyph unicode="{" horiz-adv-x="325" d="M43 360q28 2 46 21.5t18 50.5v326q0 36 22 56.5t62 20.5h91v-53h-12q-34 0 -45.5 -12t-11.5 -45v-282q0 -36 -27 -61q-21 -19 -48 -22q14 -2 26 -7q49 -24 49 -76v-282q0 -33 11.5 -45t45.5 -12h12v-53h-91q-40 0 -62 20.5t-22 56.5v326q0 31 -18 50.5t-46 21.5z" />
<glyph unicode="|" horiz-adv-x="176" d="M133 0h-90v720h90v-720z" />
<glyph unicode="}" horiz-adv-x="325" d="M134 -115h-91v53h12q34 0 46 12t12 45v282q0 53 49 76q11 5 26 7q-15 2 -26 7q-49 23 -49 76v282q0 33 -12 45t-46 12h-12v53h91q41 0 63 -20.5t22 -56.5v-326q0 -31 18 -50.5t45 -21.5q-27 -2 -45 -21.5t-18 -50.5v-326q0 -36 -22.5 -56.5t-62.5 -20.5z" />
<glyph unicode="~" horiz-adv-x="423" d="M68 770l-78 3q27 134 131 134q25 0 41 -5q3 0 11 -3t14 -5q25 -9 27 -10l22 -8q49 -18 66 -18q21 0 33 9.5t20 33.5l77 -4q-6 -63 -39 -98t-86 -35q-26 0 -39 4q-3 1 -29 8q-5 2 -11 4l-9 3t-5 2l-20 9h-2l-23 8q-18 6 -26 9q-11 3 -23 3q-42 0 -52 -44z" />
<glyph unicode="&#xa1;" horiz-adv-x="228" d="M38 641q0 32 23.5 56t56.5 24t56.5 -24t23.5 -56q0 -33 -23.5 -56.5t-56.5 -23.5t-56.5 23.5t-23.5 56.5zM174 -13h-112v518h112v-518z" />
<glyph unicode="&#xa2;" horiz-adv-x="418" d="M253 475v67h46v-66q29 0 42 -4q36 -11 58 -22v-125q-32 45 -100 49v-291q60 11 99 47v-119l-4 -2q-41 -20 -95 -23v-70h-45v71q-101 7 -162.5 73t-61.5 168q0 104 62.5 173t160.5 74zM253 89v276q-46 -10 -71.5 -47t-25.5 -93q0 -54 25.5 -90t71.5 -46z" />
<glyph unicode="&#xa3;" horiz-adv-x="550" d="M26 1v103q16 4 39 12q52 20 72 49q28 40 28 91q0 17 -5 38h-125v91h89q-48 74 -48 150q0 82 64.5 137.5t161.5 55.5q91 0 153.5 -45.5t80.5 -124.5l-109 -55q-4 58 -35.5 91.5t-82.5 33.5q-49 0 -81 -30t-32 -75q0 -38 18 -71q2 -3 29 -44l15 -23h173v-92h-154 q1 -10 1 -21q0 -17 -2 -27q-5 -28 -12.5 -45.5t-28.5 -41.5q-19 -22 -44 -35q60 -3 93 -14l32 -7q21 -7 52 -7q68 0 113 51l45 -96q-56 -62 -151 -62q-44 0 -117 17l-46 11q-52 13 -86 13q-57 0 -100 -28z" />
<glyph unicode="&#xa4;" horiz-adv-x="494" d="M51 202l-8 10l60 60q-13 17 -21 42q-24 75 21 137l-59 57q14 20 33 37l62 -60q41 30 90 30q50 0 90 -29l60 60q2 -2 5.5 -4t4.5 -4q14 -12 25 -30l-59 -56q29 -41 28.5 -91t-29.5 -91l60 -60l-8 -8l-8 -9q-6 -6 -20 -18l-59 60q-41 -30 -90 -30q-50 0 -90 31l-62 -60 l-9 8l-8 9zM126 360q0 -41 30 -73q30 -30 73 -30t73 30t30 73t-30 73t-73 30t-73 -30t-30 -73z" />
<glyph unicode="&#xa5;" horiz-adv-x="625" d="M188 452l-169 269h142l117 -195q14 -25 20 -41q9 -20 14 -60q7 42 14 60q7 19 21 41l117 195h141l-164 -269h123v-94h-178l-12 -11v-15h190v-94h-190v-238h-122v238h-190v94h190v15l-8 11h-182v94h126z" />
<glyph unicode="&#xa7;" horiz-adv-x="581" d="M132 512q-60 52 -60 125q0 80 65 132.5t164 52.5q100 0 163.5 -56t68.5 -149l-107 4q-6 54 -40.5 87t-86.5 33q-44 0 -77.5 -29.5t-33.5 -67.5q0 -36 30 -66q15 -15 47 -27l185 -66q52 -19 80.5 -59.5t28.5 -94.5q0 -104 -105 -149q56 -53 56 -121q0 -83 -63.5 -136 t-161.5 -53q-103 0 -169.5 55t-66.5 139v17l106 -4l-1 -8q0 -50 37.5 -84.5t92.5 -34.5q47 0 77.5 28t30.5 70q0 69 -76 95l-188 64q-109 37 -109 145t113 158zM378 405l-159 56q-3 0 -8.5 0.5t-8.5 0.5q-28 0 -47.5 -25.5t-19.5 -61.5q0 -33 22 -58.5t60 -37.5l147 -47h5 q36 0 58 23t22 61q0 64 -71 89z" />
<glyph unicode="&#xa8;" horiz-adv-x="255" d="M-37 582q0 27 20 47t48 20t47.5 -20t19.5 -47q0 -28 -20 -48t-49 -20q-28 0 -47 19.5t-19 48.5zM159 582q0 27 19.5 47t47.5 20q27 0 46 -20t19 -47q0 -28 -19 -48t-46 -20q-28 0 -47.5 20t-19.5 48z" />
<glyph unicode="&#xa9;" horiz-adv-x="862" d="M58 361q0 154 109 263q72 72 168 97.5t192 0t168 -97.5q109 -109 109 -263q0 -155 -109 -264t-264 -109t-264 109t-109 264zM112 361q0 -134 94 -230q93 -95 225 -95t225 95q94 95 94 229.5t-94 229.5q-93 94 -225 94t-225 -94q-94 -96 -94 -229zM602 541l-33 -47 q-37 31 -82 40q-76 15 -137.5 -28t-73.5 -118q-12 -77 29.5 -136.5t114.5 -72.5q66 -11 125 26q16 10 23 16l33 -47q-64 -53 -151 -56q-62 -2 -116 25t-85 73t-40.5 106t15.5 124q29 80 102.5 121.5t162.5 25.5q64 -11 113 -52z" />
<glyph unicode="&#xaa;" horiz-adv-x="446" d="M53 268v68h350v-68h-350zM325 662l4 -7v65h74v-335h-75v69l-3 -8l-4 -8q-21 -40 -72.5 -55t-105.5 6q-80 33 -97 126q-3 19 -3 39q1 86 60 137.5t132 36.5q60 -13 85 -57zM120 554q0 -16 2 -23q6 -35 28 -58t55 -29t61 7q50 22 62 80q4 23 0 45q-12 58 -60 80t-92.5 -2.5 t-54.5 -79.5q-2 -12 -1 -20z" />
<glyph unicode="&#xab;" horiz-adv-x="444" d="M168 37l-149 216l156 216l68 -52l-123 -165l121 -163zM349 37l-148 216l156 216l68 -52l-123 -165l121 -163z" />
<glyph unicode="&#xac;" horiz-adv-x="590" d="M475 360h-432v90h504v-234h-72v144z" />
<glyph unicode="&#xad;" horiz-adv-x="334" d="M315 179h-296v101h296v-101z" />
<glyph unicode="&#xae;" horiz-adv-x="862" d="M58 361q0 154 109 263q72 72 168 97.5t192 0t168 -97.5q109 -109 109 -263q0 -155 -109 -264t-264 -109t-264 109t-109 264zM112 361q0 -134 94 -230q93 -95 225 -95t225 95q94 95 94 229.5t-94 229.5q-93 94 -225 94t-225 -94q-94 -96 -94 -229zM376 135h-65v460h114 q71 0 105 -27q33 -29 42 -72q11 -59 -17 -100.5t-82 -50.5q-5 -1 -15 -1l141 -209h-77l-146 223v-223zM376 541v-160h38q45 0 69 21t25 58q2 38 -21.5 59.5t-67.5 21.5h-43z" />
<glyph unicode="&#xaf;" horiz-adv-x="317" d="M316 521h-317v88h317v-88z" />
<glyph unicode="&#xb1;" horiz-adv-x="549" d="M44 87h462v-68h-462v68zM241 453h68v-122h197v-68h-197v-122h-68v122h-197v68h197v122z" />
<glyph unicode="&#xb4;" horiz-adv-x="223" d="M92 508l-56 36l120 157l86 -56z" />
<glyph unicode="&#xb5;" horiz-adv-x="576" d="M74 449h92v-296q0 -71 14 -95t50 -24q57 -1 95 80q38 82 38 205v130h92v-328q0 -45 9 -66q9 -20 29 -21q20 0 32 21q11 20 11 61v14h21q0 -5 1 -9v-13q0 -56 -24 -87q-22 -30 -66 -30q-48 -1 -76 43q-24 40 -26 129q-23 -89 -61 -130q-38 -40 -97 -42q-44 0 -73 26 q-28 25 -40 77q0 -2 -0.5 -11.5t-0.5 -16.5q-1 -62 32 -141q32 -78 32 -92q0 -20 -11 -31t-31 -11q-22 -1 -33 17q-8 14 -10 53q0 2 0.5 9.5t1 21t0.5 27.5q2 64 2 89q0 57 -1 101q-2 88 -2 95v245z" />
<glyph unicode="&#xb6;" horiz-adv-x="600" d="M241 720h316v-58h-316q-59 0 -100 -42t-40 -102q1 -58 42 -99t98 -41h67v238h61v-616h-61v320h-67q-82 0 -140 58.5t-58 141.5t58 141.5t140 58.5zM495 0h-61v616h61v-616z" />
<glyph unicode="&#xb7;" horiz-adv-x="199" d="M19 228q0 33 23.5 56.5t56.5 23.5q34 0 57 -23.5t23 -56.5t-23.5 -56.5t-56.5 -23.5t-56.5 24t-23.5 56z" />
<glyph unicode="&#xb8;" horiz-adv-x="152" d="M71 -212l-54 34l84 151l72 -41z" />
<glyph unicode="&#xba;" horiz-adv-x="446" d="M398 268h-349v68h349v-68zM43 554q0 13 4 37q16 75 76 115.5t136 25.5q74 -15 115 -77t26 -138q-15 -73 -76.5 -114t-136.5 -26q-54 11 -91.5 48.5t-48.5 91.5q-4 17 -4 37zM117 554q0 -8 2 -20q13 -74 82 -89q44 -10 81 16t45 72q6 35 -6 65t-37 48q-48 36 -104 11 q-50 -24 -61 -82q-2 -14 -2 -21z" />
<glyph unicode="&#xbb;" horiz-adv-x="448" d="M89 37l-70 54l128 166l-125 160l71 53l153 -211zM269 37l-68 54l128 166l-126 160l71 53l154 -211z" />
<glyph unicode="&#xbf;" horiz-adv-x="490" d="M172 665q0 32 23.5 56t56.5 24q32 0 55.5 -24t23.5 -56q0 -33 -23.5 -56.5t-55.5 -23.5q-33 0 -56.5 23.5t-23.5 56.5zM194 425v103h113v-195q-34 4 -40 4q-61 0 -99.5 -34.5t-38.5 -90.5q0 -55 33.5 -89t88.5 -34q52 0 82.5 31.5t31.5 87.5h110q-2 -101 -63.5 -161 t-161.5 -60q-103 0 -170 64t-67 163q0 88 49 145.5t132 65.5z" />
<glyph unicode="&#xc0;" horiz-adv-x="624" d="M94 0h-131l349 747l349 -747h-130l-70 160h-298zM283 428l-73 -166h204l-73 166q-17 38 -22 60t-7 69q-3 -60 -16 -96q-6 -18 -13 -33zM311 800l-150 138l85 57l121 -157z" />
<glyph unicode="&#xc1;" horiz-adv-x="624" d="M94 0h-131l349 747l349 -747h-130l-70 160h-298zM283 428l-73 -166h204l-73 166q-17 38 -22 60t-7 69q-3 -60 -16 -96q-6 -18 -13 -33zM315 801l-56 36l120 157l86 -56z" />
<glyph unicode="&#xc2;" horiz-adv-x="624" d="M94 0h-131l349 747l349 -747h-130l-70 160h-298zM283 428l-73 -166h204l-73 166q-17 38 -22 60t-7 69q-3 -60 -16 -96q-6 -18 -13 -33zM204 802l-54 62l145 131h31l151 -128l-53 -63l-109 98z" />
<glyph unicode="&#xc3;" horiz-adv-x="624" d="M94 0h-131l349 747l349 -747h-130l-70 160h-298zM283 428l-73 -166h204l-73 166q-17 38 -22 60t-7 69q-3 -60 -16 -96q-6 -18 -13 -33zM213 808l-58 3q20 122 99 122q15 0 30 -5q4 -1 18 -7l21 -9l16 -7q37 -16 51 -16q15 0 24 8t16 30l57 -3q-5 -57 -29.5 -89.5 t-64.5 -32.5q-17 0 -29 5q-12 3 -23 7q-15 6 -17 7l-16 8l-19 8l-10 4t-7 3t-3 1q-7 3 -15 3q-34 0 -41 -40z" />
<glyph unicode="&#xc4;" horiz-adv-x="624" d="M140 785q0 29 21.5 49.5t50.5 20.5t50 -20.5t21 -49.5q0 -30 -21 -50.5t-50 -20.5q-30 0 -51 20.5t-21 50.5zM347 785q0 29 21 49.5t50 20.5t50 -20.5t21 -49.5q0 -30 -21 -50.5t-50 -20.5q-30 0 -50.5 20.5t-20.5 50.5zM94 0h-131l349 747l349 -747h-130l-70 160h-298z M283 428l-73 -166h204l-73 166q-17 38 -22 60t-7 69q-3 -60 -16 -96q-6 -18 -13 -33z" />
<glyph unicode="&#xc5;" horiz-adv-x="624" d="M94 0h-131l325 686q-47 23 -65 45t-18 56q0 47 32 81t77 34t76.5 -34t31.5 -81q0 -33 -17.5 -55.5t-62.5 -45.5l319 -686h-130l-70 160h-298zM283 428l-73 -166h204l-73 166q-17 38 -22 60t-7 69q-3 -60 -16 -96q-6 -18 -13 -33zM268 792q0 -18 13.5 -31.5t32.5 -13.5 q18 0 31.5 13.5t13.5 31.5q0 19 -13.5 32.5t-31.5 13.5q-19 0 -32.5 -13.5t-13.5 -32.5z" />
<glyph unicode="&#xc6;" horiz-adv-x="952" d="M91 0h-128l347 749l13 -28h349l49 -107h-350l87 -190h352l49 -107h-351l94 -211h350l51 -106h-482l-66 164h-296zM298 501l-14 -33l-86 -207h219l-82 207l-14 33q-5 14 -12 59q-3 -39 -11 -59z" />
<glyph unicode="&#xc7;" horiz-adv-x="601" d="M582 683v-146q-87 84 -191 84q-105 0 -177 -76t-72 -186q0 -111 73 -186.5t181 -75.5q100 0 186 79v-138l-13 -6q-44 -20 -54 -24q-53 -21 -117 -21q-161 0 -270 106.5t-109 264.5q0 159 110 268t270 109q52 0 89.5 -10.5t93.5 -41.5zM324 -204l-54 33l84 152l72 -42z " />
<glyph unicode="&#xc8;" horiz-adv-x="477" d="M436 0h-378v721h378v-107h-260v-191h254v-106h-254v-211h260v-106zM254 800l-150 138l85 57l121 -157z" />
<glyph unicode="&#xc9;" horiz-adv-x="477" d="M436 0h-378v721h378v-107h-260v-191h254v-106h-254v-211h260v-106zM252 801l-56 36l120 157l86 -56z" />
<glyph unicode="&#xca;" horiz-adv-x="477" d="M436 0h-378v721h378v-107h-260v-191h254v-106h-254v-211h260v-106zM143 802l-54 62l145 131h31l151 -128l-53 -63l-109 98z" />
<glyph unicode="&#xcb;" horiz-adv-x="477" d="M89 875q0 27 20 47t48 20t47.5 -20t19.5 -47q0 -28 -20 -48t-49 -20q-28 0 -47 19.5t-19 48.5zM285 875q0 27 19.5 47t47.5 20q27 0 46 -20t19 -47q0 -28 -19 -48t-46 -20q-28 0 -47.5 20t-19.5 48zM436 0h-378v721h378v-107h-260v-191h254v-106h-254v-211h260v-106z" />
<glyph unicode="&#xcc;" horiz-adv-x="235" d="M176 0h-118v721l118 -1v-720zM125 800l-150 138l85 57l121 -157z" />
<glyph unicode="&#xcd;" horiz-adv-x="235" d="M176 0h-118v721l118 -1v-720zM127 801l-56 36l120 157l86 -56z" />
<glyph unicode="&#xce;" horiz-adv-x="235" d="M176 0h-118v721l118 -1v-720zM9 802l-54 62l145 131h31l151 -128l-53 -63l-109 98z" />
<glyph unicode="&#xcf;" horiz-adv-x="235" d="M176 0h-118v721l118 -1v-720zM-43 875q0 27 20 47t48 20t47.5 -20t19.5 -47q0 -28 -20 -48t-49 -20q-28 0 -47 19.5t-19 48.5zM153 875q0 27 19.5 47t47.5 20q27 0 46 -20t19 -47q0 -28 -19 -48t-46 -20q-28 0 -47.5 20t-19.5 48z" />
<glyph unicode="&#xd1;" horiz-adv-x="765" d="M176 0h-118v748l480 -456q21 -21 27 -31q20 -29 33 -64q-8 72 -8 77q-1 15 -1 42v405h118v-752l-478 457q-12 12 -26 31q-22 29 -47 71q20 -56 20 -86v-40v-402zM291 808l-58 3q20 122 99 122q15 0 30 -5q4 -1 18 -7l21 -9l16 -7q37 -16 51 -16q15 0 24 8t16 30l57 -3 q-5 -57 -29.5 -89.5t-64.5 -32.5q-17 0 -29 5q-12 3 -23 7q-15 6 -17 7l-16 8l-19 8l-10 4t-7 3t-3 1q-7 3 -15 3q-34 0 -41 -40z" />
<glyph unicode="&#xd2;" horiz-adv-x="817" d="M30 360q0 159 109.5 267.5t269.5 108.5t269 -108.5t109 -267.5t-109 -267.5t-269 -108.5q-159 0 -269 108.5t-110 267.5zM409 622q-107 0 -182 -76.5t-75 -185.5t75 -185.5t182 -76.5t181.5 76.5t74.5 185.5t-74.5 185.5t-181.5 76.5zM405 800l-150 138l85 57l121 -157z " />
<glyph unicode="&#xd3;" horiz-adv-x="817" d="M30 360q0 159 109.5 267.5t269.5 108.5t269 -108.5t109 -267.5t-109 -267.5t-269 -108.5q-159 0 -269 108.5t-110 267.5zM409 622q-107 0 -182 -76.5t-75 -185.5t75 -185.5t182 -76.5t181.5 76.5t74.5 185.5t-74.5 185.5t-181.5 76.5zM408 801l-56 36l120 157l86 -56z " />
<glyph unicode="&#xd4;" horiz-adv-x="817" d="M30 360q0 159 109.5 267.5t269.5 108.5t269 -108.5t109 -267.5t-109 -267.5t-269 -108.5q-159 0 -269 108.5t-110 267.5zM409 622q-107 0 -182 -76.5t-75 -185.5t75 -185.5t182 -76.5t181.5 76.5t74.5 185.5t-74.5 185.5t-181.5 76.5zM305 802l-54 62l145 131h31 l151 -128l-53 -63l-109 98z" />
<glyph unicode="&#xd5;" horiz-adv-x="817" d="M30 360q0 159 109.5 267.5t269.5 108.5t269 -108.5t109 -267.5t-109 -267.5t-269 -108.5q-159 0 -269 108.5t-110 267.5zM409 622q-107 0 -182 -76.5t-75 -185.5t75 -185.5t182 -76.5t181.5 76.5t74.5 185.5t-74.5 185.5t-181.5 76.5zM312 808l-58 3q20 122 99 122 q15 0 30 -5q4 -1 18 -7l21 -9l16 -7q37 -16 51 -16q15 0 24 8t16 30l57 -3q-5 -57 -29.5 -89.5t-64.5 -32.5q-17 0 -29 5q-12 3 -23 7q-15 6 -17 7l-16 8l-19 8l-10 4t-7 3t-3 1q-8 3 -15 3q-34 0 -41 -40z" />
<glyph unicode="&#xd6;" horiz-adv-x="817" d="M134 785q0 29 20.5 49.5t50.5 20.5q29 0 49.5 -20.5t20.5 -49.5q0 -30 -20.5 -50.5t-49.5 -20.5q-30 0 -50.5 20.5t-20.5 50.5zM551 785q0 29 21 49.5t50 20.5t50.5 -20.5t21.5 -49.5q0 -30 -21 -50.5t-51 -20.5q-29 0 -50 20.5t-21 50.5zM30 359q0 159 109.5 267.5 t269.5 108.5t269 -108.5t109 -267.5t-109 -267.5t-269 -108.5q-159 0 -269 108.5t-110 267.5zM409 621q-107 0 -182 -76.5t-75 -185.5t75 -185.5t182 -76.5t181.5 76.5t74.5 185.5t-74.5 185.5t-181.5 76.5z" />
<glyph unicode="&#xd7;" d="M174 162l-68 68l132 132l-130 130l64 64l130 -130l132 132l68 -69l-132 -132l129 -129l-63 -64l-130 129z" />
<glyph unicode="&#xd8;" horiz-adv-x="821" d="M58 -15l-28 25l99 96q-22 25 -39 51q-60 91 -60 203q0 158 109.5 267t269.5 109q76 0 135 -22q55 -20 124 -79l95 91l27 -27l-95 -91q6 -8 14 -19t13.5 -18t8.5 -12q56 -87 56 -200q0 -158 -109 -266.5t-269 -108.5q-72 0 -135 22q-53 20 -117 75zM610 523l-367 -360 q42 -35 76 -48q43 -17 90 -17q107 0 181.5 76.5t74.5 185.5q0 74 -34 131q-2 4 -9.5 15t-11.5 17zM215 189l369 363q-49 35 -80 47q-48 18 -93 18q-107 0 -180.5 -74.5t-73.5 -182.5q0 -69 35 -136l8 -13q8 -13 15 -22z" />
<glyph unicode="&#xd9;" horiz-adv-x="669" d="M493 721h119v-429q0 -89 -20 -144q-27 -76 -97 -121.5t-160 -45.5q-115 0 -193 70q-46 42 -65 97t-19 144v429h118v-446q0 -85 42.5 -134t115.5 -49q74 0 116.5 49t42.5 134v446zM351 800l-150 138l85 57l121 -157z" />
<glyph unicode="&#xda;" horiz-adv-x="669" d="M493 721h119v-429q0 -89 -20 -144q-27 -76 -97 -121.5t-160 -45.5q-115 0 -193 70q-46 42 -65 97t-19 144v429h118v-446q0 -85 42.5 -134t115.5 -49q74 0 116.5 49t42.5 134v446zM347 801l-56 36l120 157l86 -56z" />
<glyph unicode="&#xdb;" horiz-adv-x="669" d="M493 721h119v-429q0 -89 -20 -144q-27 -76 -97 -121.5t-160 -45.5q-115 0 -193 70q-46 42 -65 97t-19 144v429h118v-446q0 -85 42.5 -134t115.5 -49q74 0 116.5 49t42.5 134v446zM234 802l-54 62l145 131h31l151 -128l-53 -63l-109 98z" />
<glyph unicode="&#xdc;" horiz-adv-x="669" d="M493 721h119v-429q0 -89 -20 -144q-27 -76 -97 -121.5t-160 -45.5q-115 0 -193 70q-46 42 -65 97t-19 144v429h118v-446q0 -85 42.5 -134t115.5 -49q74 0 116.5 49t42.5 134v446zM186 828q0 30 21 50.5t51 20.5q29 0 50 -20.5t21 -50.5q0 -29 -21 -50t-50 -21t-50.5 21 t-21.5 50zM360 828q0 29 21.5 50t50.5 21q30 0 50.5 -21t20.5 -50t-20.5 -50t-50.5 -21q-29 0 -50.5 21t-21.5 50z" />
<glyph unicode="&#xdf;" horiz-adv-x="569" d="M172 0h-114v628q0 83 62.5 139t156.5 56q97 0 161 -56t64 -140q0 -59 -31.5 -104.5t-88.5 -68.5q76 -20 118.5 -76t42.5 -138q0 -101 -61 -170q-64 -74 -199 -74q-34 0 -69 5v101q26 -9 55 -9q68 0 112 43.5t44 111.5q0 72 -48 112.5t-133 40.5q-3 0 -23 -2v91 q8 -1 19 -1q69 0 106 32t37 93q0 49 -29.5 80t-75.5 31q-52 0 -82 -37q-24 -31 -24 -102v-586z" />
<glyph unicode="&#xe0;" horiz-adv-x="588" d="M419 383v80h111v-463h-112v85q-43 -96 -164 -96q-97 0 -160.5 67.5t-63.5 171.5q0 105 65 177.5t160 72.5q113 0 164 -95zM282 379q-59 0 -98 -42t-39 -105q0 -62 39 -103t98 -41t99.5 42t40.5 104q0 61 -40.5 103t-99.5 42zM310 507l-150 138l85 57l121 -157z" />
<glyph unicode="&#xe1;" horiz-adv-x="588" d="M419 383v80h111v-463h-112v85q-43 -96 -164 -96q-97 0 -160.5 67.5t-63.5 171.5q0 105 65 177.5t160 72.5q113 0 164 -95zM282 379q-59 0 -98 -42t-39 -105q0 -62 39 -103t98 -41t99.5 42t40.5 104q0 61 -40.5 103t-99.5 42zM295 508l-56 36l120 157l86 -56z" />
<glyph unicode="&#xe2;" horiz-adv-x="588" d="M419 383v80h111v-463h-112v85q-43 -96 -164 -96q-97 0 -160.5 67.5t-63.5 171.5q0 105 65 177.5t160 72.5q113 0 164 -95zM282 379q-59 0 -98 -42t-39 -105q0 -62 39 -103t98 -41t99.5 42t40.5 104q0 61 -40.5 103t-99.5 42zM195 509l-54 62l145 131h31l151 -128l-53 -63 l-109 98z" />
<glyph unicode="&#xe3;" horiz-adv-x="588" d="M419 383v80h111v-463h-112v85q-43 -96 -164 -96q-97 0 -160.5 67.5t-63.5 171.5q0 105 65 177.5t160 72.5q113 0 164 -95zM282 379q-59 0 -98 -42t-39 -105q0 -62 39 -103t98 -41t99.5 42t40.5 104q0 61 -40.5 103t-99.5 42zM205 515l-58 3q20 122 99 122q15 0 30 -5 q4 -1 18 -7l21 -9l16 -7q37 -16 51 -16q15 0 24 8t16 30l57 -3q-5 -57 -29.5 -89.5t-64.5 -32.5q-17 0 -29 5q-12 3 -23 7q-15 6 -17 7l-16 8l-19 8l-10 4t-7 3t-3 1q-7 3 -15 3q-34 0 -41 -40z" />
<glyph unicode="&#xe4;" horiz-adv-x="588" d="M419 383v80h111v-463h-112v85q-43 -96 -164 -96q-97 0 -160.5 67.5t-63.5 171.5q0 105 65 177.5t160 72.5q113 0 164 -95zM282 379q-59 0 -98 -42t-39 -105q0 -62 39 -103t98 -41t99.5 42t40.5 104q0 61 -40.5 103t-99.5 42zM161 618q0 27 20 47t48 20t47.5 -20t19.5 -47 q0 -28 -20 -48t-49 -20q-28 0 -47 19.5t-19 48.5zM357 618q0 27 19.5 47t47.5 20q27 0 46 -20t19 -47q0 -28 -19 -48t-46 -20q-28 0 -47.5 20t-19.5 48z" />
<glyph unicode="&#xe5;" horiz-adv-x="588" d="M419 383v80h111v-463h-112v85q-43 -96 -164 -96q-97 0 -160.5 67.5t-63.5 171.5q0 105 65 177.5t160 72.5q113 0 164 -95zM282 379q-59 0 -98 -42t-39 -105q0 -62 39 -103t98 -41t99.5 42t40.5 104q0 61 -40.5 103t-99.5 42zM194 610q0 44 32 76.5t77 32.5q44 0 76 -32 t32 -77t-32 -76.5t-78 -31.5q-44 0 -75.5 31.5t-31.5 76.5zM301 655q-17 0 -30.5 -13.5t-13.5 -31.5q0 -19 13.5 -32t32.5 -13q18 0 31 13t13 32t-13.5 32t-32.5 13z" />
<glyph unicode="&#xe6;" horiz-adv-x="838" d="M351 261q-1 25 -4 44q-15 91 -124 91q-77 0 -142 -45l-2 101q24 9 28 11q63 21 133 21q74 0 118 -24.5t64 -77.5q58 100 173 100q100 0 159.5 -67t59.5 -179q0 -18 -1 -32h-349q10 -61 45.5 -94t90.5 -33q77 0 122 82l80 -43q-67 -130 -203 -130q-130 0 -186 96 q-24 -45 -76 -70.5t-119 -25.5q-84 0 -136 43.5t-52 113.5q0 71 50.5 115t132.5 44q88 0 138 -41zM591 403q-53 0 -85 -34t-34 -93h238q-2 59 -34 93t-85 34zM134 147v-5q0 -32 29 -51t75 -19q52 0 82.5 21.5t30.5 56.5q0 34 -31 53t-86 19q-47 0 -73.5 -19.5t-26.5 -55.5z " />
<glyph unicode="&#xe7;" horiz-adv-x="403" d="M384 450v-125q-34 49 -104 49q-61 0 -100 -40.5t-39 -104.5q0 -62 38 -103t96 -41q60 0 109 46v-119q-65 -27 -120 -27q-106 0 -175.5 69t-69.5 174q0 108 71 180.5t177 72.5q56 0 117 -31zM202 -203l-54 33l83 152l73 -41z" />
<glyph unicode="&#xe8;" horiz-adv-x="523" d="M499 216v-15h-355q6 -58 40.5 -91t90.5 -33q81 0 128 79l82 -50q-32 -58 -87.5 -89.5t-123.5 -31.5q-107 0 -175.5 68.5t-68.5 175.5q0 108 68.5 180t171.5 72q106 0 167.5 -71.5t61.5 -193.5zM267 396q-48 0 -80 -30t-41 -83h238q-8 54 -38 83.5t-79 29.5zM278 507 l-150 138l85 57l121 -157z" />
<glyph unicode="&#xe9;" horiz-adv-x="523" d="M499 216v-15h-355q6 -58 40.5 -91t90.5 -33q81 0 128 79l82 -50q-32 -58 -87.5 -89.5t-123.5 -31.5q-107 0 -175.5 68.5t-68.5 175.5q0 108 68.5 180t171.5 72q106 0 167.5 -71.5t61.5 -193.5zM267 396q-48 0 -80 -30t-41 -83h238q-8 54 -38 83.5t-79 29.5zM271 508 l-56 36l120 157l86 -56z" />
<glyph unicode="&#xea;" horiz-adv-x="523" d="M499 216v-15h-355q6 -58 40.5 -91t90.5 -33q81 0 128 79l82 -50q-32 -58 -87.5 -89.5t-123.5 -31.5q-107 0 -175.5 68.5t-68.5 175.5q0 108 68.5 180t171.5 72q106 0 167.5 -71.5t61.5 -193.5zM267 396q-48 0 -80 -30t-41 -83h238q-8 54 -38 83.5t-79 29.5zM160 509 l-54 62l145 131h31l151 -128l-53 -63l-109 98z" />
<glyph unicode="&#xeb;" horiz-adv-x="523" d="M499 216v-15h-355q6 -58 40.5 -91t90.5 -33q81 0 128 79l82 -50q-32 -58 -87.5 -89.5t-123.5 -31.5q-107 0 -175.5 68.5t-68.5 175.5q0 108 68.5 180t171.5 72q106 0 167.5 -71.5t61.5 -193.5zM267 396q-48 0 -80 -30t-41 -83h238q-8 54 -38 83.5t-79 29.5zM109 582 q0 27 20 47t48 20t47.5 -20t19.5 -47q0 -28 -20 -48t-49 -20q-28 0 -47 19.5t-19 48.5zM305 582q0 27 19.5 47t47.5 20q27 0 46 -20t19 -47q0 -28 -19 -48t-46 -20q-28 0 -47.5 20t-19.5 48z" />
<glyph unicode="&#xec;" horiz-adv-x="152" d="M132 0h-113v463h113v-463zM79 507l-150 138l85 57l121 -157z" />
<glyph unicode="&#xed;" horiz-adv-x="152" d="M132 0h-113v463h113v-463zM82 508l-56 36l120 157l86 -56z" />
<glyph unicode="&#xee;" horiz-adv-x="152" d="M132 0h-113v463h113v-463zM-29 509l-54 62l145 131h31l151 -128l-53 -63l-109 98z" />
<glyph unicode="&#xef;" horiz-adv-x="152" d="M132 0h-113v463h113v-463zM-84 582q0 27 20 47t48 20t47.5 -20t19.5 -47q0 -28 -20 -48t-49 -20q-28 0 -47 19.5t-19 48.5zM112 582q0 27 19.5 47t47.5 20q27 0 46 -20t19 -47q0 -28 -19 -48t-46 -20q-28 0 -47.5 20t-19.5 48z" />
<glyph unicode="&#xf1;" horiz-adv-x="541" d="M171 0h-113v463h112v-80q48 91 150 91q64 0 111 -38q29 -23 40.5 -55t11.5 -88v-293h-112v258q0 116 -94 116q-50 0 -78 -32t-28 -90v-252zM182 515l-58 3q20 122 99 122q15 0 30 -5q4 -1 18 -7l21 -9l16 -7q37 -16 51 -16q15 0 24 8t16 30l57 -3q-5 -57 -29.5 -89.5 t-64.5 -32.5q-17 0 -29 5q-12 3 -23 7q-15 6 -17 7l-16 8l-19 8l-10 4t-7 3t-3 1q-8 3 -15 3q-34 0 -41 -40z" />
<glyph unicode="&#xf2;" horiz-adv-x="561" d="M30 230q0 106 72 178t177 72q107 0 179 -71.5t72 -177.5q0 -105 -72 -177t-178 -72q-104 0 -177 72t-73 176zM280 375q-58 0 -98 -42t-40 -102q0 -61 40 -103t99 -42q58 0 97.5 41.5t39.5 103.5q0 61 -39.5 102.5t-98.5 41.5zM285 507l-150 138l85 57l121 -157z" />
<glyph unicode="&#xf3;" horiz-adv-x="561" d="M30 230q0 106 72 178t177 72q107 0 179 -71.5t72 -177.5q0 -105 -72 -177t-178 -72q-104 0 -177 72t-73 176zM280 375q-58 0 -98 -42t-40 -102q0 -61 40 -103t99 -42q58 0 97.5 41.5t39.5 103.5q0 61 -39.5 102.5t-98.5 41.5zM279 508l-56 36l120 157l86 -56z" />
<glyph unicode="&#xf4;" horiz-adv-x="561" d="M30 230q0 106 72 178t177 72q107 0 179 -71.5t72 -177.5q0 -105 -72 -177t-178 -72q-104 0 -177 72t-73 176zM280 375q-58 0 -98 -42t-40 -102q0 -61 40 -103t99 -42q58 0 97.5 41.5t39.5 103.5q0 61 -39.5 102.5t-98.5 41.5zM179 509l-54 62l145 131h31l151 -128 l-53 -63l-109 98z" />
<glyph unicode="&#xf5;" horiz-adv-x="561" d="M30 230q0 106 72 178t177 72q107 0 179 -71.5t72 -177.5q0 -105 -72 -177t-178 -72q-104 0 -177 72t-73 176zM280 375q-58 0 -98 -42t-40 -102q0 -61 40 -103t99 -42q58 0 97.5 41.5t39.5 103.5q0 61 -39.5 102.5t-98.5 41.5zM183 515l-58 3q20 122 99 122q15 0 30 -5 q4 -1 18 -7l21 -9l16 -7q37 -16 51 -16q15 0 24 8t16 30l57 -3q-5 -57 -29.5 -89.5t-64.5 -32.5q-17 0 -29 5q-12 3 -23 7q-15 6 -17 7l-16 8l-19 8l-10 4t-7 3t-3 1q-7 3 -15 3q-34 0 -41 -40z" />
<glyph unicode="&#xf6;" horiz-adv-x="561" d="M30 230q0 106 72 178t177 72q107 0 179 -71.5t72 -177.5q0 -105 -72 -177t-178 -72q-104 0 -177 72t-73 176zM280 375q-58 0 -98 -42t-40 -102q0 -61 40 -103t99 -42q58 0 97.5 41.5t39.5 103.5q0 61 -39.5 102.5t-98.5 41.5zM126 618q0 27 20 47t48 20t47.5 -20 t19.5 -47q0 -28 -20 -48t-49 -20q-28 0 -47 19.5t-19 48.5zM322 618q0 27 19.5 47t47.5 20q27 0 46 -20t19 -47q0 -28 -19 -48t-46 -20q-28 0 -47.5 20t-19.5 48z" />
<glyph unicode="&#xf7;" horiz-adv-x="549" d="M234 141q19 17 41 17q24 0 40 -16t16 -41q0 -24 -17 -40q-15 -17 -39 -17t-41 17q-16 18 -16 40q0 24 16 40zM43 270h463v-68h-463v68zM234 410q17 15 41 17q24 0 39 -17q17 -17 17 -40q0 -24 -17 -40q-15 -17 -39 -17t-41 17q-16 16 -16 40t16 40z" />
<glyph unicode="&#xf8;" horiz-adv-x="561" d="M58 -17l-28 26l59 60q-13 16 -21 29q-38 59 -38 132q0 106 72 178t177 72q52 0 97 -18q30 -12 68 -41l61 55l26 -26l-59 -60q16 -19 21 -28q37 -55 37 -131q0 -105 -72 -177t-177 -72q-51 0 -96 18q-35 15 -67 40zM394 314l-199 -198q44 -30 86 -30q58 0 97.5 41.5 t39.5 103.5q0 46 -24 83zM168 146l198 199q-38 30 -85 30q-59 0 -99 -41t-40 -103q0 -46 26 -85z" />
<glyph unicode="&#xf9;" horiz-adv-x="545" d="M374 463h112v-261q0 -72 -15 -107q-21 -49 -75.5 -78.5t-123.5 -29.5q-90 0 -150 48q-35 27 -49.5 64.5t-14.5 102.5v261h113v-264q0 -53 26.5 -81.5t74.5 -28.5q49 0 75.5 28.5t26.5 81.5v264zM289 507l-150 138l85 57l121 -157z" />
<glyph unicode="&#xfa;" horiz-adv-x="545" d="M374 463h112v-261q0 -72 -15 -107q-21 -49 -75.5 -78.5t-123.5 -29.5q-90 0 -150 48q-35 27 -49.5 64.5t-14.5 102.5v261h113v-264q0 -53 26.5 -81.5t74.5 -28.5q49 0 75.5 28.5t26.5 81.5v264zM282 508l-56 36l120 157l86 -56z" />
<glyph unicode="&#xfb;" horiz-adv-x="545" d="M374 463h112v-261q0 -72 -15 -107q-21 -49 -75.5 -78.5t-123.5 -29.5q-90 0 -150 48q-35 27 -49.5 64.5t-14.5 102.5v261h113v-264q0 -53 26.5 -81.5t74.5 -28.5q49 0 75.5 28.5t26.5 81.5v264zM171 509l-54 62l145 131h31l151 -128l-53 -63l-109 98z" />
<glyph unicode="&#xfc;" horiz-adv-x="545" d="M374 463h112v-261q0 -72 -15 -107q-21 -49 -75.5 -78.5t-123.5 -29.5q-90 0 -150 48q-35 27 -49.5 64.5t-14.5 102.5v261h113v-264q0 -53 26.5 -81.5t74.5 -28.5q49 0 75.5 28.5t26.5 81.5v264zM117 618q0 27 20 47t48 20t47.5 -20t19.5 -47q0 -28 -20 -48t-49 -20 q-28 0 -47 19.5t-19 48.5zM313 618q0 27 19.5 47t47.5 20q27 0 46 -20t19 -47q0 -28 -19 -48t-46 -20q-28 0 -47.5 20t-19.5 48z" />
<glyph unicode="&#xff;" horiz-adv-x="444" d="M170 27l-200 436h125l108 -247q20 -45 22 -97q3 48 12 70l12 26l103 248h123l-303 -715h-123zM67 582q0 27 20 47t48 20t47.5 -20t19.5 -47q0 -28 -20 -48t-49 -20q-28 0 -47 19.5t-19 48.5zM263 582q0 27 19.5 47t47.5 20q27 0 46 -20t19 -47q0 -28 -19 -48t-46 -20 q-28 0 -47.5 20t-19.5 48z" />
<glyph unicode="&#x152;" horiz-adv-x="1083" d="M668 621v100h374v-103h-258v-194h258v-106h-260v-212h259v-106h-376v94q-12 -15 -17 -20q-87 -93 -239 -93q-158 0 -268.5 109.5t-110.5 266.5q0 156 111.5 267.5t268.5 111.5q54 0 112 -17t95 -45q21 -15 51 -53zM410 614q-106 0 -180.5 -74t-74.5 -180q0 -109 73 -183 t181 -74q107 0 181.5 73.5t74.5 179.5q0 107 -74.5 182.5t-180.5 75.5z" />
<glyph unicode="&#x153;" horiz-adv-x="901" d="M466 366q49 114 185 114q101 0 163.5 -68t62.5 -180q0 -20 -1 -34h-355q10 -59 45.5 -92.5t90.5 -33.5q83 0 127 86l85 -43q-33 -64 -88 -98.5t-124 -34.5q-71 0 -121.5 29.5t-72.5 82.5q-60 -108 -191 -108q-104 0 -173 71t-69 177q0 103 70 174.5t170 71.5 q65 0 116.5 -30t79.5 -84zM652 396q-52 0 -83.5 -32t-36.5 -90h238q-5 57 -36 89.5t-82 32.5zM279 379q-59 0 -97 -42t-38 -109q0 -62 38.5 -103t97.5 -41q60 0 98.5 41.5t38.5 106.5t-38.5 106t-99.5 41z" />
<glyph unicode="&#x178;" horiz-adv-x="497" d="M90 875q0 27 20 47t48 20t47.5 -20t19.5 -47q0 -28 -20 -48t-49 -20q-28 0 -47 19.5t-19 48.5zM286 875q0 27 19.5 47t47.5 20q27 0 46 -20t19 -47q0 -28 -19 -48t-46 -20q-28 0 -47.5 20t-19.5 48zM188 347l-232 374h141l117 -195q10 -16 21 -41q7 -19 14 -60 q5 37 14 60q6 16 20 41l117 195h142l-232 -374v-347h-122v347z" />
<glyph unicode="&#x2c6;" horiz-adv-x="307" d="M44 509l-54 62l145 131h31l151 -128l-53 -63l-109 98z" />
<glyph unicode="&#x2dc;" horiz-adv-x="312" d="M48 515l-58 3q20 122 99 122q15 0 30 -5q4 -1 18 -7l21 -9l16 -7q37 -16 51 -16q15 0 24 8t16 30l57 -3q-5 -57 -29.5 -89.5t-64.5 -32.5q-17 0 -29 5q-12 3 -23 7q-15 6 -17 7l-16 8l-19 8l-10 4t-7 3t-3 1q-8 3 -15 3q-34 0 -41 -40z" />
<glyph unicode="&#x2000;" horiz-adv-x="497" />
<glyph unicode="&#x2001;" horiz-adv-x="995" />
<glyph unicode="&#x2002;" horiz-adv-x="497" />
<glyph unicode="&#x2003;" horiz-adv-x="995" />
<glyph unicode="&#x2004;" horiz-adv-x="331" />
<glyph unicode="&#x2005;" horiz-adv-x="248" />
<glyph unicode="&#x2006;" horiz-adv-x="165" />
<glyph unicode="&#x2007;" horiz-adv-x="165" />
<glyph unicode="&#x2008;" horiz-adv-x="124" />
<glyph unicode="&#x2009;" horiz-adv-x="199" />
<glyph unicode="&#x200a;" horiz-adv-x="55" />
<glyph unicode="&#x2010;" horiz-adv-x="334" d="M315 179h-296v101h296v-101z" />
<glyph unicode="&#x2011;" horiz-adv-x="334" d="M315 179h-296v101h296v-101z" />
<glyph unicode="&#x2012;" horiz-adv-x="334" d="M315 179h-296v101h296v-101z" />
<glyph unicode="&#x2013;" d="M542 314h-476v94h476v-94z" />
<glyph unicode="&#x2014;" horiz-adv-x="996" d="M966 311h-936v95h936v-95z" />
<glyph unicode="&#x2018;" horiz-adv-x="216" d="M131 428h-135l130 293h76z" />
<glyph unicode="&#x2019;" horiz-adv-x="218" d="M68 428h-78l77 293h132z" />
<glyph unicode="&#x201a;" horiz-adv-x="218" d="M68 -91h-78l77 291h132z" />
<glyph unicode="&#x201c;" horiz-adv-x="395" d="M131 428h-135l130 293h76zM309 428h-135l131 293h76z" />
<glyph unicode="&#x201d;" horiz-adv-x="397" d="M68 428h-78l77 293h132zM246 428h-77l76 293h132z" />
<glyph unicode="&#x201e;" horiz-adv-x="397" d="M68 -91h-78l77 291h132zM246 -91h-77l76 291h132z" />
<glyph unicode="&#x2022;" horiz-adv-x="199" d="M19 228q0 33 23.5 56.5t56.5 23.5q34 0 57 -23.5t23 -56.5t-23.5 -56.5t-56.5 -23.5t-56.5 24t-23.5 56z" />
<glyph unicode="&#x2026;" horiz-adv-x="996" d="M95 61q0 30 21 51t51 21t51 -21t21 -51t-21 -51t-51 -21t-51 21t-21 51zM428 61q0 30 21 51t51 21t51 -21t21 -51t-21 -51t-51 -21t-51 21t-21 51zM761 61q0 30 21.5 51t50.5 21q30 0 51 -21t21 -51t-21 -51t-51 -21q-29 0 -50.5 21t-21.5 51z" />
<glyph unicode="&#x202f;" horiz-adv-x="199" />
<glyph unicode="&#x2039;" horiz-adv-x="263" d="M168 37l-149 216l156 216l68 -52l-123 -165l121 -163z" />
<glyph unicode="&#x203a;" horiz-adv-x="266" d="M89 37l-70 54l128 166l-125 160l71 53l153 -211z" />
<glyph unicode="&#x205f;" horiz-adv-x="248" />
<glyph unicode="&#x20ac;" horiz-adv-x="767" d="M506 -16q-128 0 -227.5 73t-135.5 190h-118l38 89h64v24q0 17 1 25h-103l38 89h81q36 117 135 189.5t227 72.5q135 0 236 -79l-50 -117q-74 82 -186 82q-76 0 -138.5 -40.5t-93.5 -107.5h392l-38 -89h-378q-1 -8 -1 -25q0 -16 1 -24h357l-38 -89h-296q31 -68 94 -108.5 t139 -40.5q112 0 188 83v-149q-85 -48 -188 -48z" />
<glyph unicode="&#x2122;" horiz-adv-x="723" d="M121 666h-78v54h218v-54h-80v-306h-60v306zM308 360h-59l67 367h39l92 -217q16 -35 17 -68q1 31 17 68l93 217h39l67 -367h-60l-35 206l-1 11l-1 10q-1 19 0 38q-1 -7 -10 -37l-4 -15l-2 -5l-90 -214h-25l-90 214l-2 5l-5 15q-3 9 -10 37q2 -24 1 -38l-1 -10l-2 -11z" />
<glyph unicode="&#x25fc;" horiz-adv-x="465" d="M0 465h465v-465h-465v465z" />
</font>
</defs>
</svg>
